<svg id="adbbe557-d10a-44dd-9031-6dbd446b2ebe" data-name="Capa 1" xmlns="http://www.w3.org/2000/svg" viewBox="0 0 425.35 512"><defs><style>.b616177a-18a2-4a5c-a736-3892e6002fbb{fill:#c6c5cb;}.a081c5c6-43f9-4608-bba8-a3e9684b57e7{fill:#d8d8da;}.ac3f078f-c1ed-4e98-bbe0-99d528618d04{fill:#e0e0e2;}.baf9a332-668c-40ba-908f-4f25bdd5583b{fill:#acdd58;}.b0e3e3b9-14e0-4e24-a3a5-67c5a89dedd2{fill:#8dc43d;}.b2e85e0d-9c54-44a7-9d7f-496821427293{fill:#ccff69;}.b3b879ba-5179-4044-8a52-5e90cf64d6b6{fill:gray;}</style></defs><polygon class="b616177a-18a2-4a5c-a736-3892e6002fbb" points="66.51 0 0.01 38.65 0 38.64 0 304.81 358.84 511.99 358.84 512 425.35 473.35 425.35 207.18 66.51 0"/><polygon class="a081c5c6-43f9-4608-bba8-a3e9684b57e7" points="358.84 245.82 358.84 511.99 0 304.81 358.84 511.99 0 304.81 0 38.64 358.84 245.82"/><polygon class="ac3f078f-c1ed-4e98-bbe0-99d528618d04" points="0 38.65 66.51 0 425.35 207.18 358.84 245.83 0 38.65"/><polygon class="b616177a-18a2-4a5c-a736-3892e6002fbb" points="358.84 245.83 425.35 207.18 425.35 473.35 358.84 512 358.84 245.83"/><path class="baf9a332-668c-40ba-908f-4f25bdd5583b" d="M154.45,295.88c.08-29.16-16.91-63.59-40.17-84.58L125.11,205c6.53-3.8,10.58-11.87,10.61-23.34.07-23.1-16.17-51.23-36.27-62.83-10.11-5.84-19.28-6.38-25.9-2.54L33.38,139.65l.07,0C26.88,143.39,22.8,151.48,22.77,163c0,14.87,6.68,31.82,16.83,45.1l-20,11.61.26-.15c-10.1,5.72-16.37,18.07-16.42,35.69l-.11,38.14,110.82,64h0L154.34,334Z"/><path class="b0e3e3b9-14e0-4e24-a3a5-67c5a89dedd2" d="M19.62,219.7l40.17-23.34c8-4.66,18.47-5.09,30.17-.6L49.79,219.1C38.09,214.62,27.63,215.05,19.62,219.7Z"/><path class="b0e3e3b9-14e0-4e24-a3a5-67c5a89dedd2" d="M108.48,206.45,68.31,229.79c26.18,20.19,46.06,57.9,46,89.44l-.11,38.13L154.34,334l.11-38.14C154.54,264.34,134.66,226.64,108.48,206.45Z"/><path class="b2e85e0d-9c54-44a7-9d7f-496821427293" d="M99.45,118.84c-10.11-5.84-19.28-6.38-25.9-2.53L33.38,139.65c6.62-3.85,15.79-3.3,25.9,2.53,20.1,11.61,36.34,39.74,36.27,62.83,0,11.47-4.08,19.55-10.61,23.34L125.11,205c6.53-3.8,10.58-11.87,10.61-23.34C135.79,158.57,119.55,130.45,99.45,118.84Z"/><path class="baf9a332-668c-40ba-908f-4f25bdd5583b" d="M59.28,142.18c20.1,11.61,36.34,39.74,36.27,62.83,0,19.42-11.62,29.09-27.24,24.79,26.18,20.18,46.06,57.89,46,89.43l-.1,38.13-110.83-64,.11-38.14C3.55,223.7,23.58,209,49.79,219.1c-15.6-13.72-27.08-36.69-27-56.11C22.84,139.89,39.18,130.58,59.28,142.18Z"/><polygon class="b3b879ba-5179-4044-8a52-5e90cf64d6b6" points="324.17 412.44 324.14 426.03 179.72 342.65 179.76 329.06 324.17 412.44"/><polygon class="b3b879ba-5179-4044-8a52-5e90cf64d6b6" points="324.27 377.49 324.23 391.08 179.82 307.7 179.86 294.11 324.27 377.49"/><polygon class="b3b879ba-5179-4044-8a52-5e90cf64d6b6" points="324.37 342.55 324.33 356.13 179.92 272.75 179.96 259.17 324.37 342.55"/><polygon class="b3b879ba-5179-4044-8a52-5e90cf64d6b6" points="324.47 307.6 324.43 321.19 180.02 237.81 180.06 224.22 324.47 307.6"/></svg>