<?xml version="1.0" encoding="utf-8"?>
<svg id="master-artboard" viewBox="0 0 1400 1400" version="1.1" xmlns="http://www.w3.org/2000/svg" x="0px" y="0px" width="1400px" height="1400px" enable-background="new 0 0 1400 1400">
<path d="M 0 0 H 1400 V 1400 H 0 V 0 Z" fill-rule="evenodd" clip-rule="evenodd" fill="#D9635A" style="fill: rgb(247, 108, 108); fill-opacity: 0;"/>
<g>
	<path fill-rule="evenodd" clip-rule="evenodd" fill="#D34044" d="M1268.9,747.1l-22,12.7l-3.8,2.2v0l-40.6,23.4l0,0L1268.9,747.1z&#10;&#9;&#9; M1243,776.7l-27.8,16.1h0L1243,776.7L1243,776.7z M1268.9,761.7v-14.7L688.7,409.9l-341,196.9l0,0l-13.8,8l0,0l-41,23.7v15.5&#10;&#9;&#9;l21.4,12.4V703L293,715.3l-0.1,0v0.1v15.4l580.2,337v-15.2l0,15.2l383-221.7v0v0.1l12.8-7.4v-0.1V824v-0.1V761.7z" style="fill: rgb(198, 86, 86);"/>
	<path d="M 1270.300048828125 803.2999877929688 L 690.0999755859375 466.20001220703125 L 294.29998779296875 694.7000122070312 L 874.5 1031.800048828125 Z" fill-rule="evenodd" clip-rule="evenodd" fill="#AA322F"/>
	<path d="M 1244.4000244140625 741.2999877929688 L 1257.5 733.7999877929688 L 1257.5 810.5999755859375 L 1244.4000244140625 803.9000244140625 Z" fill-rule="evenodd" clip-rule="evenodd" fill="#862B28"/>
	<path d="M 1270.300048828125 726.4000244140625 L 690.0999755859375 389.20001220703125 L 294.29998779296875 617.7000122070312 L 874.5 954.9000244140625 Z" fill-rule="evenodd" clip-rule="evenodd" fill="#AA322F"/>
	<path d="M 1270.300048828125 726.4000244140625 L 874.5 954.9000244140625 L 874.5 970.2000122070312 L 1270.300048828125 741 Z" fill-rule="evenodd" clip-rule="evenodd" fill="#6B221F"/>
	<path d="M 874.5 970.2000122070312 L 294.29998779296875 633.2000122070312 L 294.29998779296875 617.7000122070312 L 874.5 954.9000244140625 L 874.5 954.9000244140625 Z" fill-rule="evenodd" clip-rule="evenodd" fill="#862B28"/>
	<path d="M 1270.300048828125 803.2000122070312 L 874.5 1031.699951171875 L 874.5 1047 L 1270.300048828125 817.9000244140625 Z" fill-rule="evenodd" clip-rule="evenodd" fill="#6B221F"/>
	<path d="M 874.5 1047 L 294.29998779296875 710.0999755859375 L 294.29998779296875 694.5999755859375 L 874.5 1031.699951171875 L 874.5 1031.699951171875 Z" fill-rule="evenodd" clip-rule="evenodd" fill="#862B28"/>
	<path d="M 1270.300048828125 726.4000244140625 L 1257.5 733.7999877929688 L 1257.5 825.2999877929688 L 1270.300048828125 818 Z" fill-rule="evenodd" clip-rule="evenodd" fill="#6B221F"/>
	<path d="M 1244.4000244140625 756 L 874.5 970.2000122070312 L 874.5 1017.5999755859375 L 1244.4000244140625 803.9000244140625 Z" fill-rule="evenodd" clip-rule="evenodd" fill="#D4CACB"/>
	<path d="M 315.70001220703125 645.5999755859375 L 874.7999877929688 970.2000122070312 L 874.7999877929688 1017.5999755859375 L 315.70001220703125 693.5 Z" fill-rule="evenodd" clip-rule="evenodd" fill="#CBC1C1"/>
	<path d="M 915.4000244140625 931.2000122070312 L 915.4000244140625 946.5 L 929.2000122070312 938.5 L 929.2000122070312 923.2000122070312 Z" fill-rule="evenodd" clip-rule="evenodd" fill="#DDC933"/>
	<path d="M 335.20001220703125 594.0999755859375 L 915.4000244140625 931.2000122070312 L 929.2000122070312 923.2000122070312 L 349.1000061035156 586.0999755859375 Z" fill-rule="evenodd" clip-rule="evenodd" fill="#FAEF5E"/>
	<path d="M 1144.4000244140625 712.5999755859375 L 676 440.3999938964844 L 356.5 624.9000244140625 L 824.9000244140625 897.0999755859375 Z" fill-rule="evenodd" clip-rule="evenodd" fill="#3B8298"/>
	<path d="M 1123.5999755859375 662.5999755859375 L 1134.0999755859375 656.5 L 1134.0999755859375 718.5 L 1123.5999755859375 713.0999755859375 Z" fill-rule="evenodd" clip-rule="evenodd" fill="#70BED4"/>
	<path d="M 1144.4000244140625 650.5 L 676 378.29998779296875 L 356.5 562.7999877929688 L 824.9000244140625 835 Z" fill-rule="evenodd" clip-rule="evenodd" fill="#3B8298"/>
	<path d="M 1144.4000244140625 650.5 L 824.9000244140625 835 L 824.9000244140625 847.2999877929688 L 1144.4000244140625 662.2999877929688 Z" fill-rule="evenodd" clip-rule="evenodd" fill="#274D65"/>
	<path d="M 824.9000244140625 847.2999877929688 L 356.5 575.2999877929688 L 356.5 562.7999877929688 L 824.9000244140625 835 L 824.9000244140625 835 Z" fill-rule="evenodd" clip-rule="evenodd" fill="#70BED4"/>
	<path d="M 1144.4000244140625 712.5999755859375 L 824.9000244140625 897.0999755859375 L 824.9000244140625 909.4000244140625 L 1144.4000244140625 724.4000244140625 Z" fill-rule="evenodd" clip-rule="evenodd" fill="#274D65"/>
	<path d="M 824.9000244140625 909.4000244140625 L 356.5 637.2999877929688 L 356.5 624.7999877929688 L 824.9000244140625 897.0999755859375 L 824.9000244140625 897 Z" fill-rule="evenodd" clip-rule="evenodd" fill="#70BED4"/>
	<path d="M 1144.4000244140625 650.5 L 1134.0999755859375 656.5 L 1134.0999755859375 730.4000244140625 L 1144.4000244140625 724.5 Z" fill-rule="evenodd" clip-rule="evenodd" fill="#274D65"/>
	<path d="M 1123.5999755859375 674.4000244140625 L 824.9000244140625 847.2999877929688 L 824.9000244140625 885.5999755859375 L 1123.5999755859375 713.0999755859375 Z" fill-rule="evenodd" clip-rule="evenodd" fill="#D4CACB"/>
	<path d="M 373.70001220703125 585.2999877929688 L 825.2000122070312 847.2999877929688 L 825.2000122070312 885.5999755859375 L 373.70001220703125 623.9000244140625 Z" fill-rule="evenodd" clip-rule="evenodd" fill="#CBC1C1"/>
	<path d="M 442.8999938964844 634.7999877929688 L 874.2000122070312 384.20001220703125 L 1168.4000244140625 554.0999755859375 L 737.0999755859375 804.7000122070312 Z" fill-rule="evenodd" clip-rule="evenodd" fill="#58341D"/>
	<path d="M 462.20001220703125 588.7000122070312 L 452.3999938964844 583.0999755859375 L 452.3999938964844 640.2000122070312 L 462.20001220703125 635.2000122070312 Z" fill-rule="evenodd" clip-rule="evenodd" fill="#351F11"/>
	<path d="M 442.8999938964844 577.5999755859375 L 874.2000122070312 327 L 1168.4000244140625 496.79998779296875 L 737.0999755859375 747.5 Z" fill-rule="evenodd" clip-rule="evenodd" fill="#58341D"/>
	<path d="M 442.8999938964844 577.5999755859375 L 737.0999755859375 747.5 L 737.0999755859375 758.7999877929688 L 442.8999938964844 588.5 Z" fill-rule="evenodd" clip-rule="evenodd" fill="#442714"/>
	<path d="M 737.0999755859375 758.7999877929688 L 1168.4000244140625 508.29998779296875 L 1168.4000244140625 496.79998779296875 L 737.0999755859375 747.5 L 737.0999755859375 747.4000244140625 Z" fill-rule="evenodd" clip-rule="evenodd" fill="#351F11"/>
	<path d="M 442.8999938964844 634.7000122070312 L 737.0999755859375 804.5999755859375 L 737.0999755859375 816 L 442.8999938964844 645.5999755859375 Z" fill-rule="evenodd" clip-rule="evenodd" fill="#442714"/>
	<path d="M 737.0999755859375 816 L 1168.4000244140625 565.5 L 1168.4000244140625 554 L 737.0999755859375 804.5999755859375 L 737.0999755859375 804.5999755859375 Z" fill-rule="evenodd" clip-rule="evenodd" fill="#351F11"/>
	<path d="M 442.8999938964844 577.5999755859375 L 452.3999938964844 583.0999755859375 L 452.3999938964844 651.0999755859375 L 442.8999938964844 645.7000122070312 Z" fill-rule="evenodd" clip-rule="evenodd" fill="#442714"/>
	<path d="M 462.20001220703125 599.5999755859375 L 737.0999755859375 758.7999877929688 L 737.0999755859375 794.0999755859375 L 462.20001220703125 635.2000122070312 Z" fill-rule="evenodd" clip-rule="evenodd" fill="#D4CACB"/>
	<path d="M 1152.5 517.5999755859375 L 736.7999877929688 758.7999877929688 L 736.7999877929688 794.0999755859375 L 1152.5 553.2000122070312 Z" fill-rule="evenodd" clip-rule="evenodd" fill="#CBC1C1"/>
	<path d="M 635.7999877929688 660.5999755859375 L 635.7999877929688 650.9000244140625 L 648.5 643.5999755859375 L 659 647.0999755859375 Z" fill-rule="evenodd" clip-rule="evenodd" fill="#B42934"/>
	<path fill-rule="evenodd" clip-rule="evenodd" fill="#B56231" d="M598.4,620l0,9.5L365.7,495.1l-0.2-0.1l-0.2-0.1l-0.2-0.1&#10;&#9;&#9;l-0.2-0.1l-0.2-0.1l-0.2-0.1l-0.2-0.1l-0.2-0.1l-0.2-0.1L364,494l-0.2-0.1l-0.1-0.1l-0.1-0.1l-0.1-0.1l-0.1-0.1l-0.1-0.1l-0.1-0.1&#10;&#9;&#9;l-0.1-0.1h0l-0.1-0.1l-0.1-0.1l-0.1-0.1h0l-0.1-0.1l-0.1-0.1l-0.1-0.1l-0.1-0.1l-0.1-0.1l-0.1-0.1h0l-0.1-0.1h0l-0.1-0.1h0&#10;&#9;&#9;l-0.1-0.1h0l-0.1-0.1h0l-0.1-0.1l-0.1-0.1l-0.1-0.1h0l-0.1-0.1l-0.1-0.1h0l-0.1-0.1l-0.1-0.1h0l-0.1-0.1h0l-0.1-0.1h0l-0.1-0.1h0&#10;&#9;&#9;l-0.1-0.1h0l-0.1-0.1h0c-0.1-0.1-0.1-0.3-0.2-0.4h0l0-0.1h0c-0.3-0.8-0.4-1.5-0.4-2.3l0-9.5c0,2.9,1.9,5.9,5.8,8.1L598.4,620z"/>
	<path d="M 931.7999877929688 426.20001220703125 L 931.7999877929688 435.70001220703125 L 598.4000244140625 629.5 L 598.4000244140625 620 Z" fill-rule="evenodd" clip-rule="evenodd" fill="#B56231"/>
	<path fill-rule="evenodd" clip-rule="evenodd" fill="#D7712B" d="M931.8,426.2L598.4,620L365.7,485.6c-7.7-4.4-7.7-11.6-0.1-16&#10;&#9;&#9;l305.8-177.7c7.6-4.4,20-4.4,27.7,0L931.8,426.2z"/>
	<path d="M 969.2000122070312 447.79998779296875 L 969.2000122070312 457.29998779296875 L 635.7999877929688 651.0999755859375 L 635.7999877929688 641.5999755859375 Z" fill-rule="evenodd" clip-rule="evenodd" fill="#BC6F41"/>
	<path d="M 635.7999877929688 651.0999755859375 L 635.7999877929688 660.5999755859375 L 598.4000244140625 639 L 598.4000244140625 629.5 Z" fill-rule="evenodd" clip-rule="evenodd" fill="#B56231"/>
	<path d="M 969.2000122070312 457.5 L 635.7999877929688 651.2999877929688 L 598.4000244140625 629.5 L 931.7999877929688 435.8999938964844 Z" fill-rule="evenodd" clip-rule="evenodd" fill="#D7712B"/>
	<path fill-rule="evenodd" clip-rule="evenodd" fill="#B56231" d="M1207.6,599.9L1207.6,599.9 M1207.6,599.8l0-9.4 M1202,607.7&#10;&#9;&#9;L1202,607.7L896.1,785.4l-0.3,0.2l-0.1,0l0,0l-0.1,0l-0.2,0.1l-0.1,0l0,0l0,0l-0.3,0.2l0,0l0,0l-0.3,0.2l0,0l-0.4,0.2l0,0l-0.4,0.2&#10;&#9;&#9;l0,0l0,0l-0.1,0l-0.1,0l-0.3,0.1l0,0l-0.3,0.1l-0.1,0l0,0l-0.1,0l-0.3,0.1l0,0l0,0l-0.4,0.1l0,0l-0.3,0.1l-0.1,0v0h0l0,0l0,0&#10;&#9;&#9;l-0.3,0.1l-0.1,0l0,0l-0.1,0l-0.1,0l-0.2,0.1l-0.1,0l0,0l0,0l0,0l-0.3,0.1l-0.1,0h0c-0.3,0.1-0.6,0.2-0.9,0.2l0,0&#10;&#9;&#9;c-0.5,0.1-1,0.2-1.5,0.3v0c-0.8,0.1-1.7,0.3-2.5,0.3c-0.7,0.1-1.4,0.1-2.2,0.1c-0.7,0-1.3,0-2,0h0l-0.1,0l0,0&#10;&#9;&#9;c-0.6,0-1.2-0.1-1.8-0.1c-0.6-0.1-1.3-0.1-1.9-0.2h0c-0.7-0.1-1.3-0.2-1.9-0.3c-0.7-0.1-1.3-0.3-2-0.5l0,0l0,0h0v0l0,0l0,0l0,0l0,0&#10;&#9;&#9;l0,0l-0.3-0.1l0,0c-0.7-0.2-1.3-0.4-1.9-0.7v0c-1-0.4-2.2-1-2.8-1.3v0L635.8,651.3v-9.7l232.7,134.3c0.9,0.5,1.8,0.9,2.7,1.3l0,0&#10;&#9;&#9;l0,0l0,0l0,0l0.1,0v0c0.7,0.3,1.4,0.5,2.1,0.7l0,0l0,0l0,0l0,0l0,0l0,0l0,0c0.4,0.1,0.8,0.2,1.2,0.3l0,0l0.4,0.1l0,0l0,0l0.3,0.1&#10;&#9;&#9;l0.1,0l0,0l0,0c0.3,0.1,0.6,0.1,0.9,0.2l0,0l0.4,0.1h0l0,0l0,0l0,0l0,0l0,0l0,0l0,0l0.1,0l0,0l0,0l0,0l0,0l0,0l0.1,0l0,0l0,0l0,0&#10;&#9;&#9;l0,0l0,0l0,0l0.1,0l0,0l0.1,0l0,0l0,0l0,0l0,0l0,0l0,0l0,0c0.4,0.1,0.9,0.1,1.3,0.1c0.5,0,0.9,0.1,1.4,0.1h0l0.4,0l0,0l0,0h0l0,0&#10;&#9;&#9;l0,0l0,0l0,0l0,0l0,0l0,0l0,0l0,0l0,0l0,0l0,0l0,0h0l0,0h0l0,0h0l0,0h0l0.3,0h0h0h0h0h0h0l0.4,0l0,0l0,0l0.3,0l0,0l0,0l0,0h0l0,0&#10;&#9;&#9;l0,0l0,0l0,0l0,0l0,0l0,0l0,0l0,0l0,0l0,0l0,0l0,0l0.1,0l0,0l0,0l0,0l0,0l0,0l0,0l0,0l0,0l0,0l0,0l0,0l0,0l0,0l0,0l0,0l0,0l0,0l0,0&#10;&#9;&#9;l0,0l0,0l0,0l0,0l0,0l0,0l0,0l0,0l0,0l0,0l0,0l0,0l0.2,0l0,0l0.1,0l0,0l0,0l0,0l0.1,0l0,0l0.2,0l0,0l0,0l0,0l0,0l0,0l0,0l0,0l0,0&#10;&#9;&#9;l0,0l0,0l0,0l0,0l0,0l0,0l0,0l0,0l0.1,0l0,0l0,0l0,0l0,0l0,0l0,0l0,0l0,0l0,0l0,0l0,0l0,0l0,0l0,0l0,0l0.3,0l0,0l0.4-0.1l0,0l0,0&#10;&#9;&#9;l0,0l0,0l0,0l0,0l0.3,0l0,0l0,0l0,0l0.2,0c0.2,0,0.4-0.1,0.6-0.1l0,0l0,0l0.4-0.1l0.1,0l0,0l0.4-0.1l0,0l0,0l0,0l0.4-0.1l0,0l0,0&#10;&#9;&#9;l0.4-0.1l0,0l0.4-0.1l0,0l0.3-0.1l0.1,0l0,0l0.1,0l0.1,0l0.2-0.1l0.1,0l0.1,0l0,0l0,0l0.1,0l0,0l0.2-0.1l0.1,0l0,0l0,0&#10;&#9;&#9;c0.3-0.1,0.5-0.2,0.8-0.3l0,0c1.1-0.4,2.1-0.9,3.1-1.5l0,9.5l0-9.5L1202,598.2l0.2-0.1l0.1,0l0,0l0,0l0,0l0,0l0,0l0,0l0,0l0,0l0,0&#10;&#9;&#9;l0.1-0.1l0,0l0,0l0,0l0,0l0,0l0,0l0,0l0,0l0,0l0,0l0,0l0,0l0,0l0,0l0,0l0,0l0,0l0,0l0,0l0,0l0,0l0,0l0,0l0,0l0,0l0,0l0,0l0,0l0,0&#10;&#9;&#9;l0,0l0,0l0,0l0.1-0.1l0,0l0,0l0,0l0.1-0.1l0,0l0,0l0,0l0,0l0,0l0,0l0.1-0.1l0,0c0.2-0.1,0.3-0.3,0.4-0.4c0.3-0.3,0.5-0.5,0.8-0.8&#10;&#9;&#9;l0,0l0,0l0,0l0,0l0,0l0,0l0,0l0,0l0.1-0.1l0,0l0,0l0,0l0,0l0,0l0,0l0,0l0,0l0,0l0-0.1l0,0v0l0,0l0,0l0,0l0,0l0,0l0,0l0,0l0,0l0,0&#10;&#9;&#9;l0,0l0,0l0,0l0,0l0,0l0,0l0,0l0,0l0,0l0,0l0,0l0,0l0,0l0,0l0,0l0,0l0,0l0,0l0,0l0,0l0,0l0,0l0,0l0,0l0,0l0,0l0,0l0,0l0,0l0.1-0.1&#10;&#9;&#9;l0,0l0,0l0.1-0.2l0,0l0,0l0,0l0.1-0.2l0.1-0.1l0,0l0,0l0,0l0,0l0,0l0,0l0,0l0,0l0,0l0,0l0,0l0,0l0-0.1l0,0l0,0l0,0l0,0l0,0l0,0l0,0&#10;&#9;&#9;l0,0l0,0l0,0l0,0l0,0l0,0l0,0l0,0l0,0l0,0l0,0l0,0l0,0l0,0l0,0l0,0l0,0l0,0l0,0l0,0l0,0l0,0l0,0l0,0l0,0l0,0l0,0l0,0l0,0l0,0l0,0&#10;&#9;&#9;l0,0l0,0l0,0l0,0l0,0l0,0l0,0l0,0v0l0,0l0,0l0,0l0-0.1l0,0l0,0l0,0l0-0.1l0,0l0,0c0.1-0.2,0.1-0.4,0.2-0.7l0,0l0-0.1h0l0-0.1l0-0.1&#10;&#9;&#9;l0,0l0,0l0-0.1l0,0l0,0l0,0l0,0l0,0l0-0.2l0,0l0,0l0,0l0,0l0,0l0,0l0,0l0,0l0,0l0-0.2l0,0l0,0l0-0.2l0,0l0,0l0,0l0-0.1l0,0l0,9.5v0&#10;&#9;&#9;l0,0.1l0,0l0,0l0,0.2l0,0l0,0.1l0,0l0,0l0,0.1v0l0,0l0,0l0,0l0,0.1l0,0l0,0l0,0l0,0l0,0.1l0,0l0,0l0,0l0,0l0,0l0,0l0,0l0,0l0,0l0,0&#10;&#9;&#9;l0,0l0,0l0,0.1l0,0l0,0l0,0l0,0v0l0,0.1l0,0v0l0,0l0,0.2v0l0,0l0,0l0,0l0,0l0,0l0,0l0,0l0,0l0,0l0,0l0,0l-0.1,0.2l0,0l0,0l0,0.1&#10;&#9;&#9;l0,0l0,0v0l0,0l0,0l0,0l0,0l0,0l0,0l0,0l0,0l0,0l0,0l0,0l0,0l0,0l0,0l0,0l0,0l0,0l0,0l0,0l0,0l0,0l0,0l0,0l0,0l0,0l0,0l0,0l0,0l0,0&#10;&#9;&#9;l0,0l0,0l0,0l0,0l0,0l0,0l0,0l0,0l0,0l0,0l0,0l0,0l0,0l0,0l0,0l0,0l0,0l0,0l0,0l0,0l0,0l0,0l0,0l0,0l0,0l0,0l0,0l0,0l0,0l0,0l0,0&#10;&#9;&#9;l0,0l0,0l0,0l0,0l0,0l0,0l0,0l0,0l0,0l0,0l0,0l0,0l0,0l0,0l0,0l0,0l0,0l0,0l0,0l0,0l0,0l0,0l0,0l0,0l0,0l0,0l0,0l0,0l0,0l0,0l0,0&#10;&#9;&#9;l0,0l0,0l0,0l0,0l0,0l0,0v0l0,0l0,0l0,0l0,0l0,0l0,0l0,0l0,0.1l0,0l0,0l0,0.1l0,0l0,0l0,0l0,0l0,0l0,0l-0.1,0.1l0,0l-0.1,0.1l0,0&#10;&#9;&#9;l0,0l0,0l0,0l0,0l0,0l0,0l0,0l0,0l0,0l0,0l0,0l0,0l0,0l0,0l0,0l0,0l0,0l0,0l0,0l0,0l0,0l0,0l0,0l0,0l0,0l0,0l0,0l0,0l0,0l0,0l0,0&#10;&#9;&#9;l0,0l0,0l0,0l0-9.5l0,9.5l-0.2,0.2l0,0l0,0l0,0l0,0l0,0l0,0l0,0l0,0l0,0l0,0l0,0l0,0l0,0l0,0l0,0l0,0l0,0l0,0l0,0l0,0l0,0l0,0l0,0&#10;&#9;&#9;l0,0l0,0l0,0l0,0l0,0l0,0l0,0l0,0l0,0l0,0l0,0l0,0l0,0l0,0l0,0l0,0l0,0l0,0l0,0l0,0l0,0l0,0l0,0l0,0l0,0l0,0l0,0l0,0l0,0l0,0l0,0&#10;&#9;&#9;l0,0l0,0l0,0l0,0l-0.1,0.1v0l0,0l0,0l0,0l0,0l0,0l0,0l0,0l0,0l0,0l0,0l0,0l0,0l0,0l0,0l0,0l-0.1,0.1l0,0l0,0l0,0l0,0l0,0l0,0l0,0&#10;&#9;&#9;c-0.5,0.4-1.2,0.9-1.8,1.3v0L1202,607.7z"/>
	<path fill-rule="evenodd" clip-rule="evenodd" fill="#D7712B" d="M1201.9,582.2c7.7,4.4,7.7,11.6,0.1,16L896.2,775.9&#10;&#9;&#9;c-7.6,4.4-20,4.4-27.7,0L635.8,641.6l333.4-193.8L1201.9,582.2z"/>
	<path d="M 935.7000122070312 410.20001220703125 L 935.5999755859375 439 L 616.0999755859375 624.7000122070312 L 616.0999755859375 595.9000244140625 Z" fill-rule="evenodd" clip-rule="evenodd" fill="#B5C3A2"/>
	<path fill-rule="evenodd" clip-rule="evenodd" fill="#FFF6F0" d="M845.9,335.8c37.1,21.4,67.6,46.6,89.8,74.4L616.1,595.9&#10;&#9;&#9;c-22.2-27.8-52.6-53-89.8-74.4c-21.3-12.3-44.7-23.3-70.1-33l-76.4-29l319.6-185.7l76.4,29C801.2,312.4,824.6,323.5,845.9,335.8"/>
	<path fill-rule="evenodd" clip-rule="evenodd" fill="#D4CACB" d="M456.2,517.3l-76.4-29l0.1-28.8l76.4,29l0.1,0l0.1,0l0.1,0l0.1,0&#10;&#9;&#9;l0.1,0l0.1,0l0.1,0l0.1,0l0.1,0l0.1,0l0.1,0l0.1,0l0,0l0,0l0.1,0l0.1,0l0.1,0l0.1,0l0.1,0l0.1,0l0.1,0l0.3,0.1l0.1,0l0.1,0l0,0&#10;&#9;&#9;l0.1,0l0.2,0.1l0.1,0l0.4,0.1l0.1,0l0.1,0l0.1,0l0.1,0l0.1,0l0,0l0.1,0l0.1,0l0.1,0l0.1,0l0.1,0l0.1,0l0.1,0l0.1,0l0.1,0l0.1,0&#10;&#9;&#9;l0.1,0l0.1,0l0,0l0.1,0l0.1,0l0.1,0l0.1,0l0.1,0l0.1,0l0.1,0l0.1,0l0.1,0l0.1,0l0.1,0l0.1,0l0.1,0l0,0l0.1,0l1,0.4l0,0l1.1,0.5&#10;&#9;&#9;l1,0.4l0.1,0.1l0.9,0.4l0.2,0.1l0.8,0.3l0.3,0.1l0.7,0.3l0.4,0.2l0.6,0.3l0.5,0.2l0.5,0.2l0.6,0.3c1.2,0.5,2.3,1,3.4,1.4l0.2,0.1&#10;&#9;&#9;l1,0.4l0.1,0l1,0.4l0,0l1,0.4l0.1,0l0.9,0.4l0.2,0.1l0.9,0.4l0.3,0.1l0.1,0l1.1,0.5l0.7,0.3l0.5,0.2l1.1,0.5l0.5,0.2l0.6,0.3l0,0&#10;&#9;&#9;l1.1,0.5l0.3,0.1l0.8,0.4l0.2,0.1l0.9,0.4c0.7,0.3,1.4,0.7,2.2,1l0.1,0l2.2,1l0.8,0.4l0.3,0.1l0.7,0.3l0.4,0.2l2.1,1l0.2,0.1l2.1,1&#10;&#9;&#9;l0,0l0.3,0.1l0.8,0.4l0.2,0.1l0.9,0.4l1.1,0.5l0,0l1.1,0.5l0.9,0.4l0.2,0.1l0.8,0.4l0.3,0.1l0.7,0.4l0.3,0.2c1,0.5,2.1,1.1,3.1,1.6&#10;&#9;&#9;l0,0l0.4,0.2l0.7,0.4l0.3,0.2l0.8,0.4l0.2,0.1l0.8,0.4l1,0.6l0,0l1,0.5l0,0l0.9,0.5l0.1,0.1l0.8,0.4l0.2,0.1l0.7,0.4l0.3,0.2&#10;&#9;&#9;l0.7,0.4l0.4,0.2l0.6,0.3l0.4,0.2l0.1,0c1,0.5,1.9,1.1,2.9,1.6l0.1,0l0.2,0.1l0.8,0.4l0.2,0.1l0.8,0.5l0.1,0l0.9,0.5&#10;&#9;&#9;c37.1,21.4,67.6,46.6,89.8,74.4l-0.1,28.8c-22.2-27.8-52.6-53-89.8-74.4l-0.9-0.5l-0.1,0l-0.8-0.5l-0.2-0.1l-0.8-0.4l-0.2-0.1&#10;&#9;&#9;l-0.7-0.4l-0.3-0.2l-0.6-0.3l-0.4-0.2l-0.5-0.3l-0.5-0.3l-0.4-0.2l-0.6-0.3l-0.4-0.2l-0.7-0.4l-0.3-0.2l-0.7-0.4l-1-0.5l0,0&#10;&#9;&#9;l-0.1-0.1l-0.9-0.5l-1-0.5l0,0l-1-0.6l-0.8-0.4l-0.2-0.1c-1.4-0.7-2.8-1.5-4.2-2.2l-0.4-0.2l-0.6-0.3c-0.7-0.4-1.4-0.7-2.1-1.1&#10;&#9;&#9;l-0.2-0.1l-0.9-0.4l-0.1,0l-1-0.5l0,0c-5.7-2.8-11.5-5.6-17.5-8.3l0,0c-1.5-0.7-2.9-1.3-4.4-2l-0.1,0l-0.3-0.1l-0.9-0.4l-0.2-0.1&#10;&#9;&#9;l-0.9-0.4l-1.1-0.5l0,0l-1.1-0.5l-1-0.4l-0.2-0.1c-1.1-0.5-2.3-1-3.4-1.4l-0.6-0.3l-0.5-0.2l-0.5-0.2l-0.6-0.3l-2.2-0.9l-0.1,0&#10;&#9;&#9;l-0.2-0.1l-0.9-0.4l-0.1-0.1l-1-0.4l-1.1-0.5l0,0l-1-0.4l-0.1,0l0,0l-0.1,0l-0.1,0l-0.1,0c-1.1-0.4-2.3-0.9-3.4-1.3l-0.1,0L458,518&#10;&#9;&#9;l-0.1,0l-0.1,0l-0.1,0l-0.1,0l-0.1,0l-0.1,0l0,0l0,0l-0.1,0l-0.1,0l-0.1,0l-0.1,0l-0.1,0l-0.1,0l-0.1,0l-0.1,0l-0.1,0l-0.1,0&#10;&#9;&#9;L456.2,517.3L456.2,517.3L456.2,517.3z"/>
	<path d="M 909.7000122070312 677.0999755859375 L 909.5999755859375 705.9000244140625 L 875.5 676 L 875.5 647.2000122070312 Z" fill-rule="evenodd" clip-rule="evenodd" fill="#889480"/>
	<path d="M 909.7000122070312 677.0999755859375 L 909.5999755859375 705.9000244140625 L 906.5 707.0999755859375 L 906.5999755859375 678.2999877929688 Z" fill-rule="evenodd" clip-rule="evenodd" fill="#6D7173"/>
	<path d="M 906.5999755859375 678.2999877929688 L 906.5 707.0999755859375 L 872.4000244140625 677.0999755859375 L 872.4000244140625 648.4000244140625 Z" fill-rule="evenodd" clip-rule="evenodd" fill="#6D7173"/>
	<path fill-rule="evenodd" clip-rule="evenodd" fill="#FFF6F0" d="M1121.7,502.5l50.4,44.2L852.5,732.4l-50.4-44.2&#10;&#9;&#9;c-16.7-14.7-35.9-28.2-57.1-40.5c-37.1-21.4-80.7-39-128.8-51.8l319.6-185.7c48.1,12.7,91.7,30.3,128.8,51.8&#10;&#9;&#9;C1085.8,474.3,1105,487.8,1121.7,502.5"/>
	<path d="M 1172 546.5999755859375 L 1171.9000244140625 575.4000244140625 L 852.4000244140625 761.0999755859375 L 852.5 732.4000244140625 Z" fill-rule="evenodd" clip-rule="evenodd" fill="#CBC1C1"/>
	<path fill-rule="evenodd" clip-rule="evenodd" fill="#D4CACB" d="M767,690.2c-0.6-0.4-1.2-0.8-1.9-1.2 M852.5,732.4l-0.1,28.8&#10;&#9;&#9;L802,716.9l-0.8-0.7l-0.8-0.7l-0.8-0.7l-0.8-0.7l-0.8-0.7l-0.8-0.7l-0.8-0.7l-0.8-0.7l-0.8-0.7l-0.8-0.7l-0.8-0.7l-0.8-0.7&#10;&#9;&#9;l-0.8-0.7l-0.8-0.7l-0.8-0.7l-0.8-0.7l-0.8-0.7l-0.8-0.7l-0.8-0.7v0l-0.9-0.7l-0.9-0.7l-0.9-0.7l-0.9-0.6l-0.9-0.6l-0.9-0.6&#10;&#9;&#9;l-0.9-0.6l-0.9-0.6l-0.9-0.6l-0.9-0.6v0l-0.9-0.6l-0.9-0.6v0l-0.9-0.6v0l-0.9-0.6l-0.9-0.6l-0.9-0.6v0l-0.9-0.6v0l-0.9-0.6v0&#10;&#9;&#9;l-0.9-0.6v0l-0.9-0.6v0l-0.9-0.6v0l-0.9-0.6v0c-0.6-0.4-1.2-0.8-1.9-1.2v0c-0.9-0.6-1.9-1.2-2.8-1.8v0l-0.9-0.6v0&#10;&#9;&#9;c-5.3-3.4-10.8-6.8-16.5-10.1c-4.9-2.8-9.9-5.6-15-8.3l-0.2-0.1c-1.6-0.8-3.1-1.6-4.7-2.5l-1-0.5l-0.1,0l-0.9-0.5l-1-0.5l-1-0.5&#10;&#9;&#9;l-1-0.5l-0.8-0.4l-0.2-0.1l-1-0.5l-0.4-0.2l-0.3-0.1l-1.4-0.7l-0.2-0.1l-0.3-0.1l-1.3-0.6l-0.9-0.4l-0.4-0.2l-1-0.5l0,0l-0.1-0.1&#10;&#9;&#9;l-1.7-0.8l-0.1-0.1l-0.1,0l-1.5-0.7l-0.7-0.3l-1.2-0.6l-0.3-0.1l-0.3-0.1l-1-0.5l-0.6-0.3l-0.4-0.2l-1-0.5l-0.2-0.1l-0.6-0.3&#10;&#9;&#9;l-1.6-0.7l-0.1,0l-1.6-0.7l-0.3-0.1l-0.1-0.1l-1.7-0.7l-0.2-0.1l0,0l-1.9-0.8l0,0l-1.6-0.7l-0.4-0.2l-0.1,0l-0.3-0.1&#10;&#9;&#9;c-1.6-0.7-3.3-1.4-4.9-2l-0.6-0.3l-0.1-0.1l-1.3-0.5l-0.5-0.2l-0.5-0.2l-1.1-0.4l-0.4-0.2l-0.2-0.1l-1.6-0.6l-0.3-0.1l-0.5-0.2&#10;&#9;&#9;l-0.8-0.3l-0.3-0.1l-0.5-0.2l-0.8-0.3c-1.1-0.4-2.1-0.8-3.2-1.2l0,0c-1.3-0.5-2.7-1-4.1-1.5l-0.1,0l-0.7-0.3l-0.8-0.3l-0.5-0.2&#10;&#9;&#9;l-0.3-0.1c-1.3-0.5-2.6-0.9-3.9-1.4l0,0l-0.2-0.1c-4.8-1.7-9.7-3.4-14.6-5l0,0c-2.1-0.7-4.2-1.4-6.3-2l-0.1,0&#10;&#9;&#9;c-5.1-1.6-10.2-3.1-15.4-4.6c-2.2-0.6-4.4-1.2-6.6-1.8l-0.1,0l-2-0.6l-0.2,0l0,0l-0.1,0l-0.2,0l-1.6-0.4l-0.2,0l-0.2,0l0.1-28.8&#10;&#9;&#9;l0.2,0l0.2,0l1.4,0.4l0.2,0l0.2,0l0.1,0l0,0l0.2,0l1.8,0.5l0.2,0l0.1,0l0.1,0l0.2,0l0.2,0l0.2,0l0.2,0l0.3,0.1l0.2,0l0.2,0l0.2,0&#10;&#9;&#9;l0.2,0l0.2,0l0.2,0l0.1,0l0.1,0l0.2,0l0.2,0l0.3,0.1l0.2,0l0.3,0.1l0.2,0l0.2,0l0.2,0l0.2,0l0.7,0.2l0.2,0l0.2,0l0.2,0l0.2,0l0.2,0&#10;&#9;&#9;l0.2,0l0.7,0.2l0.9,0.2l0.9,0.3l0.9,0.3l0.9,0.3l0.2,0l1.6,0.5l0.9,0.3c1.2,0.3,2.3,0.7,3.5,1l0.9,0.3l1.7,0.5l0,0l0.9,0.3l0.9,0.3&#10;&#9;&#9;l0.9,0.3l0.1,0l1.6,0.5l0.1,0l0.9,0.3l0.9,0.3l0.8,0.3l1.7,0.5l0.8,0.3l0.8,0.3l0.8,0.3l0.1,0l1.6,0.5l0,0l0.8,0.3l0,0l0.8,0.3&#10;&#9;&#9;l0.8,0.3l0.8,0.3l0.1,0l0.8,0.3l0.8,0.3l0.8,0.3l0.8,0.3l0.8,0.3l0.8,0.3l0.8,0.3l0,0l0.8,0.3l0.8,0.3l0.8,0.3l0.8,0.3l0.8,0.3&#10;&#9;&#9;l0.7,0.2l0.2,0.1l0.8,0.3l0.8,0.3l0.8,0.3l0.8,0.3l0.7,0.3l0.1,0l0.2,0.1l1.6,0.6l0.7,0.2l0.1,0l0.8,0.3l0.3,0.1l1,0.4l0.3,0.1&#10;&#9;&#9;l0.8,0.3l0.4,0.2l0.4,0.1l1.6,0.6l0.1,0l0.1,0l1.5,0.6l0.5,0.2l0.3,0.1l1.4,0.5l0.9,0.4l1.4,0.5l0.2,0.1l1.5,0.6l0.4,0.2l0.2,0.1&#10;&#9;&#9;l1.5,0.6l0.3,0.1l0.3,0.1l1.5,0.6l0.2,0.1l0.1,0.1l1.3,0.5l1.1,0.4l1.2,0.5l0.3,0.1l0,0l1,0.4l0.3,0.1l1.1,0.5l1.3,0.6l0.1,0.1&#10;&#9;&#9;l0.3,0.1l1,0.5l0.2,0.1l0.9,0.4l1.5,0.6l0.2,0.1l1.8,0.8l0.1,0.1l1.6,0.7l0.7,0.3l0.3,0.1l1,0.5l0.2,0.1l0.2,0.1l1.2,0.6l0.9,0.4&#10;&#9;&#9;l1.2,0.6l0.3,0.1l0,0l0.3,0.1l1.4,0.7l0.2,0.1l0.1,0.1l1.7,0.8l0,0l0.2,0.1l1.4,0.7l0.2,0.1l0.4,0.2l1.3,0.7l0.2,0.1l0.5,0.2&#10;&#9;&#9;l1.3,0.7l0.2,0.1l1.7,0.9l0,0l1.6,0.8l0.2,0.1l0.2,0.1l1.5,0.8l0.1,0l0.1,0.1l1.7,0.9l0,0l1.8,0.9l0.1,0.1l1.5,0.8l0.2,0.1l0.2,0.1&#10;&#9;&#9;l0,0l1.4,0.7l0.2,0.1c1.1,0.6,2.3,1.2,3.4,1.9l0.1,0.1l1.4,0.8l0.3,0.2l0.1,0l1.5,0.8l0.2,0.1l0,0l1.6,0.9l0.1,0.1l0.2,0.1l1.5,0.9&#10;&#9;&#9;l1,0.6l1,0.6l1,0.6l1,0.6l1,0.6l1,0.6l1,0.6l1,0.6l1,0.6l1,0.6l1,0.6l1,0.6l1,0.6l1,0.6l1,0.6l0.9,0.6l0.9,0.6l0.9,0.6l0.9,0.6&#10;&#9;&#9;l0.9,0.6l0.9,0.6l0.9,0.6l0.9,0.6l0.9,0.6l0.9,0.6l0.9,0.6l0.9,0.6l0.9,0.6l0.9,0.6v0l0.9,0.6l0.9,0.6l0.9,0.6v0l0.9,0.6l0.9,0.6v0&#10;&#9;&#9;l0.9,0.6v0l0.9,0.6l0.9,0.6v0l0.9,0.6l0.9,0.6v0l0.9,0.6v0l0.9,0.6v0l0.9,0.6v0l0.9,0.7v0l0.9,0.7v0l0.9,0.7v0l0.8,0.7v0&#10;&#9;&#9;c0.6,0.4,1.1,0.9,1.7,1.3v0l0.8,0.7v0l0.8,0.7v0l0.8,0.7v0l0.8,0.7v0c3.3,2.7,6.5,5.4,9.7,8.1L852.5,732.4z"/>
	<path d="M 479 516.9000244140625 L 502 530.0999755859375 L 502 587.5999755859375 L 479 574.4000244140625 Z" fill-rule="evenodd" clip-rule="evenodd" fill="#DDC933"/>
	<path d="M 486.3999938964844 512.7000122070312 L 509.29998779296875 525.9000244140625 L 502 530.0999755859375 L 479 516.9000244140625 Z" fill-rule="evenodd" clip-rule="evenodd" fill="#FEF042"/>
	<path d="M 502 587.5999755859375 L 474.1000061035156 606.5999755859375 L 469.5 593.7999877929688 L 449.1000061035156 591.7000122070312 L 479 574.4000244140625 Z" fill-rule="evenodd" clip-rule="evenodd" fill="#FAEF5E"/>
	<path fill-rule="evenodd" clip-rule="evenodd" fill="#CBC1C1" d="M957.7,501.5V522c0,37.2-23.9,63.2-58,78.5&#10;&#9;&#9;c-0.3,0.1-0.6,0.3-0.9,0.4c-1.4,0.6-2.9,1.2-4.4,1.8c-0.6,0.2-1.2,0.5-1.8,0.7c-1.2,0.5-2.4,0.9-3.7,1.4c-0.7,0.3-1.5,0.5-2.3,0.8&#10;&#9;&#9;c-1.1,0.4-2.2,0.8-3.4,1.1c-1,0.3-2,0.6-3,0.9c-1,0.3-2,0.6-3,0.9c-1.1,0.3-2.1,0.6-3.2,0.9c-0.9,0.2-1.9,0.5-2.8,0.7&#10;&#9;&#9;c-1.2,0.3-2.5,0.6-3.7,0.9c-0.8,0.2-1.6,0.4-2.4,0.5c-1.4,0.3-2.7,0.6-4.1,0.9c-0.7,0.1-1.4,0.3-2.1,0.4c-1.5,0.3-3,0.6-4.5,0.8&#10;&#9;&#9;c-0.6,0.1-1.3,0.2-1.9,0.3c-1.5,0.2-3.1,0.5-4.6,0.7c-0.6,0.1-1.2,0.2-1.8,0.2c-1.7,0.2-3.3,0.4-5,0.6&#10;&#9;&#9;c-79.9,8.5-171.7-23.6-171.7-93.6v-11.8L957.7,501.5z"/>
	<path fill-rule="evenodd" clip-rule="evenodd" fill="#FCB316" d="M578.1,440.9h10.4c-3,16.3,14.8,28.8,18.5,43&#10;&#9;&#9;c0.9,2.6,1.4,5.2,1.4,7.8c-0.3,16.8-13.6,30.4-30.4,30.4c-0.1,0-0.1,0-0.2,0c-0.1,0-0.1,0-0.2,0c-16.8,0-30.1-13.6-30.4-30.4&#10;&#9;&#9;c0-2.6,0.5-5.2,1.4-7.8c3.8-14.2,21.5-26.7,18.5-43h10.4C604.9,440.9,550.7,440.9,578.1,440.9"/>
	<path fill-rule="evenodd" clip-rule="evenodd" fill="#FFD700" d="M578.1,440.9h10.4c-3,16.3,14.8,28.8,18.5,43&#10;&#9;&#9;c0.3,0.7,0.5,1.4,0.7,2.1c-3,13.8-15,24.1-29.6,24.1c-0.1,0-0.1,0-0.2,0c-0.1,0-0.1,0-0.2,0c-14.6,0-26.6-10.3-29.6-24.1&#10;&#9;&#9;c0.2-0.7,0.4-1.4,0.7-2.1c3.8-14.2,21.5-26.7,18.5-43h10.4C604.9,440.9,550.7,440.9,578.1,440.9"/>
	<path d="M 588.9000244140625 508 L 588.9000244140625 464.8999938964844 L 597.2000122070312 510.3999938964844 Z" fill-rule="evenodd" clip-rule="evenodd" fill="#FCB316"/>
	<path d="M 580 511.6000061035156 L 576.5 484.3999938964844 L 574.0999755859375 511 L 565.2999877929688 509.79998779296875 L 568.2000122070312 465.5 L 558.7999877929688 511.6000061035156 L 569.4000244140625 515.7000122070312 Z" fill-rule="evenodd" clip-rule="evenodd" fill="#FCB316"/>
	<path fill-rule="evenodd" clip-rule="evenodd" fill="#211E1F" d="M669.6,392.9h288.1v108.6c0,129.2-288.1,124-288.1,0V392.9z"/>
	<path fill-rule="evenodd" clip-rule="evenodd" fill="#26292E" d="M924.6,565.5c-21.9,16.7-52.4,26.6-84.8,29.8V417.1h84.8V565.5z"/>
	<path fill-rule="evenodd" clip-rule="evenodd" fill="#2F3237" d="M536,373.7l269.3-156.5c6.3-3.7,9.6-2.9,16.1,0.9l267.5,155.4&#10;&#9;&#9;c2.7,1.6,2.7,5.1,0.3,6.5L817.6,537.8c-3.5,2-6.7,2-9.9,0.1L536.6,380.4C533.9,378.8,533.2,375.3,536,373.7"/>
	<path fill-rule="evenodd" clip-rule="evenodd" fill="#FFD700" d="M581.7,434h-7.8c0-32.8,6.6-43.1,29.5-46.3&#10;&#9;&#9;c18.7-2.6,221.2-26.5,223.3-26.8l0.9,7.8c-2,0.2-204.5,24.2-223.1,26.8C588.2,397.7,581.7,401.8,581.7,434"/>
	<path fill-rule="evenodd" clip-rule="evenodd" fill="#FCB316" d="M578.2,434h3.4c0-32.2,6.6-36.3,22.7-38.5&#10;&#9;&#9;c18.7-2.6,221.1-26.5,223.1-26.8l-0.5-4.3c-28.5,3.4-202.1,23.9-219.3,26.3C585.5,393.8,578.7,403.7,578.2,434"/>
	<path fill-rule="evenodd" clip-rule="evenodd" fill="#FCB316" d="M592.6,437.1c0,8.1-6.5,14.6-14.6,14.6c-8.1,0-14.6-6.5-14.6-14.6&#10;&#9;&#9;c0-8.1,6.5-14.6,14.6-14.6C586,422.5,592.6,429,592.6,437.1"/>
	<path fill-rule="evenodd" clip-rule="evenodd" fill="#F8991F" d="M578,442.8c-6.5,0-12-4.3-13.9-10.2c-0.4,1.4-0.7,2.9-0.7,4.4&#10;&#9;&#9;c0,8.1,6.5,14.6,14.6,14.6c8.1,0,14.6-6.5,14.6-14.6c0-1.5-0.2-3-0.7-4.4C590,438.5,584.5,442.8,578,442.8"/>
	<path fill-rule="evenodd" clip-rule="evenodd" fill="#1F1B19" d="M815.4,335.6c20.3,0,36.7,11.1,36.7,24.8&#10;&#9;&#9;c0,13.7-16.4,24.8-36.7,24.8s-36.7-11.1-36.7-24.8C778.7,346.7,795.1,335.6,815.4,335.6"/>
	<path fill-rule="evenodd" clip-rule="evenodd" fill="#D34044" d="M380.9,1029.8c0,0,78,12.6,110.9-54.7c15.1-30.9,9.4-53.9,0-69.1&#10;&#9;&#9;c-9.4-15.2-22.5-22.8-22.5-22.8c4.5,2.4,8.9,4.8,13.4,7.2c0,0,13.3,10.4,22.2,28.4c8.9,18.1,13.5,43.9-4.6,75&#10;&#9;&#9;c-35.3,61.7-105.6,43.4-105.6,43.4C390.1,1034.8,385.5,1032.3,380.9,1029.8"/>
	<path fill-rule="evenodd" clip-rule="evenodd" fill="#D34044" d="M645.1,1162.2c0,0,33.3,0.9,49.3-48.8c7.3-22.2,3.1-42.1-4-57.9&#10;&#9;&#9;c-33.6-46.4-141.8-27.4-105.5-60.3c-26.8-11.7-18.8,7.1-39.5,15.7c0,0-40.2,54.9-40.6,60.1c-0.4,5.2,23.4,34.3,25.1,35.6&#10;&#9;&#9;C531.1,1107.9,593.3,1178.2,645.1,1162.2" style="fill: rgb(198, 86, 86);"/>
	<path fill-rule="evenodd" clip-rule="evenodd" fill="#D34044" d="M648.2,1144.5c0,0,31.7-11.2,29.9-46.4&#10;&#9;&#9;c-40.8-17.6-81.7-35.3-122.7-53.1c-0.3,0.2,2,28.7,14.6,55.5C582.8,1127.3,606.2,1152.2,648.2,1144.5"/>
	<path fill-rule="evenodd" clip-rule="evenodd" fill="#D34044" d="M690.3,1055.5c0,0-34.5-35.2-71.5-14.4&#10;&#9;&#9;c-18.4,10.5-28.5,29.6-30.7,48.2c-2.2,18.7,3.4,36.9,16.6,45.5c26.2,17.3,44.9,8.6,44.9,8.6s-26.5,13.2-70.3-10.5&#10;&#9;&#9;c-43.8-23.8-88.5-82.8-88.5-82.8s8.4-32.1,9.9-33.1c1.4-1.1,14.3-37.7,18.7-38.4c2.4-0.3,36.6,6.6,74.4,19.7&#10;&#9;&#9;C631.6,1011.3,673,1030.6,690.3,1055.5"/>
	<path fill-rule="evenodd" clip-rule="evenodd" fill="#D34044" d="M654.9,1160.6c2.6-0.5-6,0.1-8.9,0.1c-39.1,1.2-68-12.7-84.3-33.7&#10;&#9;&#9;c-16.2-21-19.9-49.2-8.9-76.7c13.3-32.9,50.7-44.6,84.7-48.2c33.8-3.5,64.2,1,64.2,1c-73.3-35.2-146.7-70.5-220.4-106&#10;&#9;&#9;c-73.9-35.5-148-71.1-222.4-106.9c0,0-70.3-17.9-94,59.6c-19.3,63.6,57,88.5,57,88.5s47.7,19.5,114,54.1&#10;&#9;&#9;c66.1,34.6,150.8,84.4,225.4,145.6C561.4,1138.6,593.3,1172.2,654.9,1160.6" style="fill: rgb(198, 86, 86);"/>
	<path fill-rule="evenodd" clip-rule="evenodd" fill="#D34044" d="M482.9,890.4c0,0-71.9-9.4-105.4,56.9&#10;&#9;&#9;c-15.9,31.2-11.6,53.7-3.3,68.4c8.3,14.7,20.6,21.5,20.6,21.5c-4.7-2.5-9.3-4.9-13.9-7.4c0,0-12.4-9.7-20.1-27.2&#10;&#9;&#9;c-7.7-17.5-10.6-42.8,8.2-74c35.9-60.3,100.3-45.4,100.3-45.4C473.8,885.6,478.3,888,482.9,890.4"/>
	<path fill-rule="evenodd" clip-rule="evenodd" fill="#92342E" d="M380.4,1012c0,0,78,12.6,110.9-54.7c15.1-30.9,9.4-53.9,0-69.1&#10;&#9;&#9;c-9.4-15.2-22.5-22.8-22.5-22.8c4.5,2.4,8.9,4.8,13.4,7.2c0,0,13.3,10.4,22.2,28.4c8.9,18.1,13.5,43.9-4.6,75&#10;&#9;&#9;c-35.3,61.7-105.6,43.4-105.6,43.4C389.6,1017,385,1014.5,380.4,1012"/>
	<path fill-rule="evenodd" clip-rule="evenodd" fill="#B0A787" d="M644.6,1144.4c0,0,33.3,0.9,49.3-48.8c7.3-22.2,3.1-42.1-4-57.9&#10;&#9;&#9;c-33.6-46.4-141.8-27.4-105.5-60.3c-26.8-11.7-18.8,7.1-39.5,15.7c0,0-40.2,54.9-40.6,60.1c-0.4,5.2,23.4,34.3,25.1,35.6&#10;&#9;&#9;C530.6,1090.1,592.8,1160.4,644.6,1144.4"/>
	<path fill-rule="evenodd" clip-rule="evenodd" fill="#C6BDA1" d="M647.7,1126.7c0,0,31.7-11.2,29.9-46.4&#10;&#9;&#9;c-40.8-17.6-81.7-35.3-122.7-53.1c-0.3,0.2,2,28.7,14.6,55.5C582.3,1109.5,605.7,1134.4,647.7,1126.7"/>
	<path fill-rule="evenodd" clip-rule="evenodd" fill="#DFD9C2" d="M689.8,1037.7c0,0-34.5-35.2-71.5-14.4&#10;&#9;&#9;c-18.4,10.5-28.5,29.6-30.7,48.2c-2.2,18.7,3.4,36.9,16.6,45.5c26.2,17.3,44.9,8.6,44.9,8.6s-26.5,13.2-70.3-10.5&#10;&#9;&#9;c-43.8-23.8-88.5-82.8-88.5-82.8s8.4-32.1,9.9-33.1c1.4-1.1,14.3-37.7,18.7-38.4c2.4-0.3,36.6,6.6,74.4,19.7&#10;&#9;&#9;C631.1,993.5,672.5,1012.8,689.8,1037.7"/>
	<path fill-rule="evenodd" clip-rule="evenodd" fill="#EDE5CC" d="M654.4,1142.8c2.6-0.5-6,0.1-8.9,0.1c-39.1,1.2-68-12.7-84.3-33.7&#10;&#9;&#9;c-16.2-21-19.9-49.2-8.9-76.7c13.3-32.9,50.7-44.6,84.7-48.2c33.8-3.5,64.2,1,64.2,1c-73.3-35.2-146.7-70.5-220.4-106&#10;&#9;&#9;c-73.9-35.5-148-71.1-222.4-106.9c0,0-70.3-17.9-94,59.6c-19.3,63.6,57,88.5,57,88.5s47.7,19.5,114,54.1&#10;&#9;&#9;c66.1,34.6,150.8,84.4,225.4,145.6C560.9,1120.8,592.7,1154.4,654.4,1142.8"/>
	<path fill-rule="evenodd" clip-rule="evenodd" fill="#EA444B" d="M482.4,872.7c0,0-71.9-9.4-105.4,56.9&#10;&#9;&#9;c-15.9,31.2-11.6,53.7-3.3,68.4c8.3,14.7,20.6,21.5,20.6,21.5c-4.7-2.5-9.3-4.9-13.9-7.4c0,0-12.4-9.7-20.1-27.2&#10;&#9;&#9;c-7.7-17.5-10.6-42.8,8.2-74c35.9-60.3,100.3-45.4,100.3-45.4C473.3,867.9,477.8,870.3,482.4,872.7"/>
<path d="M 1790.711669921875 410.3234558105469" style="fill: rgb(198, 86, 86); fill-opacity: 1; stroke: rgb(0, 0, 0); stroke-opacity: 1; stroke-width: 0; paint-order: fill;"/><path d="M 1753.4544677734375 387.9690246582031" style="fill: rgb(198, 86, 86); fill-opacity: 1; stroke: rgb(0, 0, 0); stroke-opacity: 1; stroke-width: 0; paint-order: fill;"/><path d="M 1855.912353515625 333.94573974609375 L 1855.912353515625 333.94573974609375" style="fill: rgb(198, 86, 86); fill-opacity: 1; stroke: rgb(0, 0, 0); stroke-opacity: 1; stroke-width: 0; paint-order: fill;"/></g>
<path d="M 227.76199340820312 183.0530548095703" style="fill: rgb(247, 108, 108); fill-opacity: 1; stroke: rgb(0, 0, 0); stroke-opacity: 1; stroke-width: 0; paint-order: fill;"/><path d="M 956.1449584960938 1012.0311279296875 L 956.1449584960938 1012.0311279296875" style="fill: rgb(247, 108, 108); fill-opacity: 1; stroke: rgb(0, 0, 0); stroke-opacity: 1; stroke-width: 0; paint-order: fill;"/></svg>