<?xml version="1.0" standalone="no"?>
<!DOCTYPE svg PUBLIC "-//W3C//DTD SVG 20010904//EN"
 "http://www.w3.org/TR/2001/REC-SVG-20010904/DTD/svg10.dtd">
<svg version="1.0" xmlns="http://www.w3.org/2000/svg"
 width="300.000000pt" height="183.000000pt" viewBox="0 0 300.000000 183.000000"
 preserveAspectRatio="xMidYMid meet">

<g transform="translate(0.000000,183.000000) scale(0.100000,-0.100000)"
fill="#000000" stroke="none">
<path d="M80 1380 l0 -270 275 -2 275 -3 -198 -334 c-109 -184 -211 -347 -227
-362 l-28 -29 70 0 c67 0 70 1 66 23 -2 12 7 40 20 62 l23 40 90 3 c86 3 92 4
103 28 6 14 11 27 11 29 0 3 -36 5 -81 5 -61 0 -80 3 -76 13 3 6 70 122 149
257 103 176 149 245 162 245 13 0 52 -65 151 -255 128 -245 132 -255 109 -258
-28 -4 -28 -3 -12 -37 8 -18 19 -25 39 -25 24 0 34 -9 58 -51 16 -29 27 -58
24 -65 -4 -11 9 -14 61 -14 36 0 66 2 66 5 0 3 -12 16 -26 28 l-25 22 55 47
c102 89 130 200 124 483 l-3 140 -269 3 -268 2 6 25 c6 24 5 25 -44 25 l-50 0
0 245 0 245 -315 0 -315 0 0 -270z m329 216 c13 -14 20 -29 17 -34 -3 -5 3
-88 14 -183 11 -95 18 -179 15 -187 -3 -9 -25 -12 -82 -10 -87 3 -80 -5 -70
87 3 25 11 105 18 176 10 105 16 134 32 153 26 28 28 28 56 -2z m745 -589 c-5
-18 -4 -20 7 -9 20 18 31 15 27 -10 -5 -34 -31 -33 -46 2 -14 30 -8 55 9 44 5
-3 7 -15 3 -27z m-44 19 c0 -2 3 -11 6 -20 9 -23 -13 -20 -26 4 -9 16 -8 20 5
20 8 0 15 -2 15 -4z m-8 -53 c21 -19 24 -43 4 -43 -15 0 -30 16 -39 43 -8 22
11 22 35 0z m48 -77 c0 -32 3 -37 18 -31 32 13 87 15 102 4 8 -6 11 -12 5 -15
-5 -2 -17 -9 -25 -14 -13 -9 -13 -12 3 -21 24 -14 21 -31 -5 -27 -14 2 -24 11
-26 23 -2 12 -12 26 -22 33 -17 10 -22 8 -36 -13 -14 -21 -15 -40 -9 -110 5
-69 4 -85 -7 -85 -10 0 -14 19 -14 75 -1 72 -2 78 -35 112 -35 37 -23 36 20
-1 l24 -21 -6 80 c-4 50 -2 74 3 65 6 -8 10 -32 10 -54z m53 52 c7 -20 -11
-58 -28 -58 -17 0 -20 23 -5 51 12 22 26 25 33 7z m53 -23 c-7 -19 -36 -19
-36 0 0 17 33 38 38 24 2 -5 1 -16 -2 -24z m-186 -31 c0 -9 -7 -14 -17 -12
-10 1 -23 -1 -30 -5 -15 -9 -45 2 -37 14 3 6 14 7 25 4 15 -5 19 -1 19 15 0
18 3 19 20 10 11 -6 20 -18 20 -26z m50 7 c14 -28 12 -51 -5 -51 -16 0 -35 30
-35 54 0 22 27 20 40 -3z m175 -1 c-3 -5 -15 -10 -26 -10 -10 0 -19 5 -19 10
0 6 12 10 26 10 14 0 23 -4 19 -10z m-235 -55 c10 -12 7 -15 -13 -20 -32 -8
-77 13 -56 26 21 13 55 11 69 -6z m138 -27 c7 -7 12 -28 12 -47 0 -33 0 -34
-20 -16 -11 10 -20 31 -20 47 0 30 9 35 28 16z m-102 -10 c9 -14 -23 -38 -53
-38 -29 0 -29 14 -1 34 27 19 44 20 54 4z"/>
<path d="M397 1544 c-10 -11 -9 -64 2 -64 6 0 12 4 15 8 8 13 -8 65 -17 56z"/>
<path d="M398 1423 c7 -3 16 -2 19 1 4 3 -2 6 -13 5 -11 0 -14 -3 -6 -6z"/>
<path d="M331 1364 c0 -11 3 -14 6 -6 3 7 2 16 -1 19 -3 4 -6 -2 -5 -13z"/>
<path d="M384 1259 c0 -17 2 -18 11 -6 6 8 19 17 30 20 14 3 11 5 -10 6 -25 1
-31 -3 -31 -20z"/>
<path d="M1013 1529 c14 -8 17 -25 17 -109 0 -90 -2 -99 -17 -94 -15 5 -16 4
-3 -5 8 -6 18 -11 22 -11 4 0 8 49 10 109 2 60 0 107 -4 105 -4 -2 -9 0 -13 6
-3 5 -12 10 -18 10 -7 0 -4 -5 6 -11z"/>
<path d="M1098 1533 c7 -3 16 -2 19 1 4 3 -2 6 -13 5 -11 0 -14 -3 -6 -6z"/>
<path d="M878 1513 c7 -3 16 -2 19 1 4 3 -2 6 -13 5 -11 0 -14 -3 -6 -6z"/>
<path d="M1178 1513 c7 -3 16 -2 19 1 4 3 -2 6 -13 5 -11 0 -14 -3 -6 -6z"/>
<path d="M829 1503 c-12 -3 -24 -34 -41 -106 -13 -56 -22 -108 -20 -115 3 -10
35 -13 121 -13 237 -1 406 3 414 10 11 11 -39 212 -55 222 -8 5 -15 4 -17 -3
-2 -7 1 -14 6 -15 6 -2 9 -14 6 -26 -4 -18 -3 -19 7 -7 9 12 10 7 6 -25 -4
-31 -3 -35 4 -20 8 15 9 11 5 -20 -3 -29 -2 -34 5 -20 8 19 9 19 9 -2 1 -36
-10 -53 -35 -53 -13 0 -24 -4 -24 -10 0 -6 -35 -10 -85 -10 -50 0 -85 -4 -85
-10 0 -5 -7 -10 -15 -10 -8 0 -15 5 -15 10 0 6 -33 10 -80 10 -44 0 -80 4 -80
9 0 5 -16 11 -35 13 -26 3 -35 0 -35 -11 0 -8 -2 -12 -5 -10 -2 3 -1 23 2 45
6 36 7 37 15 14 5 -17 6 -10 3 20 -4 34 -3 40 5 25 7 -15 8 -10 4 20 -4 31 -3
37 6 25 8 -12 9 -9 4 14 -5 19 -3 27 3 23 6 -4 13 2 16 13 3 11 4 19 4 19 -1
-1 -9 -3 -18 -6z m458 -205 c-3 -7 -5 -2 -5 12 0 14 2 19 5 13 2 -7 2 -19 0
-25z"/>
<path d="M888 1313 c7 -3 16 -2 19 1 4 3 -2 6 -13 5 -11 0 -14 -3 -6 -6z"/>
<path d="M390 1051 c0 -10 -27 -48 -60 -84 -60 -65 -67 -84 -54 -134 9 -34 24
-28 24 10 0 34 33 77 58 77 17 0 15 -15 -3 -30 -8 -7 -15 -16 -15 -21 0 -19
21 -7 66 35 39 37 47 53 58 105 l13 61 -44 0 c-35 0 -43 -3 -43 -19z"/>
<path d="M673 885 c-20 -14 -81 -106 -157 -237 l-28 -48 35 0 c33 0 37 4 93
102 33 56 67 106 77 112 22 14 34 -1 103 -124 46 -84 51 -89 82 -90 17 0 32 3
32 6 0 7 -135 231 -153 255 -10 14 -49 39 -59 39 -2 0 -13 -7 -25 -15z"/>
<path d="M317 864 c-4 -4 -7 -17 -7 -30 0 -36 -10 -54 -41 -69 -40 -21 -43
-19 -19 16 34 47 15 46 -37 -1 -27 -24 -49 -44 -51 -45 -1 -1 -10 -34 -20 -73
l-18 -72 45 0 c43 0 46 2 48 26 1 18 21 47 62 88 49 49 61 68 60 91 -1 42 -13
78 -22 69z"/>
<path d="M636 627 c-31 -51 -56 -99 -56 -105 0 -8 28 -12 95 -12 l94 0 16 -30
c23 -45 19 -55 -35 -80 -48 -23 -51 -23 -87 -6 -21 9 -46 23 -56 31 -18 13
-18 15 -2 39 l17 26 -34 0 c-27 0 -37 -6 -51 -29 -9 -16 -17 -34 -17 -40 0
-13 152 -91 177 -91 10 0 50 17 88 38 83 44 89 61 48 137 l-28 50 -67 3 c-38
2 -68 6 -68 9 0 3 10 21 22 41 19 31 23 33 33 18 7 -9 24 -16 38 -16 l27 0
-27 55 c-40 82 -57 77 -127 -38z"/>
<path d="M844 544 c3 -9 6 -20 6 -25 0 -5 9 -9 20 -9 14 0 28 -17 51 -61 16
-34 28 -67 25 -75 -3 -8 -54 -37 -113 -66 -60 -28 -111 -52 -114 -54 -11 -6
-269 125 -275 140 -3 7 4 29 15 47 27 44 27 49 -9 49 -24 0 -34 -8 -55 -43
-35 -61 -32 -77 18 -108 84 -53 284 -149 308 -149 29 1 288 139 302 161 7 12
-3 39 -44 112 l-54 97 -44 0 c-35 0 -42 -3 -37 -16z"/>
</g>
</svg>
