<svg id="a14c0100-f7c1-4b19-89e5-2e7a6d4987e6" data-name="Layer 1" xmlns="http://www.w3.org/2000/svg" viewBox="0 0 719.77 495.32"><defs><style>.e6e954a1-d57c-40b1-bb12-1ea39f664ffd{fill:#488fcc;}.fc8bef7c-34ff-496d-8bb4-81666a274000{fill:#fff;}.a48249c0-17e0-4404-9b26-2ce177cd67fb{fill:#f15a2c;}</style></defs><path class="e6e954a1-d57c-40b1-bb12-1ea39f664ffd" d="M717.62,41.12a11.71,11.71,0,0,0-8.29-4.61L335.93,2.91a11.71,11.71,0,0,0-12.76,10.56,8.85,8.85,0,0,0-.05,1.15l1.4,376.55A11.71,11.71,0,0,0,332,402.06l159.16,61.38a11.78,11.78,0,0,0,3.21.73,12.07,12.07,0,0,0,3.74-.25l144.22-34.07a11.72,11.72,0,0,0,8.83-9.28L719.8,50.32A11.7,11.7,0,0,0,717.62,41.12Z" transform="translate(-0.23 -2.86)"/><path class="fc8bef7c-34ff-496d-8bb4-81666a274000" d="M502.8,370.82a11.93,11.93,0,0,1-3.16-.75l-79.58-30.69a11.73,11.73,0,0,1-7.37-9.11l-7.46-47.72a11.72,11.72,0,1,1,23.06-4.15c0,.18.06.36.08.54l6.42,41L504.94,347l72.77-13.9,38-187.39L407.11,127a11.72,11.72,0,0,1,2.1-23.34l221.71,20a11.72,11.72,0,0,1,10.69,12.66,12.52,12.52,0,0,1-.19,1.35L599.18,345.52a11.7,11.7,0,0,1-9.3,9.16l-83.78,16A11.41,11.41,0,0,1,502.8,370.82Z" transform="translate(-0.23 -2.86)"/><path class="fc8bef7c-34ff-496d-8bb4-81666a274000" d="M608.75,239.2,410.38,221.35a11.72,11.72,0,0,1,2.1-23.34l198.37,17.85a11.72,11.72,0,1,1-2.1,23.34Z" transform="translate(-0.23 -2.86)"/><path class="a48249c0-17e0-4404-9b26-2ce177cd67fb" d="M394.37,46.34A11.69,11.69,0,0,0,385.48,43L11.28,66a11.71,11.71,0,0,0-11,12.36,11.51,11.51,0,0,0,.12,1.15l58,372.05a11.69,11.69,0,0,0,9.06,9.63L234,497.91a11.66,11.66,0,0,0,3.28.24,11.84,11.84,0,0,0,3.66-.81L378.44,442a11.71,11.71,0,0,0,7.34-10.49L397.91,55.11A11.65,11.65,0,0,0,394.37,46.34Z" transform="translate(-0.23 -2.86)"/><path class="fc8bef7c-34ff-496d-8bb4-81666a274000" d="M231.59,404.6a11.74,11.74,0,0,1-3.24-.27L145.06,386a11.71,11.71,0,0,1-8.65-7.89L121.85,332A11.71,11.71,0,1,1,144,324.44c.06.17.12.34.17.52l12.52,39.61,73.15,16.12,58.33-23.51,3.72-97.13L117.74,270.73a11.71,11.71,0,0,1-12.32-9.51L88,168.39a11.7,11.7,0,0,1,9.32-13.69,10.38,10.38,0,0,1,1.56-.19l222.19-13.63a11.72,11.72,0,1,1,1.43,23.39L113.54,177.08l13.08,69.63,176.79-10.84a11.71,11.71,0,0,1,12.46,10.91c0,.41,0,.82,0,1.23l-4.53,117.66a11.72,11.72,0,0,1-7.31,10.43l-68.73,27.69A12.27,12.27,0,0,1,231.59,404.6Z" transform="translate(-0.23 -2.86)"/></svg>