<svg id="Layer_1" data-name="Layer 1" xmlns="http://www.w3.org/2000/svg" viewBox="0 0 207.33396 251.30285"><defs><style>.cls-1{fill:#e30613;}.cls-2{fill:#fff;}</style></defs><title>qub-logo-icon</title><path class="cls-1" d="M339.26483,353.50965a13.95874,13.95874,0,1,0-4.79555,2.27079l1.51421,2.16041a1.14915,1.14915,0,0,0,.957.67192h5.04418c.37186,0,.54439-.30113.38686-.67192Zm-16.322-11.08177a8.18032,8.18032,0,1,1,13.11893,6.51125l-.71049-1.0127a1.14916,1.14916,0,0,0-.957-.67191h-5.04417c-.37078,0-.54439.30113-.38686.67191l1.87,2.6673a8.17383,8.17383,0,0,1-7.89044-8.16585" transform="translate(-317.27802 -171.98857)"/><path class="cls-1" d="M358.51031,356.08391c-6.03116,0-10.577-4.37011-10.577-10.16766V330.10859a.94477.94477,0,0,1,.92054-.92054h3.54174a.9211.9211,0,0,1,.92054.92054v15.54726a4.89922,4.89922,0,0,0,5.19421,5.15563,4.95143,4.95143,0,0,0,5.23064-5.11813V330.10859a.92248.92248,0,0,1,.92053-.92054h3.54176a.94477.94477,0,0,1,.92052.92054v15.80766c0,5.79755-4.563,10.16766-10.61345,10.16766" transform="translate(-317.27802 -171.98857)"/><path class="cls-1" d="M388.37792,355.71131H373.20464a.92362.92362,0,0,1-.92267-.92053V330.10891a.92293.92293,0,0,1,.92267-.92054h15.17328a.92109.92109,0,0,1,.92052.92054v3.05737a.922.922,0,0,1-.92052.92161H377.55441v5.68823h8.99637a.94423.94423,0,0,1,.92053.9216v3.09488a.92111.92111,0,0,1-.92053.92054h-8.99637v6.09866h10.82351a.92109.92109,0,0,1,.92052.92053v3.05845a.92178.92178,0,0,1-.92052.92053" transform="translate(-317.27802 -171.98857)"/><path class="cls-1" d="M408.82373,355.71131H393.64939a.9234.9234,0,0,1-.92161-.92053V330.10891a.92271.92271,0,0,1,.92161-.92054h15.17434a.92109.92109,0,0,1,.92052.92054v3.05737a.922.922,0,0,1-.92052.92161H398.00022v5.68823h8.99743a.944.944,0,0,1,.91947.9216v3.09488a.92088.92088,0,0,1-.91947.92054h-8.99743v6.09866h10.82351a.92109.92109,0,0,1,.92052.92053v3.05845a.92178.92178,0,0,1-.92052.92053" transform="translate(-317.27802 -171.98857)"/><path class="cls-1" d="M434.9102,356.08391h-.5219a1.03617,1.03617,0,0,1-.78443-.32255l-14.99645-16.53317v15.5612a.92224.92224,0,0,1-.92161.9216H414.2941a.94688.94688,0,0,1-.92268-.9216V329.69816a.91661.91661,0,0,1,.92268-.883h.55832a1.03622,1.03622,0,0,1,.78444.32257l14.92143,15.91162V330.10859a.92293.92293,0,0,1,.92267-.92054h3.42924a.94477.94477,0,0,1,.92052.92054v25.0923a.91394.91394,0,0,1-.92052.883" transform="translate(-317.27802 -171.98857)"/><path class="cls-1" d="M440.68287,336.9007a1.0211,1.0211,0,0,1-.51225-.1811l-.98268-.70192c-.15968-.12-.47153-.45973-.00751-1.0802a7.22557,7.22557,0,0,0,1.6964-4.11722,2.48875,2.48875,0,0,0-.02251-.34614,2.39891,2.39891,0,0,1-1.02984.23147,2.36777,2.36777,0,0,1-2.35116-2.62871,2.76214,2.76214,0,0,1,2.90627-2.73374c1.65567,0,3.3242,1.33847,3.3242,4.33047A11.39751,11.39751,0,0,1,441.163,336.635a.58417.58417,0,0,1-.48009.26575" transform="translate(-317.27802 -171.98857)"/><path class="cls-1" d="M453.21594,356.08391a11.88454,11.88454,0,0,1-8.34161-2.95877.91234.91234,0,0,1-.23253-1.38455l1.34382-2.31366a1.04283,1.04283,0,0,1,.71049-.5176,1.10777,1.10777,0,0,1,.87124.195,8.78887,8.78887,0,0,0,5.49855,2.26758,2.92342,2.92342,0,0,0,3.18061-2.65873c0-1.69318-1.376-2.97056-4.60266-4.27689-3.06488-1.2388-7.14137-3.44315-7.14137-8.25051,0-3.54925,2.692-7.3707,8.602-7.3707a13.4127,13.4127,0,0,1,7.585,2.54085,1.00195,1.00195,0,0,1,.42222.65263,1.129,1.129,0,0,1-.15325.87016l-1.41455,2.12077a1.55984,1.55984,0,0,1-.69335.58189.94822.94822,0,0,1-.90553-.07608l-.27434-.17147a8.82084,8.82084,0,0,0-4.7902-1.84321c-2.11969,0-3.0681,1.20452-3.0681,2.39724,0,1.59138,1.23668,2.74339,4.26726,3.979,3.91788,1.5753,7.92366,3.83108,7.92366,8.62236,0,3.68214-3.07989,7.59466-8.7874,7.59466" transform="translate(-317.27802 -171.98857)"/><path class="cls-1" d="M364.31428,391.99511h-.5219a1.03557,1.03557,0,0,1-.78549-.32363l-14.99645-16.53317v15.56227a.922.922,0,0,1-.92054.9216h-3.39279a.94593.94593,0,0,1-.92161-.9216V365.60935a.91565.91565,0,0,1,.92161-.883h.55833a1.03075,1.03075,0,0,1,.78443.32256l14.9225,15.91055V366.01979a.922.922,0,0,1,.92161-.92054h3.4303a.94554.94554,0,0,1,.92053.92054v25.0923a.91537.91537,0,0,1-.92053.883" transform="translate(-317.27802 -171.98857)"/><path class="cls-1" d="M374.71663,391.62465H371.2499a.94592.94592,0,0,1-.92161-.9216V366.02118a.94478.94478,0,0,1,.92161-.91947h3.46673a.94383.94383,0,0,1,.92053.91947v24.68187a.945.945,0,0,1-.92053.9216" transform="translate(-317.27802 -171.98857)"/><path class="cls-1" d="M391.6493,391.99726h-.37294a.88178.88178,0,0,1-.82408-.52724l-.00322-.0075L378.929,366.37129a.89222.89222,0,0,1,.03752-.8691.90712.90712,0,0,1,.78979-.4008h3.80216a.89424.89424,0,0,1,.83265.54333l7.091,15.798,7.09421-15.80553a.888.888,0,0,1,.8273-.53582h3.80323a.90712.90712,0,0,1,.78979.4008.8941.8941,0,0,1,.03751.87017l-11.55864,25.09016a.88268.88268,0,0,1-.82622.53474" transform="translate(-317.27802 -171.98857)"/><path class="cls-1" d="M423.2238,391.67909H408.04947a.92362.92362,0,0,1-.92161-.9216v-24.6808a.9227.9227,0,0,1,.92161-.92053H423.2238a.92041.92041,0,0,1,.92053.92053v3.0563a.92156.92156,0,0,1-.92053.92267H412.4003v5.68824h8.99637a.94422.94422,0,0,1,.92052.9216v3.09381a.92133.92133,0,0,1-.92052.9216H412.4003v6.09974h10.8235a.9195.9195,0,0,1,.92053.91946v3.05738a.92133.92133,0,0,1-.92053.9216" transform="translate(-317.27802 -171.98857)"/><path class="cls-1" d="M447.27084,391.67877h-3.91467a.84649.84649,0,0,1-.78766-.4533L437.669,381.464h-3.79358v9.2932a.94538.94538,0,0,1-.92268.92161h-3.42923a.922.922,0,0,1-.92052-.92161V366.07637a.92247.92247,0,0,1,.92052-.92053h10.66275a8.29552,8.29552,0,0,1,8.3416,8.22907,8.386,8.386,0,0,1-5.4321,7.63646l4.99488,9.2632a.9739.9739,0,0,1-.00108.95912.91958.91958,0,0,1-.81872.43508m-13.35791-14.63h5.864a3.583,3.583,0,0,0,3.47745-3.59,3.48828,3.48828,0,0,0-3.47745-3.40351h-5.864Z" transform="translate(-317.27802 -171.98857)"/><path class="cls-1" d="M460.31338,392.0517a11.88448,11.88448,0,0,1-8.34161-2.95878.91292.91292,0,0,1-.23362-1.38562l1.34384-2.31259a1.047,1.047,0,0,1,.71155-.5176,1.1097,1.1097,0,0,1,.87124.195,8.78387,8.78387,0,0,0,5.49855,2.26757,2.92239,2.92239,0,0,0,3.17955-2.65872c0-1.69211-1.376-2.97164-4.6016-4.278-3.06594-1.23774-7.14243-3.441-7.14243-8.24944,0-3.54924,2.693-7.37069,8.60307-7.37069a13.41275,13.41275,0,0,1,7.58289,2.53977.99645.99645,0,0,1,.42328.65369,1.12526,1.12526,0,0,1-.15217.8691l-1.41455,2.12183a1.57881,1.57881,0,0,1-.69443.583.95722.95722,0,0,1-.90553-.07608l-.27326-.17253a8.82074,8.82074,0,0,0-4.7902-1.84321c-2.11969,0-3.06809,1.20451-3.06809,2.39724,0,1.59138,1.23667,2.74338,4.26617,3.9779,3.9179,1.57531,7.92474,3.83217,7.92474,8.62344,0,3.68213-3.07989,7.59467-8.78739,7.59467" transform="translate(-317.27802 -171.98857)"/><path class="cls-1" d="M477.98173,391.67909H474.5139a.94517.94517,0,0,1-.92159-.9216v-24.6808a.945.945,0,0,1,.92159-.92053h3.46783a.944.944,0,0,1,.92051.92053v24.6808a.94422.94422,0,0,1-.92051.9216" transform="translate(-317.27802 -171.98857)"/><path class="cls-1" d="M492.53152,391.62465h-3.46675a.9459.9459,0,0,1-.92159-.9216v-20.7029h-5.49212a.92338.92338,0,0,1-.92054-.9216v-3.05737a.92225.92225,0,0,1,.92054-.91947h16.2931a.92181.92181,0,0,1,.92162.91947v3.05737a.92294.92294,0,0,1-.92162.9216H493.452v20.7029a.945.945,0,0,1-.92051.9216" transform="translate(-317.27802 -171.98857)"/><path class="cls-1" d="M514.96048,391.62465h-3.42924a.92364.92364,0,0,1-.92162-.9216V378.91293l-8.46266-12.3988a.92872.92872,0,0,1-.0418-.9559.90969.90969,0,0,1,.81334-.45652h3.80324a.9314.9314,0,0,1,.76622.42116l5.79541,8.32873,5.79-8.32444a.942.942,0,0,1,.77266-.42545h3.83967a.90928.90928,0,0,1,.8123.45545.928.928,0,0,1-.03539.94947l-8.58056,12.36986v11.82656a.94592.94592,0,0,1-.92159.9216" transform="translate(-317.27802 -171.98857)"/><path class="cls-1" d="M327.84369,392.05373c-6.00972,0-10.54166-4.35512-10.54166-10.13229V366.087a.89209.89209,0,0,1,.8691-.87017h3.5471a.87079.87079,0,0,1,.87016.87017V381.66a4.95883,4.95883,0,0,0,5.2553,5.21885,5.01131,5.01131,0,0,0,5.2928-5.18134V366.087a.87147.87147,0,0,1,.87016-.87017h3.54818a.89209.89209,0,0,1,.86909.87017v15.83446c0,5.77717-4.54908,10.13229-10.58023,10.13229" transform="translate(-317.27802 -171.98857)"/><path class="cls-1" d="M329.71541,410.39764a6.0531,6.0531,0,0,0,3.40778-5.55c0-3.68857-3.05629-6.49946-7.30746-6.49946h-7.869a.66759.66759,0,0,0-.6687.66655v23.25767a.66849.66849,0,0,0,.6687.66763h8.25587c4.42584,0,7.65789-2.84626,7.65789-6.78023a5.93742,5.93742,0,0,0-4.14507-5.69037Zm-8.85384-1.36955v-7.3782h4.60266a3.41455,3.41455,0,0,1,3.75823,3.61784,3.577,3.577,0,0,1-3.75823,3.76036Zm-.03429,10.6799v-7.51858h5.48033a3.59365,3.59365,0,0,1,3.6532,3.68963,3.49468,3.49468,0,0,1-3.6532,3.829Z" transform="translate(-317.27802 -171.98857)"/><path class="cls-1" d="M336.62659,422.27187a.66687.66687,0,0,0,.66761.66763h14.05126a.66618.66618,0,0,0,.66763-.66763v-1.93322a.666.666,0,0,0-.66763-.66656h-11.1v-7.55287h9.38a.66667.66667,0,0,0,.66656-.66763v-1.96752a.68984.68984,0,0,0-.66656-.66656h-9.38v-7.16708h11.1a.66619.66619,0,0,0,.66763-.66763v-1.96752a.666.666,0,0,0-.66763-.66656H337.2942a.66666.66666,0,0,0-.66761.66656Z" transform="translate(-317.27802 -171.98857)"/><path class="cls-1" d="M355.79983,422.27187a.66665.66665,0,0,0,.66655.66763h12.507a.66759.66759,0,0,0,.66763-.66763v-1.93322a.66736.66736,0,0,0-.66763-.66656H359.453V399.01528a.6908.6908,0,0,0-.66763-.66656h-2.319a.66643.66643,0,0,0-.66655.66656Z" transform="translate(-317.27802 -171.98857)"/><path class="cls-1" d="M372.33793,422.27187a.66665.66665,0,0,0,.66655.66763h2.28473a.69079.69079,0,0,0,.66655-.66763v-9.23855h9.38a.691.691,0,0,0,.66763-.66763v-1.93322a.6908.6908,0,0,0-.66763-.66656h-9.38v-8.11548h11.101a.66689.66689,0,0,0,.66763-.66763v-1.96752a.66666.66666,0,0,0-.66763-.66656H373.00448a.66643.66643,0,0,0-.66655.66656Z" transform="translate(-317.27802 -171.98857)"/><path class="cls-1" d="M387.04845,422.93982h2.21291a.88327.88327,0,0,0,.808-.52617l2.14326-4.81378h11.48686l2.17863,4.81378a.81761.81761,0,0,0,.808.52617h2.21293a.62053.62053,0,0,0,.598-.913l-10.71528-23.64345a.82356.82356,0,0,0-.59689-.38794h-.3515a.82545.82545,0,0,0-.598.38794l-10.78493,23.64345a.62022.62022,0,0,0,.598.913m6.53375-8.36088,4.28653-9.62542h.17574l4.31976,9.62542Z" transform="translate(-317.27802 -171.98857)"/><path class="cls-1" d="M412.08878,420.51589a11.38,11.38,0,0,0,7.55286,2.77554c4.56838,0,7.83364-2.98665,7.83364-6.63985,0-4.28546-3.47745-6.21869-7.5518-7.869-2.91591-1.19487-4.46228-2.424-4.46228-4.42692,0-1.29989,1.01912-3.16132,3.9704-3.16132a8.26258,8.26258,0,0,1,4.742,1.75533.831.831,0,0,0,1.23023-.35149l.87767-1.33418a.83449.83449,0,0,0-.2111-1.19488,11.8917,11.8917,0,0,0-6.4984-2.07253c-5.58534,0-7.69326,3.75929-7.69326,6.50052,0,4.07436,2.80984,5.93578,6.39337,7.44679,3.47853,1.44027,5.30459,2.77553,5.30459,4.88343,0,1.7907-1.54636,3.26634-3.96933,3.26634-2.70587,0-3.96932-1.05341-5.62071-2.423a.79276.79276,0,0,0-1.19594.28077l-.912,1.4392c-.38793.598-.10609.84338.21006,1.12521" transform="translate(-317.27802 -171.98857)"/><path class="cls-1" d="M435.19588,422.27187a.69193.69193,0,0,0,.66869.66763h2.31794a.69175.69175,0,0,0,.66763-.66763V401.65043H444.577a.66665.66665,0,0,0,.66655-.66763v-1.96752a.66643.66643,0,0,0-.66655-.66656H429.47014a.66666.66666,0,0,0-.66763.66656v1.96752a.66689.66689,0,0,0,.66763.66763h5.72574Z" transform="translate(-317.27802 -171.98857)"/><path class="cls-1" d="M317.38777,171.98857v80.15086a63.46686,63.46686,0,1,0,126.93371,0V171.98857Z" transform="translate(-317.27802 -171.98857)"/><path class="cls-2" d="M437.35142,178.95863H426.13493l-45.28011,45.28011-.0002-.00009-.00019.00009-45.28011-45.28011H324.35783V191.767l44.48429,44.4842L329.47688,275.6163a56.106,56.106,0,0,0,9.56147,14.46343l41.81608-41.81617.00019.00009.0002-.00009,41.81608,41.81617a56.106,56.106,0,0,0,9.56147-14.46343l-39.36524-39.36515,44.48429-44.4842Z" transform="translate(-317.27802 -171.98857)"/><path class="cls-1" d="M391.37211,233.53276c-1.694-1.23581-3.24652,1.52087-3.24652,1.52087-1.06362-1.4417-2.08671.121-2.08671.121,1.43454.99065,1.30879,3.31647-1.40974,2.72886a3.67708,3.67708,0,0,1-3.01217-2.93841l2.03869.74836-.00159-3.38627-1.947.72673.652-2.37861h-3.054l.65214,2.37861-1.94855-.72673-.00159,3.38627,2.04013-.74836a3.67716,3.67716,0,0,1-3.01361,2.93841c-2.71852.58761-2.84285-1.73821-1.40815-2.72886,0,0-1.02322-1.56269-2.08525-.121,0,0-1.55413-2.75668-3.248-1.52087,0,0,2.38945,2.9508,2.6845,10.81241,0,0,2.25126-1.44695,7.85623-1.38955,5.60332-.0574,7.85458,1.38955,7.85458,1.38955.29492-7.86161,2.6845-10.81241,2.6845-10.81241" transform="translate(-317.27802 -171.98857)"/><path class="cls-1" d="M371.76539,232.14189a2.78606,2.78606,0,0,1,.502.16512,9.48479,9.48479,0,0,1,17.17455.00007,2.781,2.781,0,0,1,.502-.16519,2.49793,2.49793,0,0,1,1.54579.15454,11.38775,11.38775,0,0,0-8.88173-7.2005l-1.75311,1.75311-.00019-.0001-.00019.0001-1.7531-1.75311a11.38781,11.38781,0,0,0-8.88173,7.20024A2.4976,2.4976,0,0,1,371.76539,232.14189Z" transform="translate(-317.27802 -171.98857)"/><path class="cls-1" d="M380.8329,245.28615l.00019-.0001,2.13017,2.13015c2.8688-.20457,4.94961-.811,4.94961-1.52759,0-.88456-3.16981-1.60163-7.08-1.60163s-7.07993.71707-7.07993,1.60163c0,.71657,2.08076,1.323,4.94962,1.52759l2.13012-2.13015Z" transform="translate(-317.27802 -171.98857)"/><path class="cls-2" d="M394.65565,181.35224a1.96505,1.96505,0,0,1,1.96575,1.96254v21.33594H383.05928a2.33416,2.33416,0,0,1-2.20325,1.60386h-.00459a2.33367,2.33367,0,0,1-2.20168-1.60386H365.08785V183.31478a1.96476,1.96476,0,0,1,1.96554-1.96254v21.34452h11.66935a2.19374,2.19374,0,0,1,2.13188,1.94633,2.19464,2.19464,0,0,1,2.13327-1.94633h11.66776V181.35224m-7.46032-.91513c2.24363,1.75824,5.47.91672,5.47.91672v19.403s-3.22633.84152-5.47-.91672c-2.23107-1.74759-6.288-.29111-6.3393,1.79481v.038l-.00141-.0178-.00318.0178v-.038c-.04963-2.08592-4.10823-3.5424-6.33773-1.79481-2.24363,1.75824-5.4698.91672-5.4698.91672v-19.403s3.22617.84152,5.4698-.91672c2.23727-1.75379,6.31593-.28189,6.34091,1.8142.02478-2.09609,4.10347-3.568,6.34071-1.8142M377.976,194.124a4.36243,4.36243,0,0,0-3.41883.44882,5.23236,5.23236,0,0,1-3.1068.85471v1.395a5.21655,5.21655,0,0,0,3.1068-.85392,4.36215,4.36215,0,0,1,3.41883-.44866Zm0-5.2159a4.35721,4.35721,0,0,0-3.41883.44787,5.22293,5.22293,0,0,1-3.1068.85392v1.39591a5.22485,5.22485,0,0,0,3.1068-.85408,4.35721,4.35721,0,0,1,3.41883-.44787Zm0-5.21685a4.36243,4.36243,0,0,0-3.41883.44882,5.22732,5.22732,0,0,1-3.1068.85313V186.389a5.23237,5.23237,0,0,0,3.1068-.85313,4.36215,4.36215,0,0,1,3.41883-.44866Zm12.28275,11.73628a5.23231,5.23231,0,0,1-3.10679-.85471,4.36289,4.36289,0,0,0-3.41887-.44882v1.39591a4.36261,4.36261,0,0,1,3.41887.44866,5.2165,5.2165,0,0,0,3.10679.85392Zm0-5.21764a5.22288,5.22288,0,0,1-3.10679-.85392,4.35766,4.35766,0,0,0-3.41887-.44787v1.39575a4.35766,4.35766,0,0,1,3.41887.44787,5.2248,5.2248,0,0,0,3.10679.85408Zm0-5.21669a5.22727,5.22727,0,0,1-3.10679-.85313,4.36289,4.36289,0,0,0-3.41887-.44882v1.39591a4.36261,4.36261,0,0,1,3.41887.44866,5.23231,5.23231,0,0,0,3.10679.85313Z" transform="translate(-317.27802 -171.98857)"/><path class="cls-2" d="M359.74842,295.26213a.16657.16657,0,0,1,.16455-.16694h3.571a.167.167,0,0,1,.16614.16694v.719a.16647.16647,0,0,1-.16614.16678h-2.596v1.43852h2.16588a.17251.17251,0,0,1,.16758.16693v.72816a.16672.16672,0,0,1-.16758.16694H360.888v1.53327h2.596a.16647.16647,0,0,1,.16614.16678v.72053a.1651.1651,0,0,1-.16614.16455h-3.571a.16464.16464,0,0,1-.16455-.16455Zm5.97745,5.3768a2.81335,2.81335,0,0,0,1.92835.683,1.8515,1.8515,0,0,0,2.01692-1.73582c0-1.13183-.98127-1.63948-1.83217-1.98257-.711-.28968-1.03549-.569-1.03549-.98127a.69852.69852,0,0,1,.77157-.61481,2.87128,2.87128,0,0,1,1.21882.48285.234.234,0,0,0,.309-.10478l.33212-.50081a.21733.21733,0,0,0-.05278-.28951,3.08238,3.08238,0,0,0-1.75284-.58619,1.74962,1.74962,0,0,0-1.97335,1.683c0,1.03406.82294,1.562,1.64727,1.89418.73754.29889,1.11482.60558,1.11482,1.05345a.73222.73222,0,0,1-.79812.67458,2.89408,2.89408,0,0,1-1.32436-.544.20516.20516,0,0,0-.2981.062l-.31668.54421c-.0792.13975-.03421.18395.045.26249m6.97445.43006a.17.17,0,0,0,.16455.16455h.81815a.17137.17137,0,0,0,.16614-.16455v-4.92113h1.34154a.16769.16769,0,0,0,.16757-.16678v-.719a.16824.16824,0,0,0-.16757-.16694h-3.83191a.16839.16839,0,0,0-.16773.16694v.719a.16784.16784,0,0,0,.16773.16678h1.34153Zm10.3434,0a.16475.16475,0,0,0,.16455.16455h.75617a.16344.16344,0,0,0,.15833-.16455v-5.63133a.16423.16423,0,0,0-.15833-.16614h-.61324l-1.26379,1.06124a.18642.18642,0,0,0-.04354.15834l.05276.42927a.1443.1443,0,0,0,.17552.11337l.77157-.16694Zm3.11138-1.43009a1.96965,1.96965,0,0,1,1.06045-1.46554v-.02561a1.64736,1.64736,0,0,1-.90353-1.35934,1.95148,1.95148,0,0,1,3.84114,0,1.68287,1.68287,0,0,1-.90369,1.35v.035a1.80318,1.80318,0,0,1,1.062,1.46554c0,.95566-.80734,1.68382-2.09752,1.68382-1.253,0-2.05889-.72816-2.05889-1.68382m2.07749-1.97255c.54342-.12417.798-.45646.798-.83373a.77306.77306,0,0,0-.81656-.74518.76414.76414,0,0,0-.77952.74518c0,.39444.24532.70177.79812.83373m-.91147,1.95554a.91832.91832,0,0,0,1.82278,0,.91155.91155,0,1,0-1.82278,0m4.64863.34087a.16655.16655,0,0,1-.16774-.16535v-.72832l3.158-3.84256a.185.185,0,0,1,.132-.05056h.47519a.16548.16548,0,0,1,.16614.16694v3.734h.70018a.16062.16062,0,0,1,.16774.15915v.54421a.16706.16706,0,0,1-.16774.16535h-.70018l.00764,1.1234a.1735.1735,0,0,1-.166.16758h-.72832a.17376.17376,0,0,1-.16757-.16758v-1.10623h-2.7093m2.74491-.91068v-2.10531l-1.75442,2.10531Zm3.39565,1.54329a2.24166,2.24166,0,0,0,1.728.72816,2.05241,2.05241,0,0,0,2.12248-2.00976,1.8575,1.8575,0,0,0-2.00754-1.94632h-.75468v-1.16681h1.94709a.16533.16533,0,0,0,.166-.16678v-.5962a.165.165,0,0,0-.166-.16535h-2.77147a.16415.16415,0,0,0-.16611.16535v2.58816a.29167.29167,0,0,0,.27168.30668h1.35076a.96144.96144,0,0,1,1.06044.98127,1.01646,1.01646,0,0,1-1.01688,1.03628,1.88822,1.88822,0,0,1-1.132-.49143.1518.1518,0,0,0-.21114.00859l-.43785.43085c-.10556.10319-.09618.16535.01717.29731m-20.83447-.0434a.69707.69707,0,1,0,.69555-.69637.69465.69465,0,0,0-.69555.69637m.94246-1.33836a2.06462,2.06462,0,1,0,0-4.12922H376.897a.22094.22094,0,0,0-.21431.22131v3.689a.21726.21726,0,0,0,.21431.21892h1.32135m-.587-3.2241h.52021a1.15767,1.15767,0,0,1,0,2.315h-.52021Z" transform="translate(-317.27802 -171.98857)"/><path class="cls-2" d="M349.40867,227.41894a1.83749,1.83749,0,0,0-3.675,0l.00143,8.69073s-5.07853-.58985-7.92282,5.50875c0,0,2.07112-6.53806,6.88892-6.6824,0,0,.01082-16.228.01082-16.245a1.65435,1.65435,0,1,0-3.3087,0v11.84868s1.09925.20893,1.36176.28969c0,0-.93093-.08044-1.36176-.09715-.3305-.01281-.65661-.02018-.97809-.01239V216.69906a1.65355,1.65355,0,1,0-3.30709,0v14.26086c-.3291.03339-.638.06819-.94231.1046v-11.407a1.4999,1.4999,0,1,0-2.99978.00057V231.556c-1.31257.23039-2.23463.43028-2.37826.47723q.71062-.321,1.408-.5712v-7.06666a1.24389,1.24389,0,0,0-1.24359-1.2436,1.21936,1.21936,0,0,0-1.21579,1.2436v15.05485c.1331,3.452,1.09113,9.99649,6.70418,9.94065a4.10455,4.10455,0,0,1-3.05239-.2779,6.26385,6.26385,0,0,1-.01717,1.46553,5.08223,5.08223,0,0,0,.33848,2.59214h10.06867s-1.36317-3.41488,1.85537-7.94777c0,0,3.76355-5.27043,3.76355-9.11315ZM333.42,239.62488c5.28506-8.83986,10.17265-6.21673,10.17265-6.21673C337.8929,233.02466,333.9354,238.82676,333.42,239.62488Z" transform="translate(-317.27802 -171.98857)"/><path class="cls-2" d="M420.83411,226.7318c.03241-.00015,3.52095.33261,4.03468-3.02533,0,0,.19573,3.5971,3.53709,1.68845,0,0-.31678,3.65519,3.17034,1.93135,0,0-.76438,2.96,1.933,2.60453,0,0,6.76757-16.04425-11.28749-12.38715,0,0,4.74215-3.522,10.02827-.6653,0,0-4.6823-6.86384-15.06649-.83333,0,0,2.16681,1.1332,1.19386,3.19671a6.409,6.409,0,0,0-1.78778,2.062c-.49855,1.11233-.07222,4.407-4.25018,4.60826,0,0-.66866,2.06838,2.17336,2.87048.52476.14813.64077.026,1.94384-1.052C417.81533,226.60635,420.80162,226.732,420.83411,226.7318ZM417.9073,222.042c.346-.63132,1.5151.41612,1.5151.41612s-.205-.02409-.88839.42084C417.70635,223.41778,417.56127,222.6732,417.9073,222.042Z" transform="translate(-317.27802 -171.98857)"/><path class="cls-2" d="M429.56678,234.9893c.35156-.47517,1.89671-1.87787,1.59722-2.3067-1.14311-1.63682-4.8425-5.32369-7.65234-4.10107-.92734.4035-2.32437,1.16-2.83275,1.37371a8.131,8.131,0,0,0-4.46995,4.11339c-1.85187,4.175,1.3525,7.912,4.399,10.409,1.58987,1.30312,3.25076,2.51677,4.82775,3.83657,1.16076.97147,2.62166,2.56218,2.059,4.23012-.50706,1.50322-2.7331,2.56528-3.89646,1.01736a1.69149,1.69149,0,0,1,.233-2.41656c.86488-.541,1.83319.35993,2.04322,1.18026.14784-1.58105-.36327-3.42966-2.08631-3.87192a4.04023,4.04023,0,0,0-4.19292,1.99587,5.9133,5.9133,0,0,0,1.865,7.72222,6.10494,6.10494,0,0,0,7.87893-1.80323,5.54058,5.54058,0,0,0,.49051-5.22835c-.73472-1.78578-2.33585-2.90043-3.82662-4.01809a18.719,18.719,0,0,1-4.31692-4.38059c-1.84352-2.60944-1.9043-5.77358-1.45918-6.81665-.50658,2.22708.86684,4.48083,2.22688,6.12609a26.8729,26.8729,0,0,0,5.591,4.72329,7.67722,7.67722,0,0,1,2.60789,2.72229,10.21279,10.21279,0,0,0-1.74345-4.38872,3.64236,3.64236,0,0,0,2.25213-.05029c1.051-.5749-.17661-1.93487-.656-2.45329a4.32561,4.32561,0,0,0,3.57722-2.648c.63862-1.75616-.13842-3.674-.94864-5.2346C431.81321,240.23479,427.41484,237.89789,429.56678,234.9893Z" transform="translate(-317.27802 -171.98857)"/><path class="cls-2" d="M378.95376,270.21579a16.05742,16.05742,0,0,1-1.75192.47621l.36031,14.08743,1.28967-1.85175Zm1.84177-.71693c-.55721.252-1.13973.48151-1.7355.68189l.30708,12.007,1.34215-1.9271Zm1.84308-.92358c-.23848.11995-.47884.2433-.72211.37364-.32036.17164-.65747.336-1.00211.49466l.25959,10.14986,1.39233-1.99914Zm1.84323-.85842c-.54063.23277-1.118.49778-1.71674.79569l.217,8.48471,1.44193-2.07038Zm1.84275-.73459c-.49365.18078-1.07192.40578-1.709.677l.17251,6.74487,1.49418-2.1454Zm1.67843-.5603s-.59336.16777-1.53538.50806l.12489,4.88325,1.41049-2.02522Zm-13.33389,5.35676a5.86319,5.86319,0,0,1-3.20337-.89878c-.86118,11.21663,5.70018,17.27567,5.70018,17.27567a2.03391,2.03391,0,0,0-1.7866-.50756,2.08507,2.08507,0,0,0,.40469,4.13056,2.17237,2.17237,0,0,0,1.35856-.50223c1.53308-1.20515,3.015.30909,3.12991.43091h0C372.34391,283.41508,374.36126,273.12756,374.66913,271.77873Zm19.88749-1.24232a1.992,1.992,0,0,1-1.99053,1.99052,1.9464,1.9464,0,0,1-1.20162-.44564l-.38969.722.84154.54582-8.409,18.36192s-1.9892.00014-2.13921,0a3.0465,3.0465,0,0,1-.628-.67851L391.04777,271.781l-.0016-.00317L380.20405,290.5265a20.87969,20.87969,0,0,1-1.96751-2.80356l12.57992-18.13586a2.06728,2.06728,0,0,1,1.74963-1.041A1.99141,1.99141,0,0,1,394.55662,270.53641Zm-1.28716-4.39854v2.00134a2.501,2.501,0,0,0-2.62211.71445c-.84069,1.18887-11.83906,16.94391-12.75583,18.25721-.33647-.62123-.63325-1.24449-.895-1.86539l.11655-14.53745a7.49933,7.49933,0,0,1-5.64685-.66339v-2.53648s3.6862,2.88372,10.43815.0846,8.96459-2.47629,10.80146-1.43774c0,0-3.02661-2.42357-9.8443.54511-6.969,3.03455-10.59428.595-11.813-.4721l.017-3.49426a10.271,10.271,0,0,0,11.60594,2.47775C389.74286,262.32883,393.26946,266.13787,393.26946,266.13787Z" transform="translate(-317.27802 -171.98857)"/></svg>