<svg id="b766b46e-c6c1-4086-b8ca-c69bb074504a" data-name="Layer 1" xmlns="http://www.w3.org/2000/svg" viewBox="0 0 207.33 251.3"><defs><style>.bae09307-3587-47b6-bcbe-8e6075e5398a{fill:#e30613;}.bcb4014f-5b9b-43bf-b954-741a1fca051a{fill:#fff;}</style></defs><path class="bae09307-3587-47b6-bcbe-8e6075e5398a" d="M339.26,353.51a13.77,13.77,0,1,0-8.18,2.71,13.58,13.58,0,0,0,3.39-.44l1.51,2.16a1.16,1.16,0,0,0,1,.67h5c.38,0,.55-.3.39-.67Zm-16.32-11.08a8.18,8.18,0,1,1,13.12,6.51l-.71-1a1.16,1.16,0,0,0-1-.68h-5c-.37,0-.54.31-.39.68l1.87,2.66a8.17,8.17,0,0,1-7.89-8.16" transform="translate(-317.28 -171.99)"/><path class="bae09307-3587-47b6-bcbe-8e6075e5398a" d="M358.51,356.08c-6,0-10.58-4.37-10.58-10.16V330.11a.94.94,0,0,1,.92-.92h3.55a.92.92,0,0,1,.92.92v15.55a4.89,4.89,0,0,0,5.19,5.15,5,5,0,0,0,5.23-5.12V330.11a.92.92,0,0,1,.92-.92h3.54a.94.94,0,0,1,.92.92v15.81c0,5.79-4.56,10.16-10.61,10.16" transform="translate(-317.28 -171.99)"/><path class="bae09307-3587-47b6-bcbe-8e6075e5398a" d="M388.38,355.71H373.2a.92.92,0,0,1-.92-.92V330.11a.92.92,0,0,1,.92-.92h15.18a.92.92,0,0,1,.92.92v3.06a.92.92,0,0,1-.92.92H377.55v5.69h9a.94.94,0,0,1,.92.92v3.09a.92.92,0,0,1-.92.92h-9v6.1h10.83a.92.92,0,0,1,.92.92v3.06a.92.92,0,0,1-.92.92" transform="translate(-317.28 -171.99)"/><path class="bae09307-3587-47b6-bcbe-8e6075e5398a" d="M408.82,355.71H393.65a.92.92,0,0,1-.92-.92V330.11a.92.92,0,0,1,.92-.92h15.17a.92.92,0,0,1,.92.92v3.06a.92.92,0,0,1-.92.92H398v5.69h9a.94.94,0,0,1,.92.92v3.09a.92.92,0,0,1-.92.92h-9v6.1h10.82a.92.92,0,0,1,.92.92v3.06a.92.92,0,0,1-.92.92" transform="translate(-317.28 -171.99)"/><path class="bae09307-3587-47b6-bcbe-8e6075e5398a" d="M434.91,356.08h-.52a1.06,1.06,0,0,1-.79-.32l-15-16.53v15.56a.92.92,0,0,1-.92.92h-3.4a.94.94,0,0,1-.92-.92V329.7a.91.91,0,0,1,.92-.88h.56a1,1,0,0,1,.79.32l14.92,15.91V330.11a.92.92,0,0,1,.92-.92h3.43a.94.94,0,0,1,.92.92V355.2a.91.91,0,0,1-.92.88" transform="translate(-317.28 -171.99)"/><path class="bae09307-3587-47b6-bcbe-8e6075e5398a" d="M440.68,336.9a1,1,0,0,1-.51-.18l-1-.7c-.16-.12-.47-.46,0-1.08a7.23,7.23,0,0,0,1.7-4.12,1.9,1.9,0,0,0,0-.35,2.4,2.4,0,0,1-1,.24,2.37,2.37,0,0,1-2.35-2.63,2.77,2.77,0,0,1,2.91-2.74c1.66,0,3.32,1.34,3.32,4.33a11.37,11.37,0,0,1-2.54,7,.57.57,0,0,1-.48.27" transform="translate(-317.28 -171.99)"/><path class="bae09307-3587-47b6-bcbe-8e6075e5398a" d="M453.22,356.08a12,12,0,0,1-8.35-2.95.92.92,0,0,1-.23-1.39l1.35-2.31a1,1,0,0,1,.71-.52,1.11,1.11,0,0,1,.87.19,8.76,8.76,0,0,0,5.5,2.27,2.93,2.93,0,0,0,3.18-2.66c0-1.69-1.38-3-4.61-4.27-3.06-1.24-7.14-3.45-7.14-8.25,0-3.55,2.69-7.37,8.6-7.37a13.39,13.39,0,0,1,7.59,2.54,1,1,0,0,1,.42.65,1.13,1.13,0,0,1-.15.87L459.54,335a1.48,1.48,0,0,1-.69.58,1,1,0,0,1-.9-.07l-.28-.18c-1.5-.94-2.92-1.84-4.79-1.84-2.12,0-3.07,1.21-3.07,2.4,0,1.59,1.24,2.74,4.27,4,3.92,1.57,7.92,3.83,7.92,8.62,0,3.68-3.08,7.59-8.78,7.59" transform="translate(-317.28 -171.99)"/><path class="bae09307-3587-47b6-bcbe-8e6075e5398a" d="M364.31,392h-.52a1,1,0,0,1-.78-.33l-15-16.53V390.7a.92.92,0,0,1-.92.92H343.7a.94.94,0,0,1-.92-.92V365.61a.91.91,0,0,1,.92-.88h.56a1,1,0,0,1,.78.32L360,381V366a.92.92,0,0,1,.92-.92h3.43a.94.94,0,0,1,.92.92v25.09a.92.92,0,0,1-.92.89" transform="translate(-317.28 -171.99)"/><path class="bae09307-3587-47b6-bcbe-8e6075e5398a" d="M374.72,391.62h-3.47a.94.94,0,0,1-.92-.92V366a.94.94,0,0,1,.92-.92h3.47a.94.94,0,0,1,.92.92V390.7a.94.94,0,0,1-.92.92" transform="translate(-317.28 -171.99)"/><path class="bae09307-3587-47b6-bcbe-8e6075e5398a" d="M391.65,392h-.37a.88.88,0,0,1-.83-.53h0l-11.52-25.09a.87.87,0,0,1,0-.87.91.91,0,0,1,.79-.4h3.8a.9.9,0,0,1,.83.54l7.09,15.8,7.1-15.8a.87.87,0,0,1,.82-.54h3.81a.93.93,0,0,1,.79.4.89.89,0,0,1,0,.87l-11.55,25.09a.89.89,0,0,1-.83.54" transform="translate(-317.28 -171.99)"/><path class="bae09307-3587-47b6-bcbe-8e6075e5398a" d="M423.22,391.68H408.05a.92.92,0,0,1-.92-.92V366.08a.92.92,0,0,1,.92-.92h15.17a.92.92,0,0,1,.92.92v3.05a.93.93,0,0,1-.92.93H412.4v5.68h9a1,1,0,0,1,.92.93v3.09a.92.92,0,0,1-.92.92h-9v6.1h10.82a.92.92,0,0,1,.92.92v3.06a.92.92,0,0,1-.92.92" transform="translate(-317.28 -171.99)"/><path class="bae09307-3587-47b6-bcbe-8e6075e5398a" d="M447.27,391.68h-3.91a.86.86,0,0,1-.79-.45l-4.9-9.77h-3.79v9.3a1,1,0,0,1-.93.92h-3.43a.92.92,0,0,1-.92-.92V366.08a.92.92,0,0,1,.92-.92h10.67a8.29,8.29,0,0,1,8.34,8.22A8.39,8.39,0,0,1,443.1,381l5,9.26a1,1,0,0,1,0,1,.92.92,0,0,1-.82.44m-13.36-14.63h5.87a3.58,3.58,0,0,0,3.47-3.59,3.48,3.48,0,0,0-3.47-3.4h-5.87Z" transform="translate(-317.28 -171.99)"/><path class="bae09307-3587-47b6-bcbe-8e6075e5398a" d="M460.31,392.05a11.89,11.89,0,0,1-8.34-3c-.44-.35-.62-.69-.23-1.38l1.34-2.32a1.06,1.06,0,0,1,.71-.51,1.1,1.1,0,0,1,.87.19,8.76,8.76,0,0,0,5.5,2.27,2.92,2.92,0,0,0,3.18-2.66c0-1.69-1.37-3-4.6-4.28-3.06-1.23-7.14-3.44-7.14-8.25,0-3.55,2.69-7.37,8.6-7.37a13.42,13.42,0,0,1,7.58,2.54,1,1,0,0,1,.43.66,1.13,1.13,0,0,1-.15.87L466.64,371a1.66,1.66,0,0,1-.69.58,1,1,0,0,1-.91-.08l-.27-.17a8.8,8.8,0,0,0-4.79-1.84c-2.12,0-3.07,1.2-3.07,2.4,0,1.59,1.24,2.74,4.27,4,3.91,1.58,7.92,3.84,7.92,8.63,0,3.68-3.08,7.59-8.79,7.59" transform="translate(-317.28 -171.99)"/><path class="bae09307-3587-47b6-bcbe-8e6075e5398a" d="M478,391.68h-3.47a.94.94,0,0,1-.92-.92V366.08a.94.94,0,0,1,.92-.92H478a.94.94,0,0,1,.92.92v24.68a.94.94,0,0,1-.92.92" transform="translate(-317.28 -171.99)"/><path class="bae09307-3587-47b6-bcbe-8e6075e5398a" d="M492.53,391.62h-3.47a.94.94,0,0,1-.92-.92V370h-5.49a.92.92,0,0,1-.92-.92V366a.92.92,0,0,1,.92-.92h16.29a.93.93,0,0,1,.93.92v3.06a.93.93,0,0,1-.93.92h-5.49v20.7a.94.94,0,0,1-.92.92" transform="translate(-317.28 -171.99)"/><path class="bae09307-3587-47b6-bcbe-8e6075e5398a" d="M515,391.62h-3.43a.92.92,0,0,1-.92-.92V378.91l-8.46-12.4a.91.91,0,0,1,0-.95.89.89,0,0,1,.81-.46h3.8a.94.94,0,0,1,.77.42l5.79,8.33,5.79-8.32a.94.94,0,0,1,.78-.43h3.84a.9.9,0,0,1,.81.46.93.93,0,0,1,0,.95l-8.58,12.37V390.7a.94.94,0,0,1-.92.92" transform="translate(-317.28 -171.99)"/><path class="bae09307-3587-47b6-bcbe-8e6075e5398a" d="M327.84,392.05c-6,0-10.54-4.35-10.54-10.13V366.09a.89.89,0,0,1,.87-.87h3.55a.87.87,0,0,1,.87.87v15.57a5,5,0,0,0,5.25,5.22,5,5,0,0,0,5.3-5.18V366.09a.87.87,0,0,1,.87-.87h3.54a.88.88,0,0,1,.87.87v15.83c0,5.78-4.55,10.13-10.58,10.13" transform="translate(-317.28 -171.99)"/><path class="bae09307-3587-47b6-bcbe-8e6075e5398a" d="M329.72,410.4a6.06,6.06,0,0,0,3.4-5.55c0-3.69-3.05-6.5-7.3-6.5H318a.66.66,0,0,0-.67.66v23.26a.67.67,0,0,0,.67.67h8.25c4.43,0,7.66-2.85,7.66-6.78a5.94,5.94,0,0,0-4.14-5.69ZM320.86,409v-7.38h4.6a3.42,3.42,0,0,1,3.76,3.62,3.58,3.58,0,0,1-3.76,3.76Zm0,10.68v-7.52h5.48a3.59,3.59,0,0,1,3.65,3.69,3.49,3.49,0,0,1-3.65,3.83Z" transform="translate(-317.28 -171.99)"/><path class="bae09307-3587-47b6-bcbe-8e6075e5398a" d="M336.63,422.27a.67.67,0,0,0,.66.67h14.06a.67.67,0,0,0,.66-.67v-1.93a.67.67,0,0,0-.66-.67h-11.1v-7.55h9.38a.66.66,0,0,0,.66-.67v-2a.68.68,0,0,0-.66-.66h-9.38v-7.17h11.1A.67.67,0,0,0,352,401v-2a.66.66,0,0,0-.66-.67H337.29a.66.66,0,0,0-.66.67Z" transform="translate(-317.28 -171.99)"/><path class="bae09307-3587-47b6-bcbe-8e6075e5398a" d="M355.8,422.27a.67.67,0,0,0,.67.67H369a.67.67,0,0,0,.67-.67v-1.93a.67.67,0,0,0-.67-.67h-9.52V399a.68.68,0,0,0-.66-.67h-2.32a.66.66,0,0,0-.67.67Z" transform="translate(-317.28 -171.99)"/><path class="bae09307-3587-47b6-bcbe-8e6075e5398a" d="M372.34,422.27a.67.67,0,0,0,.66.67h2.29a.7.7,0,0,0,.67-.67V413h9.38a.68.68,0,0,0,.66-.66v-1.94a.68.68,0,0,0-.66-.66H376v-8.12h11.1a.67.67,0,0,0,.66-.67v-2a.66.66,0,0,0-.66-.67H373a.66.66,0,0,0-.66.67Z" transform="translate(-317.28 -171.99)"/><path class="bae09307-3587-47b6-bcbe-8e6075e5398a" d="M387.05,422.94h2.21a.89.89,0,0,0,.81-.53l2.14-4.81H403.7l2.18,4.81a.81.81,0,0,0,.81.53h2.21a.62.62,0,0,0,.6-.91l-10.72-23.65a.8.8,0,0,0-.6-.38h-.35a.8.8,0,0,0-.59.38L386.45,422a.62.62,0,0,0,.6.91m6.53-8.36,4.29-9.63H398l4.32,9.63Z" transform="translate(-317.28 -171.99)"/><path class="bae09307-3587-47b6-bcbe-8e6075e5398a" d="M412.09,420.52a11.42,11.42,0,0,0,7.55,2.77c4.57,0,7.84-3,7.84-6.64,0-4.28-3.48-6.22-7.56-7.87-2.91-1.19-4.46-2.42-4.46-4.42,0-1.3,1-3.17,4-3.17a8.23,8.23,0,0,1,4.74,1.76.82.82,0,0,0,1.23-.35l.88-1.34a.83.83,0,0,0-.21-1.19,11.88,11.88,0,0,0-6.5-2.07c-5.58,0-7.69,3.76-7.69,6.5,0,4.07,2.81,5.93,6.39,7.44s5.31,2.78,5.31,4.89c0,1.79-1.55,3.26-4,3.26-2.71,0-4-1-5.62-2.42a.79.79,0,0,0-1.2.28l-.91,1.44c-.39.6-.11.84.21,1.13" transform="translate(-317.28 -171.99)"/><path class="bae09307-3587-47b6-bcbe-8e6075e5398a" d="M435.2,422.27a.69.69,0,0,0,.66.67h2.32a.7.7,0,0,0,.67-.67V401.65h5.73a.67.67,0,0,0,.66-.67v-2a.66.66,0,0,0-.66-.67H429.47a.66.66,0,0,0-.67.67v2a.67.67,0,0,0,.67.67h5.73Z" transform="translate(-317.28 -171.99)"/><path class="bae09307-3587-47b6-bcbe-8e6075e5398a" d="M317.39,172v80.15a63.47,63.47,0,1,0,126.93,0V172Z" transform="translate(-317.28 -171.99)"/><path class="bcb4014f-5b9b-43bf-b954-741a1fca051a" d="M437.35,179H426.13l-45.28,45.28h0L335.57,179H324.36v12.81l44.48,44.48-39.36,39.37A55.82,55.82,0,0,0,339,290.08l41.81-41.82h0l41.82,41.82a56.08,56.08,0,0,0,9.56-14.46l-39.36-39.37,44.48-44.48Z" transform="translate(-317.28 -171.99)"/><path class="bae09307-3587-47b6-bcbe-8e6075e5398a" d="M391.37,233.53c-1.69-1.23-3.24,1.52-3.24,1.52-1.07-1.44-2.09.12-2.09.12,1.43,1,1.31,3.32-1.41,2.73a3.67,3.67,0,0,1-3-2.93l2,.74v-3.38l-1.94.72.65-2.37h-3.05l.65,2.37-1.95-.72v3.38l2-.74a3.69,3.69,0,0,1-3,2.93c-2.71.59-2.84-1.73-1.4-2.73,0,0-1-1.56-2.09-.12,0,0-1.55-2.75-3.25-1.52,0,0,2.39,2.95,2.69,10.82,0,0,2.25-1.45,7.85-1.39s7.86,1.39,7.86,1.39c.29-7.87,2.68-10.82,2.68-10.82" transform="translate(-317.28 -171.99)"/><path class="bae09307-3587-47b6-bcbe-8e6075e5398a" d="M371.77,232.14a3,3,0,0,1,.5.17,9.48,9.48,0,0,1,17.17,0,3,3,0,0,1,.5-.17,2.5,2.5,0,0,1,1.55.16,11.37,11.37,0,0,0-8.88-7.2l-1.76,1.75h0l-1.75-1.75a11.37,11.37,0,0,0-8.88,7.2A2.5,2.5,0,0,1,371.77,232.14Z" transform="translate(-317.28 -171.99)"/><path class="bae09307-3587-47b6-bcbe-8e6075e5398a" d="M380.83,245.29h0l2.13,2.13c2.87-.21,5-.81,5-1.53,0-.89-3.17-1.6-7.08-1.6s-7.08.71-7.08,1.6c0,.72,2.08,1.32,4.95,1.53l2.13-2.13Z" transform="translate(-317.28 -171.99)"/><path class="bcb4014f-5b9b-43bf-b954-741a1fca051a" d="M394.66,181.35a2,2,0,0,1,2,2v21.34H383.06a2.32,2.32,0,0,1-2.2,1.6h0a2.32,2.32,0,0,1-2.2-1.6H365.09V183.31a2,2,0,0,1,2-2V202.7h11.67a2.18,2.18,0,0,1,2.13,1.94A2.19,2.19,0,0,1,383,202.7h11.67V181.35m-7.46-.91c2.24,1.76,5.47.91,5.47.91v19.41s-3.23.84-5.47-.92-6.29-.29-6.34,1.79v0h0v0c-.05-2.08-4.11-3.54-6.34-1.79s-5.47.92-5.47.92V181.35s3.23.85,5.47-.91,6.32-.28,6.34,1.81c0-2.09,4.11-3.57,6.35-1.81M378,194.12a4.38,4.38,0,0,0-3.42.45,5.33,5.33,0,0,1-3.11.86v1.39a5.21,5.21,0,0,0,3.11-.85,4.38,4.38,0,0,1,3.42-.45Zm0-5.21a4.34,4.34,0,0,0-3.42.45,5.21,5.21,0,0,1-3.11.85v1.4a5.33,5.33,0,0,0,3.11-.86,4.38,4.38,0,0,1,3.42-.45Zm0-5.22a4.38,4.38,0,0,0-3.42.45,5.21,5.21,0,0,1-3.11.85v1.4a5.21,5.21,0,0,0,3.11-.85,4.34,4.34,0,0,1,3.42-.45Zm12.28,11.74a5.33,5.33,0,0,1-3.11-.86,4.38,4.38,0,0,0-3.42-.45v1.4a4.38,4.38,0,0,1,3.42.45,5.21,5.21,0,0,0,3.11.85Zm0-5.22a5.21,5.21,0,0,1-3.11-.85,4.34,4.34,0,0,0-3.42-.45v1.39a4.38,4.38,0,0,1,3.42.45,5.33,5.33,0,0,0,3.11.86Zm0-5.22a5.21,5.21,0,0,1-3.11-.85,4.38,4.38,0,0,0-3.42-.45v1.4a4.34,4.34,0,0,1,3.42.45,5.21,5.21,0,0,0,3.11.85Z" transform="translate(-317.28 -171.99)"/><path class="bcb4014f-5b9b-43bf-b954-741a1fca051a" d="M359.75,295.26a.16.16,0,0,1,.16-.16h3.57a.17.17,0,0,1,.17.16V296a.17.17,0,0,1-.17.17h-2.59v1.44h2.16a.17.17,0,0,1,.17.16v.73a.17.17,0,0,1-.17.17h-2.16v1.53h2.59a.17.17,0,0,1,.17.17v.72a.16.16,0,0,1-.17.16h-3.57a.16.16,0,0,1-.16-.16Zm6,5.38a2.78,2.78,0,0,0,1.92.68,1.85,1.85,0,0,0,2-1.73c0-1.14-1-1.64-1.83-2s-1-.57-1-1a.7.7,0,0,1,.78-.61,2.9,2.9,0,0,1,1.21.48.24.24,0,0,0,.31-.1l.34-.51a.21.21,0,0,0-.06-.28,3,3,0,0,0-1.75-.59,1.74,1.74,0,0,0-2,1.68c0,1,.82,1.56,1.64,1.9s1.12.6,1.12,1.05a.73.73,0,0,1-.8.67,2.83,2.83,0,0,1-1.32-.54.21.21,0,0,0-.3.06l-.32.55c-.08.14,0,.18.05.26m7,.43a.16.16,0,0,0,.16.16h.82a.17.17,0,0,0,.17-.16v-4.92h1.34a.17.17,0,0,0,.17-.17v-.72a.17.17,0,0,0-.17-.16h-3.83a.17.17,0,0,0-.17.16V296a.17.17,0,0,0,.17.17h1.34Zm10.34,0a.16.16,0,0,0,.17.16H384a.16.16,0,0,0,.16-.16v-5.63a.17.17,0,0,0-.16-.17h-.61l-1.26,1.06a.21.21,0,0,0,0,.16l.06.43a.13.13,0,0,0,.17.11l.77-.16Zm3.12-1.43a2,2,0,0,1,1.06-1.47v0a1.66,1.66,0,0,1-.91-1.36,1.95,1.95,0,0,1,3.84,0,1.68,1.68,0,0,1-.9,1.35v0a1.8,1.8,0,0,1,1.06,1.47c0,.95-.81,1.68-2.1,1.68s-2-.73-2-1.68m2.07-2c.55-.13.8-.46.8-.84a.77.77,0,0,0-.82-.74.76.76,0,0,0-.78.74c0,.4.25.7.8.84m-.91,1.95a.86.86,0,0,0,.91.81.85.85,0,0,0,.91-.81,1,1,0,0,0-.91-.93,1,1,0,0,0-.91.93M392,300a.16.16,0,0,1-.17-.16v-.73l3.16-3.84a.17.17,0,0,1,.13-.05h.48a.16.16,0,0,1,.16.16v3.74h.7a.16.16,0,0,1,.17.16v.54a.17.17,0,0,1-.17.17h-.7v1.12a.18.18,0,0,1-.17.17h-.72a.18.18,0,0,1-.17-.17V300H392m2.74-.91V297l-1.75,2.1Zm3.4,1.55a2.26,2.26,0,0,0,1.73.72,2,2,0,0,0,2.12-2,1.86,1.86,0,0,0-2-1.94h-.75V296.2h1.95a.17.17,0,0,0,.16-.17v-.59a.17.17,0,0,0-.16-.17h-2.78a.17.17,0,0,0-.16.17V298a.28.28,0,0,0,.27.3h1.35a1,1,0,0,1,1.06,1,1,1,0,0,1-1,1,2,2,0,0,1-1.13-.49.14.14,0,0,0-.21,0l-.44.43c-.1.1-.09.16,0,.3m-20.83-.05a.7.7,0,1,0,.69-.69.69.69,0,0,0-.69.69m.94-1.34a2.07,2.07,0,1,0,0-4.13H376.9a.23.23,0,0,0-.22.23V299a.22.22,0,0,0,.22.22h1.32m-.59-3.22h.52a1.16,1.16,0,0,1,0,2.31h-.52Z" transform="translate(-317.28 -171.99)"/><path class="bcb4014f-5b9b-43bf-b954-741a1fca051a" d="M349.41,227.42a1.84,1.84,0,0,0-3.68,0v8.69s-5.08-.59-7.93,5.51c0,0,2.07-6.54,6.89-6.68,0,0,0-16.23,0-16.25a1.66,1.66,0,0,0-3.31,0v11.85s1.1.21,1.37.29c0,0-.94-.08-1.37-.1s-.65,0-1,0v-14a1.66,1.66,0,0,0-3.31,0V231l-.94.1v-11.4a1.52,1.52,0,0,0-1.51-1.51,1.5,1.5,0,0,0-1.49,1.51v11.9c-1.32.23-2.24.43-2.38.47q.7-.32,1.41-.57V224.4a1.25,1.25,0,0,0-1.25-1.25,1.22,1.22,0,0,0-1.21,1.25v15c.13,3.45,1.09,10,6.7,9.94a4.09,4.09,0,0,1-3.05-.28,6.38,6.38,0,0,1,0,1.47,5,5,0,0,0,.34,2.59h10.07s-1.37-3.41,1.85-7.95c0,0,3.77-5.27,3.77-9.11Zm-16,12.2c5.29-8.83,10.17-6.21,10.17-6.21C337.89,233,333.94,238.83,333.42,239.62Z" transform="translate(-317.28 -171.99)"/><path class="bcb4014f-5b9b-43bf-b954-741a1fca051a" d="M420.83,226.73s3.53.33,4-3c0,0,.19,3.59,3.54,1.68,0,0-.32,3.66,3.17,1.94,0,0-.77,3,1.93,2.6,0,0,6.77-16-11.29-12.39,0,0,4.74-3.52,10-.66,0,0-4.68-6.87-15.07-.83,0,0,2.17,1.13,1.2,3.19a6.43,6.43,0,0,0-1.79,2.06c-.5,1.12-.07,4.41-4.25,4.61,0,0-.67,2.07,2.17,2.87.53.15.64,0,1.95-1.05S420.8,226.73,420.83,226.73ZM417.91,222c.34-.63,1.51.42,1.51.42s-.2,0-.89.42S417.56,222.67,417.91,222Z" transform="translate(-317.28 -171.99)"/><path class="bcb4014f-5b9b-43bf-b954-741a1fca051a" d="M429.57,235c.35-.48,1.89-1.88,1.59-2.31-1.14-1.63-4.84-5.32-7.65-4.1-.93.41-2.32,1.16-2.83,1.38a8.12,8.12,0,0,0-4.47,4.11c-1.85,4.17,1.35,7.91,4.4,10.41,1.59,1.3,3.25,2.51,4.83,3.83,1.16,1,2.62,2.57,2.05,4.23s-2.73,2.57-3.89,1a1.68,1.68,0,0,1,.23-2.41c.87-.55,1.83.36,2,1.18.15-1.59-.36-3.43-2.08-3.88a4,4,0,0,0-4.19,2,5.91,5.91,0,0,0,1.86,7.72,6.11,6.11,0,0,0,7.88-1.8,5.53,5.53,0,0,0,.49-5.23c-.74-1.79-2.34-2.9-3.83-4a18.49,18.49,0,0,1-4.31-4.38c-1.85-2.61-1.91-5.77-1.46-6.82-.51,2.23.86,4.49,2.22,6.13a26.87,26.87,0,0,0,5.59,4.72,7.67,7.67,0,0,1,2.61,2.73,10.17,10.17,0,0,0-1.74-4.39,3.67,3.67,0,0,0,2.25-.05c1-.58-.18-1.94-.65-2.46a4.3,4.3,0,0,0,3.57-2.64c.64-1.76-.14-3.68-.95-5.24C431.81,240.23,427.41,237.9,429.57,235Z" transform="translate(-317.28 -171.99)"/><path class="bcb4014f-5b9b-43bf-b954-741a1fca051a" d="M379,270.22a15,15,0,0,1-1.75.47l.36,14.09,1.29-1.85Zm1.85-.72c-.56.25-1.14.48-1.74.68l.31,12,1.34-1.93Zm1.84-.92-.72.37c-.32.17-.66.33-1,.49l.26,10.15,1.4-2Zm1.84-.86c-.54.23-1.12.49-1.71.79L383,277l1.44-2.07Zm1.84-.74c-.49.18-1.07.41-1.7.68l.17,6.74,1.49-2.14Zm1.68-.56s-.59.17-1.53.51l.12,4.88,1.41-2Zm-13.33,5.36a5.85,5.85,0,0,1-3.2-.9c-.87,11.22,5.7,17.28,5.7,17.28a2,2,0,0,0-1.79-.51,2.1,2.1,0,0,0-1.67,1.84,2.08,2.08,0,0,0,2.07,2.29,2.16,2.16,0,0,0,1.36-.5c1.54-1.21,3,.31,3.13.43h0C372.34,283.42,374.36,273.13,374.67,271.78Zm19.89-1.24a2,2,0,0,1-3.2,1.54l-.39.72.85.55-8.41,18.36h-2.14a2.88,2.88,0,0,1-.63-.68l10.41-19.25h0L380.2,290.53a20.68,20.68,0,0,1-2-2.81l12.58-18.13a2.06,2.06,0,0,1,1.75-1A2,2,0,0,1,394.56,270.54Zm-1.29-4.4v2a2.49,2.49,0,0,0-2.62.71c-.84,1.19-11.84,16.95-12.76,18.26-.33-.62-.63-1.24-.89-1.86l.11-14.54a7.46,7.46,0,0,1-5.64-.67v-2.53s3.68,2.88,10.43.08,9-2.47,10.81-1.43c0,0-3-2.43-9.85.54-7,3-10.59.6-11.81-.47l0-3.5a10.26,10.26,0,0,0,11.6,2.48C389.74,262.33,393.27,266.14,393.27,266.14Z" transform="translate(-317.28 -171.99)"/></svg>