<svg id="Layer_1" enable-background="new 0 0 512 512" height="512" viewBox="0 0 512 512" width="512" xmlns="http://www.w3.org/2000/svg"><g><path d="m427.604 446.55s-1.58 28.22-4.78 51.14l-31.25 1.53-132.6 6.47-177.37-8c-1.23-8.82-7.23-18.43-7.98-26.91-1.2-13.55 3.2-24.23 3.2-24.23z" fill="#fff"/><path d="m427.604 446.55s-1.58 28.22-4.78 51.14l-31.25 1.53c2.72-20.98 4.33-44.43 4.85-52.67z" fill="#f4f1e1"/><path d="m451.854 444.04c.18 3.96-2.74 7.38-6.67 7.82-.26.03-8.76.95-23.54 2.21-31.77 2.69-92.52 6.88-162.67 6.88-52.41 0-100.18-2.31-134.53-4.59l-40.03-225.89 39.96-225.74c33.83-2.33 81.531-4.73 134.6-4.73 69.41 0 129.63 4.11 161.66 6.8 15.4 1.29 24.28 2.26 24.55 2.29 3.94.44 6.86 3.87 6.66 7.83-.1 2.09-10.27 211.57.01 427.12z" fill="#c5ef7b"/><path d="m376.824 175.15c-1.42 1.49-3.39 2.32-5.43 2.32-.19 0-.39 0-.59-.02-6.74-.53-13.6-1-20.53-1.4-74.25-4.32-155.35-1.61-156.24-1.58-3.72.13-6.97-2.49-7.64-6.15-5.75-31.48-.24-62.39 0-63.69.64-3.47 3.6-6.03 7.12-6.15.89-.03 81.17-2.71 155.6 1.48 7.72.44 15.37.95 22.87 1.54 2.07.16 3.98 1.17 5.27 2.79 1.3 1.62 1.86 3.71 1.56 5.76-.03.27-3.92 28.01.02 58.98.29 2.24-.45 4.49-2.01 6.12z" fill="#fff"/><path d="m444.194 502.91c-.81.09-82.45 9.09-185.22 9.09-102.78 0-185.39-9-186.22-9.09-3.65-.4-6.47-3.39-6.66-7.06-.93-17.43-1.66-33.04-2.38-51.05-9.21-228.88 2.26-426.73 2.38-428.7.22-3.65 3.03-6.61 6.66-7.01.4-.05 19.92-2.17 51.62-4.36-2.28 43.42-11.17 238.24.07 451.63-20.58-1.37-36.34-2.73-45.39-3.57.51 12.07 1.07 24.07 1.68 35.86 21.11 2.06 92.59 8.35 178.24 8.35 101.95 0 182.75-8.91 183.55-9 4.11-.46 7.83 2.51 8.29 6.62.46 4.12-2.51 7.83-6.62 8.29z" fill="#8389aa"/><g fill="#81e276"><path d="m371.989 255.532c-79.793-6.323-177.497-3.053-178.474-3.019-4.14.143-7.38 3.615-7.237 7.754.144 4.14 3.643 7.372 7.754 7.237.97-.033 97.819-3.275 176.772 2.981.202.016.402.024.601.024 3.873 0 7.157-2.98 7.468-6.908.327-4.129-2.755-7.742-6.884-8.069z"/><path d="m222.749 312.247c.038 0 .076 0 .113-.001 30.03-.442 75.08-.495 119.172 1.77.131.007.261.01.391.01 3.965 0 7.278-3.11 7.484-7.115.212-4.137-2.969-7.663-7.105-7.875-44.501-2.285-89.907-2.233-120.163-1.787-4.142.061-7.45 3.468-7.389 7.609.061 4.104 3.406 7.389 7.497 7.389z"/><path d="m186.278 350.653c.143 4.139 3.593 7.371 7.754 7.237.755-.026 76.238-2.56 148.012 1.126.131.007.261.01.391.01 3.965 0 7.278-3.11 7.484-7.115.212-4.137-2.969-7.663-7.105-7.875-72.438-3.721-148.54-1.163-149.299-1.137-4.14.143-7.38 3.615-7.237 7.754z"/><path d="m371.392 345.895c-4.143 0-7.501 3.358-7.501 7.501s3.358 7.501 7.501 7.501 7.501-3.358 7.501-7.501c0-4.142-3.358-7.501-7.501-7.501z"/></g><path d="m451.854 444.04c.18 3.96-2.74 7.38-6.67 7.82-.26.03-8.76.95-23.54 2.21-.01-.16-.03-.32-.04-.48-17.12-214.64-4.7-399.95-.97-446.79 15.4 1.29 24.28 2.26 24.55 2.29 3.94.44 6.86 3.87 6.66 7.83-.1 2.09-10.27 211.57.01 427.12z" fill="#81e276"/><path d="m376.824 175.15c-1.42 1.49-3.39 2.32-5.43 2.32-.19 0-.39 0-.59-.02-6.74-.53-13.6-1-20.53-1.4-5.71-31.37-3.5-59.69-1.16-76.09 7.72.44 15.37.95 22.87 1.54 2.07.16 3.98 1.17 5.27 2.79 1.3 1.62 1.86 3.71 1.56 5.76-.03.27-3.92 28.01.02 58.98.29 2.24-.45 4.49-2.01 6.12z" fill="#f4f1e1"/></g></svg>