<svg id="Layer_1" enable-background="new 0 0 512 512" height="512" viewBox="0 0 512 512" width="512" xmlns="http://www.w3.org/2000/svg"><g><g><g><path d="m392.234 499.12c-.19 3.78-3.17 6.82-6.93 7.09-.26.02-9.26.68-24.31 1.55-29.78 1.71-83.23 4.24-139.48 4.24-84.67 0-163-5.73-163.79-5.79-3.76-.27-6.74-3.31-6.93-7.09-.42-8.21-.82-16.4-1.18-24.57-10.89-241.27 1.05-459.46 1.18-461.71.21-3.76 3.18-6.78 6.93-7.05.46-.04 27.51-2.01 66.86-3.65l95.62 31.17 95.61-31.28c18.07.74 33.68 1.55 45.51 2.24 14.85.85 23.72 1.5 23.98 1.52 3.75.27 6.72 3.29 6.93 7.05.13 2.33 12.89 235.46 0 486.28z" fill="#99f8ff"/><path d="m315.814 2.03c-.44 14.45-1 37.19-1.72 51.12-.19 3.77-3.16 6.81-6.93 7.09-.22.02-11.25.82-28.02 1.61-15.93.74-37.04 1.46-58.94 1.46-44.95 0-86.54-3.04-86.96-3.07-3.77-.28-6.74-3.32-6.93-7.09-.72-13.89-1.27-36.59-1.73-51.01 27.84-1.16 61.84-2.14 96.93-2.14 20.55 0 40.72.34 59.5.85 12.29.33 23.98.74 34.8 1.18z" fill="#8389aa"/><g fill="#92d3f7"><path d="m282.693 455.03c-.224-4.136-3.78-7.313-7.893-7.085-.261.014-26.38 1.407-54.596 1.407s-54.335-1.393-54.596-1.407c-4.144-.222-7.67 2.949-7.893 7.085-.224 4.136 2.948 7.67 7.084 7.894.265.014 26.769 1.428 55.405 1.428s55.14-1.414 55.405-1.428c4.136-.224 7.308-3.758 7.084-7.894z"/><path d="m392.234 499.12c-.19 3.78-3.17 6.82-6.93 7.09-.26.02-9.26.68-24.31 1.55 11.7-243.12 1.98-456.17.33-503.49 14.85.85 23.72 1.5 23.98 1.52 3.75.27 6.72 3.29 6.93 7.05.13 2.33 12.89 235.46 0 486.28z"/></g></g><path d="m315.814 2.03c-.44 14.45-1 37.19-1.72 51.12-.19 3.77-3.16 6.81-6.93 7.09-.22.02-11.25.82-28.02 1.61 1.96-21.07 2.24-44.21 1.87-61 12.29.33 23.98.74 34.8 1.18z" fill="#646d91"/><g><path d="m466.964 256.23c0 77.09-57.62 140.98-132.05 150.87-6.6.88-13.32 1.33-20.15 1.33-26.44 0-52.34-6.85-75.17-19.83-36.16 15.4-64.67 17.12-65.91 17.19-2.13.1-4.21-.68-5.71-2.19-1.51-1.51-2.3-3.59-2.19-5.72.07-1.22 1.79-29.53 17.21-65.44-13.38-23.09-20.43-49.35-20.43-76.21 0-83.93 68.27-152.2 152.2-152.2 4.48 0 8.91.19 13.29.57 77.72 6.76 138.91 72.18 138.91 151.63z" fill="#c7cde0"/><path d="m466.964 256.23c0 77.09-57.62 140.98-132.05 150.87 59.44-23.88 101.51-82.1 101.51-149.97 0-70.44-45.34-130.51-108.37-152.53 77.72 6.76 138.91 72.18 138.91 151.63z" fill="#b1accc"/></g></g><path d="m412.876 255.85c0 54.1-44.01 98.12-98.11 98.12-5.1 0-10.11-.39-15-1.14-47.01-7.25-83.12-47.98-83.12-96.98s36.11-89.73 83.12-96.98c4.89-.75 9.9-1.14 15-1.14 54.1 0 98.11 44.02 98.11 98.12z" fill="#fff"/><path d="m412.876 255.85c0 54.1-44.01 98.12-98.11 98.12-5.1 0-10.11-.39-15-1.14 47.01-7.25 83.11-47.98 83.11-96.98s-36.1-89.73-83.11-96.98c4.89-.75 9.9-1.14 15-1.14 54.1 0 98.11 44.02 98.11 98.12z" fill="#f4f1e1"/><path d="m357.464 248.35h-35.2v-35.2c0-4.142-3.358-7.5-7.5-7.5s-7.5 3.358-7.5 7.5v42.7c0 4.142 3.358 7.5 7.5 7.5h42.7c4.142 0 7.5-3.358 7.5-7.5s-3.358-7.5-7.5-7.5z" fill="#8389aa"/></g></svg>