<svg id="Layer_1" enable-background="new 0 0 512 512" height="512" viewBox="0 0 512 512" width="512" xmlns="http://www.w3.org/2000/svg"><g><path d="m478.622 94.98c-.18 1.98-17.99 200.58-59.67 410.98-.7 3.53-3.8 6.04-7.35 6.04-.18 0-.36-.01-.53-.02-.26-.02-10.54-.75-27.23-2.25-26.23-2.35-68.28-6.6-112.07-12.94-40.78-5.91-79.32-13.09-104.47-18.07-2.26-.45-4.19-1.9-5.23-3.96-1.05-2.05-1.09-4.46-.12-6.55l185.12-398.9c1.41-3.03 4.66-4.77 7.97-4.25 35.83 5.63 68.68 11.88 90.51 16.27 16.72 3.36 26.99 5.62 27.22 5.67 3.68.81 6.18 4.23 5.85 7.98z" fill="#8389aa"/><path d="m358.842 466.61c-.19 3.77-3.17 6.81-6.94 7.09-.28.02-11.8.86-30.48 1.88-28.79 1.56-74.62 3.53-122.64 3.53-79.15 0-152.38-5.35-153.12-5.41-3.76-.28-6.74-3.32-6.93-7.09-12.05-234.24-.12-451.97 0-454.15.21-3.76 3.18-6.78 6.93-7.06.74-.05 73.97-5.4 153.12-5.4 47.87 0 93.57 1.96 122.38 3.51 18.83 1.02 30.46 1.87 30.74 1.89 3.76.28 6.73 3.3 6.94 7.06.12 2.18 12.049 219.91 0 454.15z" fill="#f4f1e1"/><path d="m358.842 466.61c-.19 3.77-3.17 6.81-6.94 7.09-.28.02-11.8.86-30.48 1.88 11.58-256.06 1.39-444.42-.26-472.07 18.83 1.02 30.46 1.87 30.74 1.89 3.76.28 6.73 3.3 6.94 7.06.12 2.18 12.049 219.91 0 454.15z" fill="#f4e5cb"/><g><g><g fill="#ff7878"><path d="m102.181 107.105c5.432-.065 14.417-.127 23.997-.006 1.369 4.281 2.668 8.684 3.836 13.129.885 3.367 3.923 5.596 7.249 5.596.631 0 1.272-.081 1.911-.248 4.006-1.053 6.4-5.154 5.348-9.16-8.458-32.184-23.023-61.371-23.64-62.597-1.272-2.535-3.866-4.135-6.702-4.135s-5.43 1.6-6.702 4.135c-.616 1.227-15.183 30.414-23.641 62.597-1.053 4.006 1.342 8.107 5.348 9.16 4.004 1.051 8.107-1.341 9.16-5.348 1.168-4.44 2.467-8.841 3.836-13.123zm12.002-31.882c2.055 4.785 4.4 10.512 6.763 16.827-4.99-.031-9.649-.02-13.531.007 2.365-6.316 4.712-12.046 6.768-16.834z"/><path d="m313.734 420.016c-8.458-32.184-23.024-61.371-23.641-62.597-1.272-2.535-3.866-4.135-6.702-4.135s-5.43 1.6-6.702 4.135c-.616 1.227-15.182 30.414-23.64 62.597-1.053 4.006 1.342 8.107 5.348 9.16 4.006 1.051 8.107-1.341 9.16-5.348 1.167-4.44 2.466-8.841 3.836-13.123 5.432-.065 14.416-.127 23.996-.006 1.37 4.283 2.67 8.686 3.838 13.129.885 3.367 3.923 5.596 7.249 5.596.631 0 1.272-.081 1.911-.248 4.005-1.053 6.399-5.154 5.347-9.16zm-37.108-24.359c2.364-6.314 4.709-12.042 6.765-16.83 2.055 4.786 4.4 10.512 6.763 16.824-4.989-.032-9.648-.021-13.528.006z"/><path d="m300.942 210.95c0 82.01-100.57 109.87-102.14 110.3-.01 0-.01 0-.02.01 0 0-102.15-27.65-102.15-110.31 0-74.19 102.15-64.48 102.15-8.86 0-25.73 21.87-41.64 45.38-43.95 27.29-2.69 56.78 12.95 56.78 52.81z"/></g><path d="m300.942 210.95c0 82.01-100.57 109.87-102.14 110.3 31.49-25.02 65.14-63.78 65.14-114.96 0-22.34-7.97-38.14-19.78-48.15 27.29-2.69 56.78 12.95 56.78 52.81z" fill="#e84680"/></g></g><path d="m478.622 94.98c-.18 1.98-17.99 200.58-59.67 410.98-.7 3.53-3.8 6.04-7.35 6.04-.18 0-.36-.01-.53-.02-.26-.02-10.54-.75-27.23-2.25 34.25-206.19 55.96-380.68 61.71-428.4 16.72 3.36 26.99 5.62 27.22 5.67 3.68.81 6.18 4.23 5.85 7.98z" fill="#646d91"/></g></svg>