<svg id="Layer_1" enable-background="new 0 0 512 512" height="512" viewBox="0 0 512 512" width="512" xmlns="http://www.w3.org/2000/svg"><g><path d="m507.26 118.39c-6.55 37.65-19.77 75.64-39.3 112.91-24.31 46.4-58.52 91.81-101.69 134.97-43.16 43.17-88.57 77.38-134.97 101.69-37.27 19.53-75.26 32.75-112.91 39.3-20.24 3.52-38.16 4.74-53.27 4.74-33.1 0-52.76-5.85-53.93-6.21-2.38-.73-4.25-2.6-4.98-4.98-.52-1.71-12.7-42.63-1.47-107.2 6.55-37.65 19.77-75.64 39.3-112.91 24.31-46.4 58.52-91.81 101.69-134.97 43.16-43.17 88.57-77.38 134.97-101.69 37.27-19.53 75.26-32.75 112.91-39.3 64.57-11.23 105.49.95 107.2 1.47 2.38.73 4.25 2.6 4.98 4.98.52 1.71 12.7 42.63 1.47 107.2z" fill="#c7cde0"/><path d="m507.26 118.39c-6.55 37.65-19.77 75.64-39.3 112.91-24.31 46.4-58.52 91.81-101.69 134.97-43.16 43.17-88.57 77.38-134.97 101.69-37.27 19.53-75.26 32.75-112.91 39.3-20.24 3.52-38.16 4.74-53.27 4.74-33.1 0-52.76-5.85-53.93-6.21 452.99-101.75 494.6-494.6 494.6-494.6.52 1.71 12.7 42.63 1.47 107.2z" fill="#b1accc"/><path d="m336.219 204.955c-.314-22.838-12.466-35.586-14.036-37.138-1.552-1.57-14.3-13.722-37.138-14.036-26.571-.361-55.449 14.894-85.909 45.354s-45.719 59.364-45.354 85.909c.314 22.838 12.466 35.586 14.036 37.138 1.552 1.57 14.3 13.722 37.138 14.036.312.004.62.006.932.006 26.289-.001 54.874-15.258 84.978-45.361 30.458-30.459 45.717-59.362 45.353-85.908z" fill="#8389aa"/><g fill="#b1accc"><path d="m158.046 395.976c-35.109-28.087-63.738-63.667-64.022-64.023-2.588-3.233-7.307-3.757-10.542-1.169-3.234 2.588-3.758 7.307-1.171 10.541 1.204 1.505 29.914 37.205 66.365 66.365 1.383 1.106 3.037 1.644 4.68 1.644 2.2 0 4.38-.964 5.861-2.815 2.589-3.236 2.064-7.956-1.171-10.543z"/><path d="m105.342 417.526c-17.951-14.361-32.644-32.589-32.868-32.869-2.588-3.235-7.309-3.76-10.542-1.171-3.235 2.587-3.759 7.307-1.171 10.542.639.799 15.872 19.74 35.211 35.211 1.383 1.106 3.037 1.644 4.68 1.644 2.2 0 4.38-.964 5.861-2.815 2.588-3.235 2.064-7.955-1.171-10.542z"/><path d="m341.324 82.312c-3.235-2.588-7.955-2.063-10.542 1.171-2.588 3.234-2.063 7.954 1.171 10.542.355.285 35.893 28.861 64.022 64.022 1.481 1.852 3.661 2.815 5.861 2.815 1.643 0 3.297-.538 4.68-1.644 3.234-2.587 3.759-7.307 1.171-10.542-29.158-36.45-64.858-65.16-66.363-66.364z"/><path d="m429.239 95.972c-15.472-19.339-34.413-34.572-35.211-35.211-3.234-2.587-7.951-2.063-10.539 1.17s-2.065 7.953 1.167 10.542c.183.146 18.471 14.871 32.871 32.87 1.481 1.852 3.661 2.815 5.861 2.815 1.643 0 3.297-.538 4.68-1.644 3.234-2.588 3.758-7.307 1.171-10.542z"/></g><g fill="#ffe36c"><path d="m66.141 1.979c-2.762-2.243-6.719-2.237-9.475.015-31.788 25.982-54.102 53.876-55.036 55.05-2.191 2.755-2.172 6.664.048 9.397.932 1.146 23.187 28.402 55.813 55.83 1.353 1.137 3.063 1.759 4.826 1.759.054 0 .109 0 .164-.002 1.082-.023 26.755-.624 50.486-4.605 3.155-.529 5.626-3.001 6.156-6.155 3.982-23.731 4.582-49.405 4.605-50.487.04-1.821-.585-3.595-1.757-4.99-27.428-32.625-54.683-54.88-55.83-55.812z"/><path d="m510.31 455.33c-25.99 31.79-53.88 54.11-55.05 55.04-1.37 1.09-3.02 1.63-4.67 1.63-1.68 0-3.35-.56-4.73-1.68-.66-.53-9.84-8.03-22.7-20.44-9.65-9.31-21.38-21.39-33.13-35.37-1.17-1.4-1.8-3.17-1.76-4.99.02-1.08.63-26.76 4.61-50.49.53-3.15 3-5.62 6.15-6.15 23.73-3.98 49.41-4.59 50.49-4.61 1.84-.05 3.59.59 4.99 1.76 13.76 11.57 25.68 23.11 34.93 32.68.01 0 .01 0 0 .01 12.68 13.09 20.34 22.48 20.88 23.14 2.24 2.76 2.24 6.72-.01 9.47z"/></g><path d="m434.431 423.645-346.261-345.902c-2.93-2.927-7.679-2.925-10.607.005-2.927 2.931-2.925 7.68.006 10.607l346.261 345.902c1.464 1.463 3.382 2.194 5.301 2.194 1.92 0 3.841-.733 5.306-2.199 2.927-2.931 2.925-7.68-.006-10.607z" fill="#f4f1e1"/><path d="m510.31 455.33c-25.99 31.79-53.88 54.11-55.05 55.04-1.37 1.09-3.02 1.63-4.67 1.63-1.68 0-3.35-.56-4.73-1.68-.66-.53-9.84-8.03-22.7-20.44 31.61-28.65 54.58-53.74 66.28-67.16 12.68 13.09 20.34 22.48 20.88 23.14 2.24 2.76 2.24 6.72-.01 9.47z" fill="#ffc46e"/></g></svg>