<svg id="Layer_1" enable-background="new 0 0 512 512" height="512" viewBox="0 0 512 512" width="512" xmlns="http://www.w3.org/2000/svg"><g><path d="m426.751 25.066c-13.114-16.633-30.808-25.066-52.592-25.066-26.309 0-47.211 9.927-62.127 29.505-22.192 29.129-30.657 79.296-25.157 149.108 5.082 64.517 20.318 124.821 26.634 147.754 12.622 45.838 10.74 84.099-5.163 104.974-10.76 14.123-28.372 21.284-52.347 21.284s-41.587-7.161-52.347-21.284c-15.903-20.874-17.785-59.136-5.163-104.974 6.315-22.933 21.552-83.237 26.634-147.754 5.499-69.811-2.965-119.979-25.158-149.108-14.915-19.578-35.818-29.505-62.126-29.505-21.783 0-39.478 8.433-52.592 25.066-55.718 70.667-8.585 270.586-6.552 279.061.966 4.027 5.017 6.505 9.042 5.543 4.028-.966 6.51-5.015 5.544-9.042-.121-.507-12.205-51.321-17.556-109.714-6.958-75.928.408-130.067 21.304-156.565 10.268-13.02 23.617-19.349 40.81-19.349 21.68 0 38.099 7.718 50.195 23.596 19.609 25.738 27.263 73.748 22.135 138.84-5.121 65.005-21.304 127.381-26.142 144.95-8.154 29.613-17.998 84.326 7.693 118.047 13.748 18.045 35.374 27.194 64.278 27.194s50.531-9.149 64.278-27.194c25.691-33.721 15.848-88.434 7.692-118.046-4.838-17.569-21.021-79.946-26.142-144.95-5.128-65.092 2.527-113.102 22.136-138.84 12.099-15.879 28.518-23.597 50.197-23.597 17.193 0 30.542 6.329 40.81 19.349 20.896 26.498 28.264 80.637 21.305 156.565-5.351 58.393-17.435 109.207-17.556 109.714-.966 4.027 1.517 8.076 5.544 9.042 4.018.963 8.075-1.515 9.042-5.543 2.034-8.476 49.165-208.395-6.553-279.061z" fill="#f4e5cb"/><g><path d="m134.469 462.501-30.11 18.62-18.37 11.37-48.48-30.009c-2.08-89.508 1.25-157.947 1.28-158.727h94.39c.04.779 3.36 69.228 1.29 158.746z" fill="#c5ef7b"/><path d="m134.469 462.501-30.11 18.62c2.15-85.398-.3-153.767-1.35-177.367h30.17c.04.78 3.36 69.229 1.29 158.747z" fill="#81e276"/><path d="m150.825 299.926c-.995-.206-24.825-5.048-64.837-5.048-40.013 0-63.842 4.842-64.837 5.048-4.054.84-6.658 4.806-5.82 8.86.837 4.055 4.804 6.662 8.859 5.829.23-.047 23.476-4.738 61.799-4.738s61.568 4.69 61.798 4.738c.512.105 1.021.156 1.524.156 3.48 0 6.602-2.437 7.336-5.979.841-4.056-1.766-8.025-5.822-8.866z" fill="#8389aa"/><path d="m134.469 462.501c-.31 13.01-.72 26.479-1.28 40.239-.15 3.71-3 6.75-6.7 7.15-7.99.86-15.74 1.4-23.07 1.72-6.21.28-12.11.39-17.61.39-23.36 0-39.47-2-40.47-2.13-3.63-.46-6.4-3.48-6.55-7.13-.56-13.77-.97-27.239-1.28-40.259 4.87.39 35.25 2.65 67.23 1.83 10-.25 20.15-.8 29.73-1.81z" fill="#8389aa"/><path d="m134.469 462.501c-.31 13.01-.72 26.479-1.28 40.239-.15 3.71-3 6.75-6.7 7.15-7.99.86-15.74 1.4-23.07 1.72.6-16.28 1.03-32.109 1.32-47.299 10-.25 20.15-.8 29.73-1.81z" fill="#646d91"/></g><g><path d="m474.491 462.491-30.11 18.62-18.37 11.37-48.48-30.009c-2.08-89.508 1.25-157.947 1.28-158.727h94.39c.04.779 3.36 69.228 1.29 158.746z" fill="#c5ef7b"/><path d="m474.491 462.491-30.11 18.62c2.15-85.398-.3-153.767-1.35-177.367h30.17c.04.78 3.36 69.229 1.29 158.747z" fill="#81e276"/><path d="m490.847 299.916c-.995-.206-24.825-5.048-64.837-5.048-40.013 0-63.842 4.842-64.837 5.048-4.054.84-6.658 4.806-5.82 8.86.837 4.055 4.804 6.662 8.859 5.829.23-.047 23.476-4.738 61.799-4.738s61.568 4.69 61.798 4.738c.512.105 1.021.156 1.524.156 3.48 0 6.602-2.437 7.336-5.979.84-4.056-1.767-8.025-5.822-8.866z" fill="#8389aa"/><path d="m474.491 462.491c-.31 13.01-.72 26.479-1.28 40.239-.15 3.71-3 6.75-6.7 7.15-7.99.86-15.74 1.4-23.07 1.72-6.21.28-12.11.39-17.61.39-23.36 0-39.47-2-40.47-2.13-3.63-.46-6.4-3.48-6.55-7.13-.56-13.77-.97-27.239-1.28-40.259 4.87.39 35.25 2.65 67.23 1.83 10-.25 20.15-.8 29.73-1.81z" fill="#8389aa"/><path d="m474.491 462.491c-.31 13.01-.72 26.479-1.28 40.239-.15 3.71-3 6.75-6.7 7.15-7.99.86-15.74 1.4-23.07 1.72.6-16.28 1.03-32.109 1.32-47.299 10-.25 20.15-.8 29.73-1.81z" fill="#646d91"/></g></g></svg>