<svg id="Layer_1" enable-background="new 0 0 512 512" height="512" viewBox="0 0 512 512" width="512" xmlns="http://www.w3.org/2000/svg"><g><path d="m287.973 45.296c.02 2-.75 3.92-2.16 5.35-1.4 1.42-3.31 2.22-5.31 2.23l-16.79.05-41.43.13h-.03c-2 0-3.91-.8-5.32-2.22-1.42-1.43-2.2-3.36-2.18-5.37.14-12.96.58-25.54 1.29-37.409.22-3.73 3.17-6.73 6.9-7.03.91-.07 17.87-1.37 38.09-.94 6.08.13 12.46.42 18.79.95 3.72.31 6.65 3.3 6.87 7.02.71 11.83 1.14 24.35 1.28 37.239z" fill="#8389aa"/><path d="m287.973 45.296c.02 2-.75 3.92-2.16 5.35-1.4 1.42-3.31 2.22-5.31 2.23l-16.79.05c-.78-20-1.73-37.789-2.68-52.839 6.08.13 12.46.42 18.79.95 3.72.31 6.65 3.3 6.87 7.02.71 11.83 1.14 24.35 1.28 37.239z" fill="#646d91"/><g fill="#8389aa"><path d="m199.703 421.201c-.16.42-16.24 42.899-39.48 86.809-1.33 2.51-3.92 3.99-6.63 3.99-.84 0-1.69-.14-2.52-.44-6.96-2.49-13.85-5.3-20.22-8.1-17.3-7.58-30.8-15.02-31.57-15.44-3.27-1.82-4.71-5.76-3.37-9.26 10.32-26.83 21.74-51.349 29.51-67.189 1.34-2.72 4.2-4.36 7.19-4.18l44.79 2.72 15.74.96c2.37.14 4.54 1.41 5.83 3.41 1.3 2 1.57 4.49.73 6.72z"/><path d="m412.713 488.02c-.54.29-7.41 4.08-17.49 8.95-9.47 4.58-21.77 10.11-34.29 14.59-.83.3-1.68.44-2.53.44-2.71 0-5.29-1.48-6.63-3.99-23.23-43.909-39.31-86.389-39.47-86.809-.84-2.23-.57-4.72.72-6.72 1.3-2 3.47-3.27 5.84-3.41l36.27-2.21 24.26-1.47c3.02-.19 5.86 1.46 7.19 4.18 7.77 15.84 19.19 40.359 29.5 67.189 1.35 3.5-.09 7.44-3.37 9.26z"/></g><path d="m199.703 421.201c-.16.42-16.24 42.899-39.48 86.809-1.33 2.51-3.92 3.99-6.63 3.99-.84 0-1.69-.14-2.52-.44-6.96-2.49-13.85-5.3-20.22-8.1 26.19-39.29 40.41-75.369 46.55-93.349l15.74.96c2.37.14 4.54 1.41 5.83 3.41 1.3 2 1.57 4.49.73 6.72z" fill="#646d91"/><path d="m412.713 488.02c-.54.29-7.41 4.08-17.49 8.95-13.12-37.169-30.96-71.519-40.09-88.109l24.26-1.47c3.02-.19 5.86 1.46 7.19 4.18 7.77 15.84 19.19 40.359 29.5 67.189 1.35 3.5-.09 7.44-3.37 9.26z" fill="#646d91"/><path d="m440.763 410.991c-.35 3.52-3.12 6.31-6.63 6.7-.23.03-7.06.78-18.84 1.84-29.97 2.71-92.02 7.45-159.29 7.45-93.71 0-177.3-9.19-178.13-9.29-3.52-.39-6.28-3.18-6.63-6.7-.18-1.74-17.2-176.118-.01-357.285.34-3.54 3.11-6.35 6.64-6.75.83-.09 84.42-9.28 178.13-9.28 67.27 0 129.32 4.74 159.29 7.44 11.78 1.06 18.61 1.81 18.84 1.84 3.53.4 6.3 3.21 6.63 6.75 17.2 181.168.17 355.545 0 357.285z" fill="#fab684"/><path d="m440.763 410.991c-.35 3.52-3.12 6.31-6.63 6.7-.23.03-7.06.78-18.84 1.84 16.23-174.598 3.29-338.165 0-374.415 11.78 1.06 18.61 1.81 18.84 1.84 3.53.4 6.3 3.21 6.63 6.75 17.2 181.168.17 355.545 0 357.285z" fill="#f79e60"/><path d="m394.163 364.692c-.24 3.74-3.19 6.72-6.91 7.01-5.59.43-11.71.87-18.28 1.3-30.46 2.04-70.67 3.98-112.97 3.98-51.43 0-99.77-2.87-131.26-5.28-3.73-.29-6.68-3.27-6.91-7-3.28-51.539-7.65-154.448-.18-264.766.25-3.72 3.19-6.69 6.91-6.97 31.47-2.42 79.82-5.29 131.44-5.29 42.2 0 82.33 1.93 112.79 3.96 6.71.45 12.96.9 18.65 1.33 3.72.29 6.66 3.26 6.91 6.98 7.45 110.128 3.08 213.147-.19 264.746z" fill="#f4f1e1"/><g fill="#f4e5cb"><path d="m394.163 364.692c-.24 3.74-3.19 6.72-6.91 7.01-5.59.43-11.71.87-18.28 1.3 7.59-115.098 3.63-220.567-.18-281.366 6.71.45 12.96.9 18.65 1.33 3.72.29 6.66 3.26 6.91 6.98 7.45 110.128 3.08 213.147-.19 264.746z"/><path d="m435.674 442.648c-.455-4.116-4.162-7.091-8.278-6.631-169.326 18.697-329.226.195-330.82.007-4.109-.489-7.843 2.451-8.33 6.564-.488 4.113 2.45 7.843 6.563 8.331 1.072.127 72.866 8.445 171.184 8.445 49.507 0 105.751-2.11 163.05-8.438 4.116-.455 7.085-4.161 6.631-8.278z"/></g></g></svg>