<svg id="Layer_1" enable-background="new 0 0 512 512" height="512" viewBox="0 0 512 512" width="512" xmlns="http://www.w3.org/2000/svg"><g><path d="m511.999 357.74c-.13 53.24-11.76 104.98-33.64 149.62-1.26 2.58-3.88 4.2-6.74 4.2h-121.32c-2.86 0-5.47-1.62-6.73-4.19-6.08-12.41-11.44-25.54-15.93-39.02-.35-1.04-.46-2.15-.34-3.23l32.27-279.07 32.96-39.17-27.04-39.16c-2.56-17.71-4.24-28.81-5.35-36.16-1.92-12.71-2.17-14.34-2.17-18.64 0-24.69 17.02-45.48 39.95-51.3 4.17-1.06 8.54-1.62 13.04-1.62 29.22 0 53 23.74 53 52.92 0 4.29-.25 5.93-2.17 18.64-1.11 7.35-2.79 18.44-5.35 36.15l-23.94 39.17 36.07 39.17c.87 1.88 2.16 4.43 3.66 7.39 11.97 23.6 39.98 78.86 39.77 164.3z" fill="#f4f1e1"/><path d="m511.999 357.74c-.13 53.24-11.76 104.98-33.64 149.62-1.26 2.58-3.88 4.2-6.74 4.2h-23.47c11.27-23 19.71-47.6 25.34-73 5.63-25.39 8.47-51.58 8.53-77.76v-1.01c0-96.95-35.91-154.89-44.04-172.63-4.52-9.88-8.08-20.1-10.55-30.55-2.48-10.45-3.87-21.11-4.04-31.84-.12-7.53.36-15.09 1.47-22.65 7.11-49.15 7.67-49.21 7.67-55.33 0-21.6-14.67-39.79-34.61-45.17 4.17-1.06 8.54-1.62 13.04-1.62 29.22 0 53 23.74 53 52.92 0 4.29-.25 5.93-2.17 18.64-1.11 7.35-2.79 18.44-5.35 36.15l-23.94 39.17 36.07 39.17c.87 1.88 2.16 4.43 3.66 7.39 11.97 23.6 39.98 78.86 39.77 164.3z" fill="#f4e5cb"/><path d="m468.569 186.05h-109l2.95-25.55c.04-.32.1-.64.17-.96 2.59-10.32 3.98-20.77 4.15-31.05.11-6.93-.34-13.92-1.35-20.77l58.67-.01h32.28c-1.01 6.85-1.47 13.84-1.35 20.78.31 19.33 4.85 38.69 13.48 57.56z" fill="#ff7878"/><path d="m468.569 186.05h-31.09c-4.28-9.53-7.67-19.38-10.05-29.44-2.48-10.45-3.87-21.11-4.04-31.84-.09-5.68.16-11.37.77-17.06h32.28c-1.01 6.85-1.47 13.84-1.35 20.78.31 19.33 4.85 38.69 13.48 57.56z" fill="#e84680"/><path d="m428.869 297.75c0 57.23-22.3 111.03-62.81 151.5-40.5 40.46-94.35 62.75-151.62 62.75-5.54 0-11.04-.21-16.5-.62-51.06-3.86-98.54-25.58-135.13-62.13-40.499-40.47-62.809-94.27-62.809-151.5 0-57.24 22.31-111.04 62.81-151.51 36.59-36.55 84.07-58.27 135.13-62.13 5.46-.41 10.96-.62 16.5-.62 57.27 0 111.12 22.29 151.62 62.75 40.509 40.47 62.809 94.27 62.809 151.51z" fill="#ffe36c"/><path d="m428.869 297.75c0 57.23-22.3 111.03-62.81 151.5-40.5 40.46-94.35 62.75-151.62 62.75-5.54 0-11.04-.21-16.5-.62 51.05-3.86 98.53-25.58 135.12-62.13 40.51-40.47 62.81-94.27 62.81-151.5 0-57.24-22.3-111.04-62.81-151.51-36.59-36.55-84.07-58.27-135.12-62.13 5.46-.41 10.96-.62 16.5-.62 57.27 0 111.12 22.29 151.62 62.75 40.51 40.47 62.81 94.27 62.81 151.51z" fill="#ffc46e"/><g fill="#8389aa"><path d="m214.436 227.917c-14.715 0-26.685 11.957-26.685 26.653s11.971 26.653 26.685 26.653 26.685-11.957 26.685-26.653-11.971-26.653-26.685-26.653z"/><ellipse cx="176.788" cy="192.62" rx="26.685" ry="26.653"/><ellipse cx="252.083" cy="192.62" rx="26.685" ry="26.653"/></g><g fill="#ffc46e"><path d="m73.167 343.595c-4.794-14.754-7.225-30.18-7.225-45.85 0-4.142-3.357-7.5-7.5-7.5s-7.5 3.358-7.5 7.5c0 17.246 2.678 34.231 7.959 50.485 1.029 3.169 3.97 5.184 7.131 5.184.769 0 1.55-.119 2.319-.369 3.94-1.279 6.096-5.511 4.816-9.45z"/><path d="m214.436 446.103c-52.849 0-102.138-28.426-128.633-74.184-2.075-3.584-6.664-4.806-10.248-2.732-3.585 2.076-4.809 6.664-2.732 10.249 14.117 24.382 34.419 44.831 58.709 59.136 25.028 14.74 53.697 22.531 82.905 22.531 4.143 0 7.5-3.358 7.5-7.5s-3.358-7.5-7.501-7.5z"/></g></g></svg>