<svg id="Layer_1" enable-background="new 0 0 512 512" height="512" viewBox="0 0 512 512" width="512" xmlns="http://www.w3.org/2000/svg"><g><path d="m400.678 393.55c-1.99.65-4.01 1.29-6.07 1.92l13.74-57.89c65.76-20.18 61.51-65.84 49.63-79.9-10.86-12.85-25.51-13.22-46.05-7.56l-2.64-42.33c5.36-1.42 11.37-2.73 17.72-3.61 22.54-3.12 49.49-.87 67.83 20.83 25.33 29.971 41.59 124.011-94.16 168.54z" fill="#8389aa"/><path d="m400.678 393.55c103.06-49.46 87.44-140.989 64.16-168.539-10.58-12.51-24.02-18.56-37.83-20.83 22.54-3.12 49.49-.87 67.83 20.83 25.33 29.97 41.59 124.01-94.16 168.539z" fill="#646d91"/><path d="m418.658 279.761c-.75 79.5-17.24 133.79-49.01 161.359-1.37 1.18-3.11 1.83-4.92 1.83h-.01l-19.82-.01-273.319-.21c-1.81 0-3.57-.66-4.93-1.85-31.63-27.68-48.03-81.95-48.74-161.319-.15-16.73.42-32.74 1.33-47.12l199.449-49.99 160.57 40.41 38.08 9.59c.9 14.43 1.48 30.51 1.32 47.31z" fill="#ffe36c"/><path d="m418.658 279.761c-.75 79.5-17.24 133.79-49.01 161.359-1.37 1.18-3.11 1.83-4.92 1.83h-.01l-19.82-.01c37.75-75.85 39.51-161.569 34.36-220.079l38.08 9.59c.9 14.43 1.48 30.51 1.32 47.31z" fill="#ffc46e"/><g fill="#f4e5cb"><path d="m111.262 22.366c-3.654 1.95-5.036 6.494-3.085 10.148 5.493 10.292 6.658 21.265 3.284 30.911-.967 2.502-2.088 5.005-3.173 7.427-3.087 6.893-6.279 14.02-6.902 22.738-.926 12.038 3.03 22.541 6.581 30.346 1.257 2.764 3.981 4.397 6.832 4.397 1.039 0 2.094-.217 3.101-.675 3.771-1.715 5.437-6.162 3.722-9.933-2.807-6.169-5.942-14.358-5.276-23.026.437-6.115 2.845-11.492 5.633-17.717 1.18-2.635 2.4-5.359 3.52-8.271.025-.065.049-.13.072-.196 4.833-13.685 3.356-28.979-4.161-43.064-1.95-3.654-6.495-5.037-10.148-3.085z"/><path d="m328.381 25.451c-1.951-3.654-6.495-5.037-10.148-3.085-3.654 1.95-5.036 6.494-3.085 10.148 5.493 10.292 6.658 21.265 3.284 30.911-.967 2.502-2.088 5.005-3.173 7.427-3.087 6.893-6.279 14.02-6.902 22.738-.926 12.037 3.03 22.541 6.581 30.347 1.257 2.764 3.981 4.397 6.832 4.397 1.039 0 2.094-.217 3.101-.675 3.77-1.715 5.437-6.162 3.722-9.933-2.807-6.17-5.943-14.359-5.276-23.026.437-6.115 2.845-11.492 5.633-17.717 1.18-2.635 2.4-5.359 3.521-8.271.025-.065.049-.13.072-.196 4.833-13.686 3.355-28.98-4.162-43.065z"/><path d="m215.379.794c-3.704 1.854-5.205 6.359-3.352 10.063 4.923 9.84 7.22 20.223 6.647 30.041-.941 7.63-4.195 14.587-7.639 21.948-1.511 3.23-3.073 6.57-4.452 10.014-.041.102-.079.204-.116.308-5.177 14.782-3.279 32.374 5.489 50.875 1.283 2.706 3.975 4.29 6.783 4.29 1.076 0 2.169-.233 3.207-.725 3.743-1.774 5.339-6.247 3.565-9.99-4.893-10.323-9.71-25.512-4.939-39.341 1.206-2.995 2.588-5.949 4.05-9.075 3.826-8.178 7.782-16.635 8.973-26.751.016-.136.028-.272.037-.409.783-12.519-2.049-25.623-8.19-37.897-1.853-3.703-6.359-5.204-10.063-3.351z"/></g><path d="m417.338 232.451c-12.57-.7-25.07-1.31-37.46-1.84-184.52-8.01-344.409.87-360.639 1.83 2.24-35.56 6.5-61.08 6.75-62.56.57-3.39 3.38-5.95 6.81-6.22 1.7-.13 162.32-12.5 337.459-2.24 11.11.65 22.29 1.4 33.49 2.24 3.43.25 6.25 2.82 6.83 6.22.25 1.48 4.51 27 6.76 62.57z" fill="#f4f1e1"/><path d="m423.268 473.27c-12.3 12.8-33.94 22.29-66.02 28.67-34.11 6.79-80.02 10.06-139.04 10.06-114.51 0-179.66-12.31-205.049-38.73-14.08-14.65-13.44-30.58-12.98-42.22.08-1.9.15-3.7.15-5.34 0-2.24 1-4.36 2.73-5.79 1.73-1.42 4.01-2 6.21-1.57.94.19 95.04 18.39 208.939 18.4 73.71-.01 139.06-7.62 176.299-13.05 20.36-2.97 32.31-5.29 32.64-5.35 2.2-.43 4.48.15 6.21 1.57 1.73 1.43 2.74 3.55 2.74 5.79 0 1.64.07 3.44.14 5.34.471 11.64 1.101 27.57-12.969 42.22z" fill="#8389aa"/><ellipse cx="218.211" cy="331.913" fill="#ffc46e" rx="69.8" ry="57.066"/><path d="m417.338 232.451c-12.57-.7-25.07-1.31-37.46-1.84-2.36-31.9-6.97-56.75-9.62-69.19 11.11.65 22.29 1.4 33.49 2.24 3.43.25 6.25 2.82 6.83 6.22.25 1.48 4.51 27 6.76 62.57z" fill="#f4e5cb"/><path d="m423.268 473.27c-12.3 12.8-33.94 22.29-66.02 28.67 29.3-26.93 35.95-60.2 37.26-78.24 20.36-2.97 32.31-5.29 32.64-5.35 2.2-.43 4.48.15 6.21 1.57 1.73 1.43 2.74 3.55 2.74 5.79 0 1.64.07 3.44.14 5.34.47 11.64 1.1 27.57-12.97 42.22z" fill="#646d91"/></g></svg>