<svg id="Layer_1" enable-background="new 0 0 512 512" height="512" viewBox="0 0 512 512" width="512" xmlns="http://www.w3.org/2000/svg"><g><path d="m410.545 410.523c-35.277 35.192-77.836 61.644-126.498 78.642-10.323 3.606-20.93 6.788-31.791 9.546l-95.188 13.039c-77.264 2.425-134.948-13.597-137.366-14.276-1.252-.361-2.369-1.025-3.26-1.916s-1.556-2.008-1.916-3.26c-.679-2.418-16.702-60.102-14.276-137.366l13.173-95.719c2.729-10.677 5.869-21.1 9.411-31.26 16.998-48.662 43.451-91.221 78.628-126.484 35.27-35.185 77.829-61.637 126.491-78.635 10.465-3.649 21.213-6.873 32.222-9.652l94.757-12.932c77.264-2.425 134.948 13.597 137.366 14.276 2.503.707 4.469 2.673 5.176 5.176.679 2.418 16.701 60.103 14.276 137.366l-12.798 94.227c-2.807 11.193-6.074 22.125-9.786 32.752-16.999 48.661-43.451 91.221-78.621 126.476z" fill="#fab684"/><path d="m410.545 410.523c-35.277 35.192-77.836 61.644-126.498 78.642-10.323 3.606-20.93 6.788-31.791 9.546l-95.188 13.039c-77.264 2.425-134.948-13.597-137.366-14.276 0 0 226.339 22.584 363.358-114.435s114.414-363.337 114.414-363.337c.679 2.418 16.701 60.103 14.276 137.366l-12.798 94.227c-2.807 11.193-6.074 22.125-9.786 32.752-16.999 48.661-43.451 91.221-78.621 126.476z" fill="#f79e60"/><g fill="#d77d41"><path d="m344.328 167.279-.007-.007c-2.925-2.925-7.669-2.93-10.599-.007l-166.265 165.815c-2.933 2.925-2.939 7.673-.014 10.606l.007.007c2.926 2.926 7.669 2.93 10.599.007l166.265-165.816c2.932-2.924 2.939-7.673.014-10.605z"/><path d="m217.903 104.307c-1.921-3.669-6.454-5.086-10.123-3.165-63.484 33.245-104.567 103.195-106.285 106.157-1.743 3.005-1.166 6.718 1.18 9.064.451.451.967.851 1.545 1.187 3.583 2.078 8.172.858 10.25-2.724.399-.688 40.585-69.141 100.268-100.395 3.669-1.923 5.086-6.455 3.165-10.124z"/><path d="m410.001 303.364c1.921-3.669.507-8.2-3.165-10.123-3.669-1.922-8.201-.505-10.123 3.165-31.2 59.576-99.709 99.869-100.398 100.269-3.581 2.079-4.799 6.667-2.722 10.249.335.578.735 1.094 1.186 1.545 2.346 2.346 6.059 2.923 9.064 1.179 2.963-1.718 72.913-42.8 106.158-106.284z"/></g><path d="m493.804 134.837c-62.499-74.167-138.872-134.587-138.872-134.587-33.205 1.047-64.946 5.381-94.757 12.933 1.188.933 120.191 94.962 215.259 208.853 8.04 9.623 15.909 19.388 23.518 29.259 7.467-29.655 11.752-61.22 12.798-94.227-5.791-7.517-11.801-14.941-17.946-22.231z" fill="#f4f1e1"/><path d="m222.947 475.158c-114.555-95.633-209.524-215.944-209.524-215.944-7.693 30.093-12.113 62.16-13.173 95.718 0 0 60.421 76.373 134.58 138.865 7.297 6.152 14.722 12.162 22.238 17.953 33.367-1.054 65.243-5.423 95.188-13.039-9.878-7.615-19.664-15.492-29.309-23.553z" fill="#f4f1e1"/><g><g><path d="m309.189 203.385c-21.522-21.522-35.82-39.244-36.717-40.361-2.592-3.23-2.076-7.949 1.154-10.542 3.23-2.594 7.954-2.073 10.543 1.152.326.406 33.063 40.959 73.658 73.458 3.231 2.595 3.756 7.308 1.168 10.542-2.589 3.233-7.309 3.756-10.542 1.168-14.498-11.607-27.89-24.043-39.264-35.417z" fill="#f4f1e1"/></g><g><path d="m270.573 241.996c-21.522-21.522-35.819-39.242-36.715-40.359-2.593-3.23-2.076-7.95 1.154-10.542 3.23-2.593 7.955-2.074 10.543 1.152.326.406 33.062 40.958 73.658 73.457 3.235 2.592 3.756 7.308 1.168 10.542-2.589 3.233-7.309 3.756-10.542 1.168-14.497-11.605-27.892-24.043-39.266-35.418z" fill="#f4f1e1"/></g><g><path d="m228.174 357.925c-.195-.195-.381-.403-.558-.623-32.543-40.648-73.051-73.332-73.457-73.657-3.23-2.594-3.746-7.314-1.154-10.543s7.313-3.747 10.543-1.154c1.708 1.371 42.211 34.054 75.778 75.981 2.588 3.233 2.066 7.953-1.168 10.542-3.013 2.411-7.317 2.121-9.984-.546z" fill="#f4f1e1"/></g><g><path d="m266.787 319.311c-.195-.195-.381-.403-.558-.623-32.543-40.648-73.051-73.332-73.457-73.657-3.231-2.594-3.746-7.314-1.154-10.543 2.593-3.23 7.313-3.747 10.543-1.154 1.708 1.371 42.212 34.054 75.778 75.981 2.588 3.233 2.066 7.953-1.168 10.542-3.012 2.411-7.316 2.121-9.984-.546z" fill="#f4f1e1"/></g></g><g fill="#f4e5cb"><path d="m475.434 222.035c9.178-30.49 14.891-60.272 18.37-87.198 6.145 7.29 12.155 14.715 17.946 22.231-1.046 33.007-5.331 64.571-12.798 94.227-7.608-9.872-15.478-19.637-23.518-29.26z"/><path d="m252.256 498.712c-29.945 7.615-61.821 11.985-95.188 13.039-7.516-5.791-14.941-11.801-22.238-17.953 27.202-3.514 57.309-9.312 88.117-18.639 9.645 8.06 19.431 15.937 29.309 23.553z"/></g></g></svg>