<svg id="Layer_1" enable-background="new 0 0 512 512" height="512" viewBox="0 0 512 512" width="512" xmlns="http://www.w3.org/2000/svg"><g><g><path d="m496.32 90.88v138.12c-25.8 53.71-80.72 90.88-144.15 90.88-5.06 0-10.06-.24-15-.7-57-5.33-105.41-40.75-129.15-90.18v-138.12c23.74-49.43 72.15-84.85 129.15-90.18 4.94-.46 9.94-.7 15-.7 63.43 0 118.35 37.17 144.15 90.88z" fill="#8389aa"/><path d="m496.32 90.88v138.12c-25.8 53.71-80.72 90.88-144.15 90.88-5.06 0-10.06-.24-15-.7 81.13-7.59 144.84-76.11 144.84-159.24s-63.71-151.65-144.84-159.24c4.94-.46 9.94-.7 15-.7 63.43 0 118.35 37.17 144.15 90.88z" fill="#646d91"/><path d="m512 159.94c0 24.71-5.63 48.14-15.68 69.06h-288.3c-10.05-20.92-15.68-44.35-15.68-69.06s5.63-48.14 15.68-69.06h288.3c10.05 20.92 15.68 44.35 15.68 69.06z" fill="#ffe36c"/><path d="m512 159.94c0 24.71-5.63 48.14-15.68 69.06h-30c10.06-20.92 15.69-44.35 15.69-69.06s-5.63-48.14-15.69-69.06h30c10.05 20.92 15.68 44.35 15.68 69.06z" fill="#ffc46e"/><path d="m444.43 159.94c0 50.91-41.39 92.32-92.26 92.32-5.11 0-10.12-.42-15-1.23-43.77-7.18-77.27-45.29-77.27-91.09s33.5-83.91 77.27-91.09c4.88-.81 9.89-1.23 15-1.23 50.87 0 92.26 41.41 92.26 92.32z" fill="#fff"/><path d="m444.43 159.94c0 50.91-41.39 92.32-92.26 92.32-5.11 0-10.12-.42-15-1.23 43.76-7.18 77.26-45.29 77.26-91.09s-33.5-83.91-77.26-91.09c4.88-.81 9.89-1.23 15-1.23 50.87 0 92.26 41.41 92.26 92.32z" fill="#f4f1e1"/></g><g><path d="m303.98 283v138.12c-25.8 53.71-80.72 90.88-144.15 90.88-5.06 0-10.06-.24-15-.7-57-5.33-105.41-40.75-129.15-90.18v-138.12c23.74-49.43 72.15-84.85 129.15-90.18 4.94-.46 9.94-.7 15-.7 63.43 0 118.35 37.17 144.15 90.88z" fill="#8389aa"/><path d="m303.98 283v138.12c-25.8 53.71-80.72 90.88-144.15 90.88-5.06 0-10.06-.24-15-.7 81.13-7.59 144.84-76.11 144.84-159.24s-63.71-151.65-144.84-159.24c4.94-.46 9.94-.7 15-.7 63.43 0 118.35 37.17 144.15 90.88z" fill="#646d91"/><path d="m319.66 352.06c0 24.71-5.63 48.14-15.68 69.06h-288.3c-10.05-20.92-15.68-44.35-15.68-69.06s5.63-48.14 15.68-69.06h288.3c10.05 20.92 15.68 44.35 15.68 69.06z" fill="#ff7878"/><path d="m319.66 352.06c0 24.71-5.63 48.14-15.68 69.06h-30c10.06-20.92 15.69-44.35 15.69-69.06s-5.63-48.14-15.69-69.06h30c10.05 20.92 15.68 44.35 15.68 69.06z" fill="#e84680"/><path d="m252.09 352.06c0 50.91-41.39 92.32-92.26 92.32-5.11 0-10.12-.42-15-1.23-43.77-7.18-77.27-45.29-77.27-91.09s33.5-83.91 77.27-91.09c4.88-.81 9.89-1.23 15-1.23 50.87 0 92.26 41.41 92.26 92.32z" fill="#fff"/><path d="m252.09 352.06c0 50.91-41.39 92.32-92.26 92.32-5.11 0-10.12-.42-15-1.23 43.76-7.18 77.26-45.29 77.26-91.09s-33.5-83.91-77.26-91.09c4.88-.81 9.89-1.23 15-1.23 50.87 0 92.26 41.41 92.26 92.32z" fill="#f4f1e1"/><path d="m178.401 345.345c3.657-4.273 5.868-9.817 5.868-15.869 0-13.476-10.963-24.438-24.438-24.438s-24.438 10.963-24.438 24.438c0 6.051 2.211 11.596 5.868 15.869-7.007 5.513-11.514 14.067-11.514 23.654 0 16.589 13.496 30.084 30.084 30.084s30.084-13.496 30.084-30.084c0-9.588-4.508-18.141-11.514-23.654zm-18.571-25.308c5.205 0 9.438 4.234 9.438 9.438s-4.234 9.438-9.438 9.438-9.438-4.234-9.438-9.438 4.234-9.438 9.438-9.438zm0 64.046c-8.317 0-15.084-6.767-15.084-15.084s6.767-15.084 15.084-15.084 15.084 6.767 15.084 15.084-6.767 15.084-15.084 15.084z" fill="#8389aa"/></g><g fill="#8389aa"><path d="m335.837 127.24c-2.554-1.266-5.602-.978-7.87.746l-19.677 14.945c-3.299 2.505-3.941 7.21-1.437 10.509 2.505 3.299 7.211 3.943 10.509 1.437l7.641-5.803v40.85c0 4.142 3.357 7.5 7.5 7.5s7.5-3.358 7.5-7.5v-55.964c0-2.851-1.614-5.454-4.166-6.72z"/><path d="m386.837 127.24c-2.555-1.266-5.602-.978-7.87.746l-19.677 14.945c-3.299 2.505-3.941 7.21-1.437 10.509 2.506 3.299 7.211 3.943 10.509 1.437l7.641-5.803v40.85c0 4.142 3.357 7.5 7.5 7.5s7.5-3.358 7.5-7.5v-55.964c0-2.851-1.614-5.454-4.166-6.72z"/></g></g></svg>