<svg id="Layer_1" enable-background="new 0 0 512 512" height="512" viewBox="0 0 512 512" width="512" xmlns="http://www.w3.org/2000/svg"><g><g><g><g><g><path d="m373.23 506.59c-.93 3.2-3.86 5.41-7.2 5.41h-220.06c-3.34 0-6.27-2.21-7.2-5.41-.93-3.21.37-6.64 3.19-8.43.4-.25 40.98-26.53 64.24-80.33 1.19-2.74 3.89-4.52 6.88-4.52h85.83c3 0 5.7 1.78 6.89 4.52 23.36 54.04 63.83 80.07 64.24 80.33 2.82 1.79 4.12 5.22 3.19 8.43z" fill="#c7cde0"/><path d="m373.23 506.59c-.93 3.2-3.86 5.41-7.2 5.41h-31.55c-26.19-17.96-63.99-78.99-67.24-98.69h31.67c3 0 5.7 1.78 6.89 4.52 23.36 54.04 63.83 80.07 64.24 80.33 2.82 1.79 4.12 5.22 3.19 8.43z" fill="#b1accc"/><path d="m507.06 371.75-27.3 3.98-223.76 32.58-251.059-36.56c-12.83-191.04 3.36-358.4 3.54-360.2.37-3.71 3.42-6.59 7.15-6.75 1.15-.05 116.1-4.8 240.369-4.8 94.28 0 183.2 2.73 221.13 4.08h.01c12.05.43 18.95.71 19.23.72 3.73.16 6.78 3.04 7.15 6.75 0 .01.01.04.01.08.44 4.53 16.25 170.68 3.53 360.12z" fill="#ff7878"/><path d="m507.059 371.75-27.3 3.98c11-228.79-2.63-371.65-2.63-371.65h.01c12.05.43 18.95.71 19.23.72 3.73.16 6.78 3.04 7.15 6.75.18 1.8 16.37 169.16 3.54 360.2z" fill="#a6dff5"/><path d="m507.06 371.75-27.3 3.98c11-228.79-2.63-371.65-2.63-371.65h.01c12.05.43 18.95.71 19.23.72 3.73.16 6.78 3.04 7.15 6.75 0 .01.01.04.01.08.44 4.53 16.25 170.68 3.53 360.12z" fill="#e84680"/><path d="m507.06 371.75c-1 14.86-2.17 29.86-3.54 44.94-.34 3.75-3.4 6.66-7.15 6.82-.3.02-8.28.35-22.11.83-39.4 1.37-126.28 3.97-218.26 3.97-124.27 0-239.22-4.75-240.37-4.8-3.75-.16-6.81-3.07-7.15-6.82-.62-6.87-1.21-13.73-1.75-20.56-.65-8.16-1.25-16.29-1.79-24.38 16.17.59 134.4 4.73 251.06 4.73 89.11 0 179.15-2.42 223.9-3.82h.01c13.83-.44 23.34-.77 27.15-.91z" fill="#8389aa"/><path d="m507.06 371.75c-1 14.86-2.17 29.86-3.54 44.94-.34 3.75-3.4 6.66-7.15 6.82-.3.02-8.28.35-22.11.83 5.09-27.31 5.5-48.61 5.5-48.61.05-1.03.1-2.05.14-3.07h.01c13.83-.44 23.34-.77 27.15-.91z" fill="#646d91"/></g></g></g></g><g><path d="m241.45 195.09c.02 2.11-.85 4.12-2.39 5.55-.69.65-70.61 65.45-148.28 106.33-1.1.57-2.3.86-3.5.86-1.3 0-2.61-.34-3.78-1.02-2.23-1.31-3.64-3.67-3.71-6.26-3.11-104.19-.04-209.74 0-210.79.08-2.64 1.53-5.04 3.83-6.33 2.3-1.28 5.11-1.27 7.39.04 0 0 0 0 .01.01 82.18 47.11 147.3 105.52 147.95 106.1 1.56 1.41 2.46 3.41 2.48 5.51z" fill="#fff"/><g fill="#e84680"><path d="m296.881 104.93h129.229c4.143 0 7.5-3.358 7.5-7.5s-3.357-7.5-7.5-7.5h-129.229c-4.143 0-7.5 3.358-7.5 7.5s3.357 7.5 7.5 7.5z"/><path d="m426.109 138.792h-129.228c-4.143 0-7.5 3.358-7.5 7.5s3.357 7.5 7.5 7.5h129.229c4.143 0 7.5-3.358 7.5-7.5s-3.358-7.5-7.501-7.5z"/><path d="m426.109 187.655h-129.228c-4.143 0-7.5 3.358-7.5 7.5s3.357 7.5 7.5 7.5h129.229c4.143 0 7.5-3.358 7.5-7.5s-3.358-7.5-7.501-7.5z"/><path d="m426.109 236.518h-129.228c-4.143 0-7.5 3.358-7.5 7.5s3.357 7.5 7.5 7.5h129.229c4.143 0 7.5-3.358 7.5-7.5s-3.358-7.5-7.501-7.5z"/><path d="m426.109 285.38h-129.228c-4.143 0-7.5 3.358-7.5 7.5s3.357 7.5 7.5 7.5h129.229c4.143 0 7.5-3.358 7.5-7.5s-3.358-7.5-7.501-7.5z"/></g></g><path d="m241.45 195.09c.02 2.11-.85 4.12-2.39 5.55-.69.65-70.61 65.45-148.28 106.33 63.55-65.54 107.16-111.81 107.16-111.81-35.08-43.97-105.81-110.64-106.92-111.68 82.18 47.11 147.3 105.52 147.95 106.1 1.56 1.41 2.46 3.41 2.48 5.51z" fill="#f4f1e1"/></g></svg>