<svg id="Layer_1" enable-background="new 0 0 512 512" height="512" viewBox="0 0 512 512" width="512" xmlns="http://www.w3.org/2000/svg"><g><path d="m54.091 509.906c-2.156 2.072-5.338 2.666-8.102 1.513-8.717-3.642-15.915-8.294-21.804-13.237-1.973-1.648-3.797-3.33-5.486-5.02-13.244-13.244-18.002-26.785-18.299-27.634-.905-2.659-.247-5.593 1.697-7.623 42.11-43.699 89.07-89.095 89.544-89.555 1.471-1.428 3.38-2.121 5.274-2.107 1.902.021 3.79.749 5.239 2.199l25.778 25.795 15.604 15.606c2.892 2.892 2.934 7.573.092 10.515-.453.467-45.843 47.433-89.537 89.548z" fill="#f79e60"/><path d="m54.091 509.906c-2.156 2.072-5.338 2.666-8.102 1.513-8.717-3.642-15.915-8.294-21.804-13.237 48.911-47.263 90.654-90.34 103.748-103.944l15.604 15.606c2.892 2.892 2.934 7.573.092 10.515-.454.466-45.844 47.432-89.538 89.547z" fill="#d77d41"/><path d="m449.519 62.429c-26.23-26.234-69.203-58.294-124.965-62.063-58.364-3.924-117.57 23.681-175.97 82.088-43.467 43.473-70.051 87.752-79.002 131.592l57.608 170.752 113.123 38.17 57.594 19.431c18.842-3.854 37.783-10.932 56.604-21.171.601-.332 1.152-.728 1.64-1.202l124.859-121.17c.467-.453.877-.962 1.216-1.527 65.816-110.089 7.755-194.432-32.707-234.9z" fill="#ff7878"/><path d="m297.899 442.392c-10.98 2.256-21.932 3.408-32.806 3.451h-.679c-24.901 0-49.548-5.77-73.304-17.154-3.217.318-12.592 1.69-34.354 7.573-2.227.601-4.61.141-6.455-1.237-.601-.46-15.088-11.399-38.667-34.584l-.085-.085c-23.183-23.582-34.121-38.071-34.58-38.672-1.379-1.846-1.838-4.229-1.237-6.456 5.882-21.765 7.254-31.141 7.572-34.358-16.537-34.5-21.154-70.428-13.723-106.822 0 0 87.168 105.578 198.34 202.847 9.821 8.59 19.825 17.111 29.978 25.497z" fill="#fab684"/><path d="m481.009 298.857-124.859 121.169c-.488.474-1.039.87-1.64 1.202-18.821 10.239-37.762 17.317-56.604 21.171l-57.594-19.431c241.016-43.339 277.568-292.169 209.207-360.539 40.463 40.468 98.523 124.811 32.707 234.9-.34.566-.75 1.075-1.217 1.528z" fill="#e84680"/><path d="m297.899 442.392c-10.98 2.256-21.932 3.408-32.806 3.451h-.679c-24.901 0-49.548-5.77-73.304-17.154 27.842-1.584 53.415-5.664 76.81-11.794 9.822 8.59 19.826 17.111 29.979 25.497z" fill="#f79e60"/><path d="m484.205 291.149c-4.08-4.08-8.463-7.743-13.108-10.96-15.696-10.904-34.305-16.773-53.832-16.773-25.283 0-49.053 9.843-66.933 27.726s-27.729 41.663-27.729 66.949c.007 19.523 5.868 38.141 16.77 53.839 3.217 4.646 6.879 9.03 10.959 13.11 17.88 17.883 41.657 27.733 66.94 27.733s49.06-9.85 66.94-27.733 27.722-41.656 27.722-66.942c.007-25.293-9.848-49.066-27.729-66.949z" fill="#ffe36c"/><path d="m484.212 425.04c-17.88 17.883-41.658 27.733-66.94 27.733-25.283 0-49.06-9.85-66.94-27.733-4.079-4.08-7.742-8.464-10.959-13.11 36.899 25.59 87.932 21.941 120.801-10.932s36.51-83.905 10.923-120.809c4.645 3.217 9.029 6.88 13.108 10.96 17.88 17.883 27.736 41.656 27.729 66.949 0 25.286-9.841 49.059-27.722 66.942z" fill="#ffc46e"/></g></svg>