<svg id="Layer_1" enable-background="new 0 0 512 512" height="512" viewBox="0 0 512 512" width="512" xmlns="http://www.w3.org/2000/svg"><g><path d="m434.239 69.906c-.76-20.667-5.263-44.305-12.354-64.851-1.352-3.916-5.623-5.994-9.537-4.643-3.916 1.352-5.995 5.621-4.643 9.537 6.628 19.205 10.836 41.26 11.544 60.509.929 25.261-3.763 45.313-13.946 59.599-12.018 16.859-32.07 25.407-59.603 25.407-17.388 0-40.841-3.246-53.83-18.711-9.453-11.255-12.313-27.985-8.498-49.723 4.291-24.456.146-44.383-12.321-59.226-20.316-24.188-57.484-27.8-77.83-27.8-23.491 0-42.403 8.219-56.211 24.428-36.798 43.199-23.595 128.25-23.015 131.849.659 4.09 4.509 6.872 8.598 6.211 4.09-.659 6.871-4.508 6.212-8.597-.033-.205-3.285-20.747-2.365-46.034.831-22.822 5.321-54.134 21.991-73.703 10.979-12.889 25.63-19.154 44.79-19.154 17.736 0 49.94 2.916 66.343 22.447 9.483 11.29 12.522 27.1 9.032 46.988-4.616 26.307-.65 47.154 11.787 61.962 16.705 19.89 44.74 24.065 65.317 24.065 32.661 0 56.824-10.665 71.819-31.701 12.148-17.046 17.774-40.213 16.72-68.859z" fill="#f4e5cb"/><path d="m175.274 203.231c.03 1.99-.74 3.91-2.12 5.34-1.39 1.42-3.29 2.24-5.28 2.27l-25.072.33-67.675.89h-.1c-1.99 0-3.9-.79-5.31-2.2-1.43-1.43-2.22-3.38-2.19-5.41.22-16.26.91-32.06 2.05-46.95.27-3.56 3-6.43 6.54-6.87 1.34-.17 27.442-3.38 62.885-3.03 8.601.08 17.741.38 27.222.98 3.73.24 6.721 3.19 7.001 6.92 1.399 18.27 1.889 36.04 2.049 47.73z" fill="#ff7878"/><path d="m175.274 203.231c.03 1.99-.74 3.91-2.12 5.34-1.39 1.42-3.29 2.24-5.28 2.27l-25.072.33c-1.13-32.46-2.86-53.67-3.8-63.57 8.601.08 17.741.38 27.222.98 3.73.24 6.721 3.19 7.001 6.92 1.399 18.27 1.889 36.04 2.049 47.73z" fill="#e84680"/><path d="m509.16 453.06c-.09 1.45-.59 2.83-1.45 4-19.432 26.35-42.043 47.15-42.993 48.02-1.29 1.18-2.94 1.87-4.68 1.96-.39.02-16.341.82-42.133 1.78-38.414 1.42-98.679 3.18-161.904 3.18-105.678 0-203.066-4.91-204.036-4.96-1.74-.09-3.39-.78-4.68-1.96-.95-.87-23.562-21.67-42.993-48.02-.86-1.17-1.36-2.55-1.45-4-6.361-104.91-.06-200.589.01-201.549.09-1.42.59-2.79 1.44-3.94 19.432-26.35 42.043-47.15 42.993-48.03 1.29-1.17 2.94-1.87 4.68-1.95.97-.05 98.358-4.96 204.036-4.96 63.215 0 123.47 1.76 161.883 3.17 25.812.96 41.763 1.77 42.153 1.79 1.74.08 3.39.78 4.68 1.95.95.88 23.562 21.68 42.993 48.03.85 1.15 1.35 2.52 1.44 3.94.071.96 6.372 96.64.011 201.549z" fill="#c7cde0"/><g><path d="m211.306 354.471c-.36 3.64-3.29 6.5-6.941 6.76-.12.01-8.791.61-23.062 1.15-4.3.16-9.121.32-14.361.45-.32 12.84-.87 25.39-1.62 37.39-.24 3.67-3.1 6.64-6.771 6.99-7.871.76-15.211 1.02-21.512 1.02-12.301 0-20.622-.98-21.132-1.04-3.59-.43-6.37-3.36-6.591-6.97-.76-12-1.31-24.53-1.63-37.36-12.831-.33-25.372-.87-37.363-1.63-3.68-.23-6.641-3.1-6.991-6.76-2.25-23.27-.08-41.87.01-42.65.44-3.59 3.37-6.36 6.981-6.59 12.001-.75 24.542-1.3 37.383-1.63.58-22.62 1.6-37.25 1.61-37.41.25-3.59 3.02-6.49 6.591-6.92.78-.09 19.372-2.27 42.643-.02 3.65.35 6.501 3.29 6.761 6.94.01.16 1.04 14.8 1.61 37.44 5.19.13 9.961.29 14.231.44 14.361.55 23.092 1.15 23.212 1.17 3.59.25 6.491 3.01 6.921 6.58.091.78 2.262 19.38.021 42.65z" fill="#8389aa"/><g><path d="m423.568 308.123c-13.846 0-25.111 11.264-25.111 25.109s11.265 25.109 25.111 25.109 25.111-11.264 25.111-25.109-11.265-25.109-25.111-25.109z" fill="#8389aa"/><path d="m323.799 308.123c-13.846 0-25.111 11.264-25.111 25.109s11.265 25.109 25.111 25.109 25.111-11.264 25.111-25.109-11.265-25.109-25.111-25.109z" fill="#8389aa"/><g fill="#ff7878"><path d="m373.683 308.46c13.846 0 25.111-11.264 25.111-25.109s-11.265-25.109-25.111-25.109-25.111 11.264-25.111 25.109 11.265 25.109 25.111 25.109z"/><path d="m373.683 358.004c-13.846 0-25.111 11.264-25.111 25.109s11.265 25.109 25.111 25.109 25.111-11.264 25.111-25.109c.001-13.846-11.264-25.109-25.111-25.109z"/></g></g></g><g fill="#b1accc"><g><path d="m309.557 415.454c-.458-4.117-4.161-7.087-8.283-6.626-44.69 4.965-90.096.049-90.549 0-4.111-.456-7.825 2.511-8.281 6.627-.457 4.117 2.509 7.824 6.626 8.281 1.264.141 21.517 2.339 48.477 2.339 13.905 0 29.597-.585 45.384-2.339 4.117-.457 7.084-4.165 6.626-8.282z"/><path d="m279.244 445.333c-22.852 2.538-46.134.039-46.487 0-4.113-.457-7.825 2.509-8.283 6.626s2.509 7.825 6.626 8.282c.67.075 11.416 1.241 25.72 1.241 7.378 0 15.703-.311 24.08-1.241 4.117-.458 7.084-4.166 6.627-8.282-.458-4.116-4.161-7.083-8.283-6.626z"/></g><g><path d="m235.497 246.021c-4.143 0-7.502 3.358-7.502 7.501s3.359 7.501 7.502 7.501 7.502-3.358 7.502-7.501-3.358-7.501-7.502-7.501z"/><path d="m284.004 253.522c0-4.143-3.359-7.501-7.502-7.501s-7.502 3.358-7.502 7.501 3.359 7.501 7.502 7.501c4.144 0 7.502-3.358 7.502-7.501z"/></g><path d="m509.16 453.06c-.09 1.45-.59 2.83-1.45 4-19.432 26.35-42.043 47.15-42.993 48.02-1.29 1.18-2.94 1.87-4.68 1.96-.39.02-16.341.82-42.133 1.78 30.792-29.61 54.124-61.05 54.124-61.05 3.87-99.08 0-189.529 0-189.529-22.472-33.29-54.164-62.43-54.164-62.43l.02-.01c25.812.96 41.763 1.77 42.153 1.79 1.74.08 3.39.78 4.68 1.95.95.88 23.562 21.68 42.993 48.03.85 1.15 1.35 2.52 1.44 3.94.07.96 6.371 96.64.01 201.549z"/></g><path d="m211.306 354.471c-.36 3.64-3.29 6.5-6.941 6.76-.12.01-8.791.61-23.062 1.15.41-29.75.13-48.44-.15-58.31 14.361.55 23.092 1.15 23.212 1.17 3.59.25 6.491 3.01 6.921 6.58.09.78 2.261 19.38.02 42.65z" fill="#646d91"/></g></svg>