<svg id="Layer_1" enable-background="new 0 0 512 512" height="512" viewBox="0 0 512 512" width="512" xmlns="http://www.w3.org/2000/svg"><g><path d="m507.032 331.336c-.26 3.72-3.22 6.671-6.941 6.941-.26.02-10.911.78-29.314 1.69-28.994 1.45-77.27 3.3-134.547 3.3-1.99 0-3.93-.77-5.351-2.18l-160.34-159.541c-1.42-1.41-2.21-3.32-2.21-5.321-.03-93.852 4.941-163.642 4.991-164.332.27-3.72 3.23-6.671 6.941-6.941 1.46-.1 138.968-9.791 290.217-1.79 9.811.52 19.693 1.11 29.584 1.79 3.74.25 6.721 3.23 6.981 6.971 11.1 162.222.109 317.863-.011 319.413z" fill="#c7cde0"/><path d="m338.68 500.098c-.27 3.72-3.23 6.671-6.941 6.941-.4.02-11.031.77-29.364 1.68-29.024 1.44-77.35 3.28-134.987 3.28-47.386 0-101.043-1.24-155.45-4.961-3.74-.25-6.721-3.23-6.981-6.971-11.101-162.221-.11-317.862.01-319.412.27-3.72 3.22-6.671 6.941-6.941 1.46-.1 138.938-9.791 290.177-1.79 9.831.52 19.713 1.11 29.624 1.79 3.74.25 6.711 3.23 6.971 6.971 11.102 162.223.111 317.863 0 319.413z" fill="#ff7878"/><path d="m338.68 500.098c-.27 3.72-3.23 6.671-6.941 6.941-.4.02-11.031.77-29.364 1.68 7.432-168.338.4-313.702-.29-336.795 9.831.52 19.713 1.11 29.624 1.79 3.74.25 6.711 3.23 6.971 6.971 11.102 162.223.111 317.863 0 319.413z" fill="#e84680"/><path d="m507.032 331.336c-.26 3.72-3.22 6.671-6.941 6.941-.26.02-10.911.78-29.314 1.69 7.261-165.662.54-310.791-.3-336.805 9.811.52 19.693 1.11 29.584 1.79 3.74.25 6.721 3.23 6.981 6.971 11.101 162.222.11 317.863-.01 319.413z" fill="#b1accc"/><g fill="#fff"><path d="m409.329 122.563c13.858 0 25.133-11.266 25.133-25.113s-11.275-25.112-25.133-25.112c-13.859 0-25.134 11.265-25.134 25.112s11.275 25.113 25.134 25.113z"/><path d="m409.329 220.667c-13.859 0-25.134 11.265-25.134 25.112s11.275 25.113 25.134 25.113c13.858 0 25.133-11.266 25.133-25.113s-11.275-25.112-25.133-25.112z"/><path d="m271.029 72.339c-13.859 0-25.134 11.265-25.134 25.112s11.275 25.113 25.134 25.113 25.134-11.266 25.134-25.113-11.275-25.112-25.134-25.112z"/></g><g fill="#fff"><path d="m240.971 291.326c13.859 0 25.134-11.265 25.134-25.112s-11.275-25.113-25.134-25.113-25.134 11.266-25.134 25.113c0 13.846 11.275 25.112 25.134 25.112z"/><path d="m240.971 389.429c-13.859 0-25.134 11.266-25.134 25.113s11.275 25.112 25.134 25.112 25.134-11.265 25.134-25.112-11.275-25.113-25.134-25.113z"/><path d="m102.671 241.101c-13.859 0-25.134 11.266-25.134 25.113s11.275 25.112 25.134 25.112 25.134-11.265 25.134-25.112c0-13.848-11.274-25.113-25.134-25.113z"/><path d="m171.821 315.265c-13.859 0-25.134 11.266-25.134 25.113s11.275 25.112 25.134 25.112 25.134-11.265 25.134-25.112-11.275-25.113-25.134-25.113z"/><path d="m102.671 389.429c-13.859 0-25.134 11.266-25.134 25.113s11.275 25.112 25.134 25.112 25.134-11.265 25.134-25.112-11.274-25.113-25.134-25.113z"/></g><g fill="#e84680"><path d="m179.318 225.352c0-4.143-3.359-7.502-7.502-7.502s-7.502 3.359-7.502 7.502 3.359 7.502 7.502 7.502 7.502-3.359 7.502-7.502z"/><path d="m164.314 455.403c0 4.143 3.359 7.502 7.502 7.502s7.502-3.359 7.502-7.502-3.359-7.502-7.502-7.502-7.502 3.358-7.502 7.502z"/><path d="m281.98 347.88c4.143 0 7.502-3.359 7.502-7.502s-3.359-7.502-7.502-7.502-7.502 3.359-7.502 7.502 3.358 7.502 7.502 7.502z"/><path d="m61.662 347.883c4.143 0 7.502-3.359 7.502-7.502s-3.359-7.502-7.502-7.502-7.502 3.359-7.502 7.502c0 4.144 3.359 7.502 7.502 7.502z"/></g><g fill="#b1accc"><path d="m332.583 56.297c0 4.143 3.359 7.502 7.502 7.502s7.502-3.359 7.502-7.502-3.359-7.502-7.502-7.502-7.502 3.359-7.502 7.502z"/><path d="m442.747 171.323c0 4.143 3.359 7.502 7.502 7.502s7.502-3.359 7.502-7.502-3.359-7.502-7.502-7.502-7.502 3.359-7.502 7.502z"/></g></g></svg>