<svg id="Layer_1" enable-background="new 0 0 512 512" height="512" viewBox="0 0 512 512" width="512" xmlns="http://www.w3.org/2000/svg"><g><path d="m504.509 497.567c-.27 3.711-3.231 6.671-6.941 6.941-.45.03-9.482.67-25.515 1.57-39.538 2.181-121.664 5.922-222.744 5.922-71.574 0-152.641-1.87-234.847-7.491-3.741-.26-6.711-3.231-6.971-6.971-16.774-245.37-.161-480.758 0-483.108.27-3.711 3.231-6.671 6.941-6.941 2.27-.15 221.364-15.613 457.101-1.66 8.652.51 17.324 1.07 26.005 1.66 3.741.26 6.711 3.231 6.971 6.971 16.774 245.369.161 480.757 0 483.107z" fill="#fab684"/><path d="m462.001 256.018-20.734 51.58 19.264 52.471c-.96 35.937-2.24 66.553-3.391 89.948-.19 3.851-3.271 6.931-7.121 7.121-7.752.38-16.293.78-25.555 1.18-18.714.79-40.378 1.57-64.423 2.21l-49.72-19.304-54.341 20.776c-2.15.01-4.321.01-6.491.01-31.026 0-63.803-.36-97.689-1.23l-100.59-101.02c-.92-36.107-1.26-70.974-1.21-103.771l20.384-49.78-18.914-54.281c.96-35.937 2.24-66.553 3.391-89.948.19-3.851 3.271-6.931 7.121-7.121 23.395-1.15 54.011-2.431 89.938-3.391l51.62 9.272 52.44-10.742c32.927-.05 67.924.29 104.181 1.22l65.933 66.193 34.697 34.837c.92 36.107 1.26 70.974 1.21 103.77z" fill="#f4f1e1"/><path d="m462.001 256.018-20.734 51.58 19.264 52.471c-.96 35.937-2.24 66.553-3.391 89.948-.19 3.851-3.271 6.931-7.121 7.121-7.752.38-16.293.78-25.555 1.18 5.681-129.736 4.131-255.151 1.63-340.909l34.697 34.837c.92 36.109 1.26 70.976 1.21 103.772z" fill="#f4e5cb"/><g fill="#8389aa"><path d="m255.98 147.136c39.048.07 75.435.64 107.701 1.45.89 37.178 1.22 73.305 1.16 107.412h-108.861z"/><path d="m426.964 150.657c-21.294-.89-42.398-1.57-63.283-2.07-.51-20.454-1.12-39.248-1.74-56.001-.59-15.673-1.2-29.566-1.78-41.368 20.854.53 42.138 1.26 63.673 2.23 8.742.38 17.523.81 26.345 1.28 3.831.2 6.891 3.261 7.091 7.091 1.63 30.686 2.771 60.972 3.521 90.428-11.323-.59-22.605-1.12-33.827-1.59z"/><path d="m148.279 148.287c-31.706.77-64.183 1.94-96.809 3.641-.82 31.116-1.41 66.213-1.47 104.061h97.129c-.061-34.187.259-70.425 1.15-107.702z"/><path d="m462.001 256.018c-.06 37.838-.65 72.935-1.47 104.051-11.042.58-22.074 1.1-33.057 1.55-21.474.91-42.789 1.59-63.773 2.09.9-37.278 1.22-73.505 1.16-107.692h97.14z"/><path d="m148.279 363.41c-31.886-.77-64.283-1.95-97.069-3.651.75 29.456 1.89 59.742 3.521 90.418.2 3.831 3.261 6.891 7.091 7.091 30.526 1.62 60.662 2.761 89.978 3.511-.58-11.802-1.19-25.705-1.78-41.378-.621-16.753-1.231-35.537-1.741-55.991z"/><path d="m255.98 147.136v-97.14c-37.837.06-72.944.65-104.061 1.47-1.7 32.627-2.87 65.103-3.641 96.819 37.288-.888 73.515-1.209 107.702-1.149z"/><path d="m255.981 364.85v-108.856h-108.859c-.06 34.106.265 70.236 1.155 107.411 32.268.806 68.659 1.379 107.703 1.448v97.147c37.848-.06 72.944-.64 104.061-1.47 1.7-32.637 2.871-65.113 3.641-96.829-37.278.889-73.515 1.219-107.701 1.149z"/></g><path d="m201.543 176.074c-13.86 0-25.136 11.266-25.136 25.114s11.276 25.114 25.136 25.114 25.136-11.266 25.136-25.114-11.276-25.114-25.136-25.114z" fill="#c7cde0"/><path d="m97.688 282.495c-13.86 0-25.136 11.266-25.136 25.114s11.276 25.114 25.136 25.114c13.859 0 25.135-11.266 25.135-25.114s-11.276-25.114-25.135-25.114z" fill="#c7cde0"/><g fill="#646d91"><path d="m203.543 73.015c-13.86 0-25.136 11.266-25.136 25.114s11.276 25.114 25.136 25.114 25.136-11.266 25.136-25.114-11.276-25.114-25.136-25.114z"/><path d="m310.319 176.074c-13.86 0-25.136 11.266-25.136 25.114s11.276 25.114 25.136 25.114 25.136-11.266 25.136-25.114-11.276-25.114-25.136-25.114z"/><path d="m309.319 388.077c-13.86 0-25.136 11.266-25.136 25.114s11.276 25.114 25.136 25.114 25.136-11.266 25.136-25.114c-.001-13.848-11.276-25.114-25.136-25.114z"/><path d="m460.791 152.248c-11.322-.59-22.604-1.12-33.827-1.59-.9-39.288-2.09-72.525-3.13-97.21 8.742.38 17.523.81 26.345 1.28 3.831.2 6.891 3.261 7.091 7.091 1.63 30.686 2.771 60.973 3.521 90.429z"/><path d="m462.001 256.018c-.06 37.838-.65 72.935-1.47 104.051-11.042.58-22.074 1.1-33.057 1.55.72-36.627.95-72.125.85-105.601z"/></g><path d="m504.509 497.567c-.27 3.711-3.231 6.671-6.941 6.941-.45.03-9.482.67-25.515 1.57 14.481-250.125-.52-500.251-.52-500.251 8.652.51 17.324 1.07 26.005 1.66 3.741.26 6.711 3.231 6.971 6.971 16.774 245.371.161 480.759 0 483.109z" fill="#f79e60"/></g></svg>