<svg id="Layer_1" enable-background="new 0 0 512 512" height="512" viewBox="0 0 512 512" width="512" xmlns="http://www.w3.org/2000/svg"><g><path d="m479.914 291.015 29.876 96.853c-2.19 50.557-5.231 82.551-5.301 83.291-.36 3.69-3.361 6.571-7.061 6.771-.44.02-9.122.48-24.555 1.12-39.148 1.63-121.724 4.451-223.554 4.451-71.534 0-152.56-1.39-234.726-5.571-3.721-.19-6.741-3.09-7.081-6.811-2.582-28.134-4.382-56.098-5.562-83.272l30.136-96.833-29.876-96.842c2.19-50.567 5.231-82.561 5.301-83.301.36-3.69 3.361-6.571 7.061-6.771.39-.02 37.867-2.01 97.539-3.61 8.512-38.115 17.643-62.608 18.043-63.688 1.03-2.75 3.581-4.641 6.511-4.841.47-.03 47.809-3.19 120.764-3.46 73.014.27 120.354 3.43 120.824 3.46 2.93.2 5.481 2.09 6.511 4.841.41 1.07 9.522 25.533 18.024 63.598 23.695.67 47.069 1.51 69.804 2.52 8.362.37 16.643.77 24.815 1.18 3.721.19 6.742 3.09 7.081 6.811 2.581 28.134 4.381 56.087 5.561 83.261z" fill="#f4f1e1"/><path d="m479.914 291.015 29.876 96.853c-2.19 50.557-5.231 82.551-5.301 83.291-.36 3.69-3.361 6.571-7.061 6.771-.44.02-9.122.48-24.555 1.12 4.461-187.405.28-355.147-.28-376.13 8.362.37 16.643.77 24.815 1.18 3.721.19 6.742 3.09 7.081 6.811 2.581 28.134 4.381 56.087 5.561 83.261z" fill="#f4e5cb"/><path d="m509.79 387.867c-11.692.57-23.555 1.08-35.377 1.54-57.591 2.22-114.353 3.16-146.419 3.53l-144.098-.13c-92.528-1.23-166.773-4.301-181.946-4.961-3.261-74.62-1.91-143.339.26-193.676 15.753-.68 89.668-3.72 181.596-4.941l144.098-.14c32.106.37 88.797 1.31 146.349 3.531 11.962.45 23.975.97 35.797 1.55 3.261 74.622 1.91 143.361-.26 193.697z" fill="#ff7878"/><path d="m382.195 291.015c0 69.579-56.611 126.187-126.195 126.187-5.071 0-10.082-.3-15.003-.89-62.532-7.441-111.192-60.788-111.192-125.297s48.659-117.856 111.192-125.297c4.921-.59 9.932-.89 15.003-.89 69.584 0 126.195 56.607 126.195 126.187z" fill="#8389aa"/><path d="m382.195 291.015c0 69.579-56.611 126.187-126.195 126.187-5.071 0-10.082-.3-15.003-.89 62.532-7.441 111.192-60.788 111.192-125.297s-48.659-117.856-111.192-125.297c4.921-.59 9.932-.89 15.003-.89 69.584 0 126.195 56.607 126.195 126.187z" fill="#646d91"/><path d="m330.325 291.015c0 40.975-33.347 74.32-74.325 74.32-5.131 0-10.142-.52-14.983-1.52-33.827-6.951-59.342-36.955-59.342-72.8s25.515-65.839 59.342-72.79c4.841-1 9.852-1.52 14.983-1.52 8.732 0 17.283 1.5 25.415 4.461.63.22 1.21.53 1.76.91l28.536 20.093c.53.38 1.02.83 1.44 1.34 11.072 13.301 17.174 30.173 17.174 47.506z" fill="#99f8ff"/><path d="m330.325 291.015c0 40.975-33.347 74.32-74.325 74.32-5.131 0-10.142-.52-14.983-1.52 33.847-6.941 59.302-36.895 59.302-72.8s-25.455-65.849-59.302-72.79c4.841-1 9.852-1.52 14.983-1.52 8.732 0 17.283 1.5 25.415 4.461.63.22 1.21.53 1.76.91l28.536 20.093c.53.38 1.02.83 1.44 1.34 11.072 13.301 17.174 30.173 17.174 47.506z" fill="#92d3f7"/><g fill="#e84680"><path d="m445.506 248.615c-.445-4.119-4.155-7.096-8.263-6.651-4.119.444-7.097 4.144-6.654 8.262.044.404 4.307 40.932-.005 83.512-.417 4.122 2.585 7.801 6.707 8.219.257.026.512.039.765.039 3.803 0 7.063-2.881 7.455-6.746 4.476-44.2.18-84.923-.005-86.635z"/><path d="m74.757 241.964c-4.118-.44-7.818 2.533-8.263 6.651-.185 1.712-4.48 42.435-.005 86.634.392 3.865 3.651 6.746 7.455 6.746.252 0 .508-.013.765-.039 4.122-.418 7.124-4.097 6.707-8.218-4.312-42.581-.049-83.108-.005-83.512.443-4.118-2.536-7.817-6.654-8.262z"/></g><path d="m353.539 119.782c-1.43 1.64-3.491 2.58-5.661 2.58-.1 0-.2 0-.31-.01-8.292-.34-16.733-.62-25.205-.83-73.915-1.87-150.21.8-151.06.83-2.28.08-4.451-.87-5.941-2.58-1.49-1.72-2.11-4.02-1.71-6.251 4.491-24.603 10.002-42.186 10.232-42.926.95-3 3.671-5.091 6.811-5.231.67-.04 58.912-2.61 128.095-.95 9.632.23 19.474.54 29.396.95 3.161.13 5.891 2.22 6.851 5.231.23.74 5.741 18.322 10.222 42.926.411 2.241-.219 4.541-1.72 6.261z" fill="#c7cde0"/><path d="m294.459 211.296c-13.86 0-25.136 11.265-25.136 25.112s11.276 25.113 25.136 25.113 25.136-11.266 25.136-25.113-11.276-25.112-25.136-25.112z" fill="#fff"/><g fill="#f4e5cb"><path d="m64.962 153.997c0 4.143 3.359 7.502 7.503 7.502s7.503-3.359 7.503-7.502-3.359-7.502-7.503-7.502-7.503 3.359-7.503 7.502z"/><path d="m100.968 153.998c0 4.143 3.359 7.502 7.503 7.502s7.503-3.359 7.503-7.502-3.359-7.502-7.503-7.502-7.503 3.359-7.503 7.502z"/><path d="m411.032 153.997c0-4.143-3.359-7.502-7.503-7.502s-7.503 3.359-7.503 7.502 3.359 7.502 7.503 7.502 7.503-3.359 7.503-7.502z"/><path d="m447.038 153.998c0-4.143-3.359-7.502-7.503-7.502-4.143 0-7.502 3.359-7.502 7.502s3.359 7.502 7.502 7.502c4.144.001 7.503-3.358 7.503-7.502z"/><path d="m64.962 428.033c0 4.143 3.359 7.502 7.503 7.502s7.503-3.359 7.503-7.502-3.359-7.502-7.503-7.502-7.503 3.358-7.503 7.502z"/><path d="m100.968 428.034c0 4.143 3.359 7.502 7.503 7.502s7.503-3.359 7.503-7.502-3.359-7.502-7.503-7.502-7.503 3.359-7.503 7.502z"/><path d="m403.53 420.531c-4.144 0-7.503 3.359-7.503 7.502s3.359 7.502 7.503 7.502 7.503-3.359 7.503-7.502c-.001-4.144-3.36-7.502-7.503-7.502z"/><path d="m447.038 428.034c0-4.143-3.359-7.502-7.503-7.502-4.143 0-7.502 3.359-7.502 7.502s3.359 7.502 7.502 7.502c4.144 0 7.503-3.359 7.503-7.502z"/></g><path d="m509.79 387.867c-11.692.57-23.555 1.08-35.377 1.54.85-76.47.47-145.439-.16-196.786 11.962.45 23.975.97 35.797 1.55 3.261 74.621 1.91 143.36-.26 193.696z" fill="#e84680"/><path d="m353.539 119.782c-1.43 1.64-3.491 2.58-5.661 2.58-.1 0-.2 0-.31-.01-8.292-.34-16.733-.62-25.205-.83-4.791-28.284-10.502-47.776-13.573-57.108 9.632.23 19.474.54 29.396.95 3.161.13 5.891 2.22 6.851 5.231.23.74 5.741 18.322 10.222 42.926.411 2.241-.219 4.541-1.72 6.261z" fill="#b1accc"/></g></svg>