<svg id="Layer_1" enable-background="new 0 0 512 512" height="512" viewBox="0 0 512 512" width="512" xmlns="http://www.w3.org/2000/svg"><g><path d="m287.01 424.007c-.241.226-.495.439-.757.63l-88.557 64.927c-.474.347-.976.637-1.514.863-66.377 28.087-121.802 6.325-151.538-23.411-3.99-3.99-7.832-8.44-11.433-13.329-23.249-31.484-36.295-80.74-11.971-138.216.226-.538.516-1.04.863-1.514l64.891-88.522c.191-.262.41-.509.637-.75 59.55-62.111 111.459-112.59 137.091-137.148.24-.226.495-.439.757-.63l88.755-65.082c.474-.347.976-.637 1.514-.863 57.477-24.323 106.733-11.277 138.216 11.971 4.889 3.601 9.339 7.443 13.329 11.433 29.743 29.743 51.506 85.168 23.404 151.559-.226.538-.517 1.04-.863 1.514l-64.891 88.55c-.198.269-.403.517-.63.757-19.775 20.652-72.737 75.356-137.303 137.261z" fill="#ff7878"/><path d="m287.01 424.007c-.241.226-.495.439-.757.63l-88.557 64.927c-.474.347-.976.637-1.514.863-66.377 28.087-121.802 6.325-151.538-23.411-3.99-3.99-7.832-8.44-11.433-13.329 31.483 23.248 80.739 36.294 138.209 11.978.538-.226 1.04-.516 1.514-.863l88.557-64.927c.262-.191.516-.403.757-.63 64.566-61.906 117.529-116.609 137.303-137.261.226-.241.432-.488.63-.757l64.891-88.55c.347-.474.637-.976.863-1.514 24.331-57.484 11.277-106.747-11.971-138.23 4.889 3.601 9.339 7.443 13.329 11.433 29.743 29.743 51.506 85.168 23.404 151.559-.226.538-.517 1.04-.863 1.514l-64.891 88.55c-.198.269-.403.517-.63.757-19.775 20.652-72.737 75.356-137.303 137.261z" fill="#e84680"/><g><path d="m280.89 494.226c-5.95 5.95-13.004 8.872-20.404 8.447-13.145-.75-22.986-11.568-25.25-14.27l-.021-.021-43.886-40.985c-22.604-20.1-44.388-41.049-63.363-60.024-36.917-36.917-63.278-66.434-64.771-68.11l-39.259-42.16c-2.71-2.271-13.52-12.105-14.27-25.25-.417-7.393 2.498-14.454 8.448-20.404s13.018-8.872 20.411-8.455c13.152.757 22.994 11.575 25.258 14.277l42.853 40.051.028.028c.545.516 11.78 11.115 21.89 21.607 9.629-7.846 19.817-11.794 30.387-11.78 20.921.05 36.542 15.798 42.435 21.734l.686.686c24.847 24.847 28.024 51.796 9.261 74.931 9.459 9.148 20.411 20.652 21.522 21.819l42.124 42.124.014.014c2.533 2.108 13.598 12.027 14.362 25.328.424 7.402-2.505 14.463-8.455 20.413z" fill="#f4f1e1"/><path d="m280.89 494.226c-5.95 5.95-13.004 8.872-20.404 8.447-13.145-.75-22.986-11.568-25.25-14.27l-.021-.021 39.768-39.896c2.533 2.108 13.598 12.027 14.362 25.328.424 7.401-2.505 14.462-8.455 20.412z" fill="#f4e5cb"/><g><g><path d="m51.27 340.834c-2.78 2.299-6.806 2.292-9.587-.007-5.221-4.344-10.131-8.759-14.589-13.004-2.122-2.009-4.146-3.99-6.049-5.893-11.51-11.511-18.903-20.56-19.363-21.119-2.257-2.78-2.243-6.771.042-9.523 36.634-44.233 74.718-75.016 76.317-76.303 2.759-2.222 6.693-2.207 9.438.028.644.531 12.402 10.153 26.248 24.607 4.471 4.669 9.162 9.855 13.768 15.395 2.278 2.745 2.306 6.721.078 9.502-1.287 1.598-32.077 39.676-76.303 76.317z" fill="#8389aa"/><path d="m51.27 340.834c-2.78 2.299-6.806 2.292-9.587-.007-5.221-4.344-10.131-8.759-14.589-13.004 46.178-43.9 76.112-76.48 86.633-88.203 4.471 4.669 9.162 9.855 13.768 15.395 2.278 2.745 2.306 6.721.078 9.502-1.287 1.598-32.077 39.676-76.303 76.317z" fill="#646d91"/></g><g><path d="m220.717 510.279c-2.78 2.299-6.806 2.292-9.587-.007-5.221-4.344-10.131-8.759-14.589-13.004-2.122-2.009-4.146-3.99-6.049-5.893-11.511-11.511-18.904-20.56-19.364-21.119-2.257-2.78-2.243-6.771.042-9.523 36.634-44.233 74.718-75.016 76.317-76.303 2.759-2.222 6.693-2.207 9.438.028.644.531 12.402 10.153 26.248 24.607 4.471 4.669 9.162 9.855 13.768 15.395 2.278 2.745 2.306 6.721.078 9.502-1.286 1.599-32.076 39.676-76.302 76.317z" fill="#8389aa"/><path d="m220.717 510.279c-2.78 2.299-6.806 2.292-9.587-.007-5.221-4.344-10.131-8.759-14.589-13.004 46.178-43.9 76.112-76.48 86.633-88.203 4.471 4.669 9.162 9.855 13.768 15.395 2.278 2.745 2.306 6.721.078 9.502-1.287 1.599-32.077 39.676-76.303 76.317z" fill="#646d91"/></g></g><ellipse cx="163.857" cy="347.827" fill="#c7cde0" rx="24.422" ry="24.443" transform="matrix(.707 -.707 .707 .707 -197.958 217.74)"/></g><g><path d="m494.226 280.89c5.95-5.95 8.872-13.004 8.447-20.404-.75-13.145-11.568-22.986-14.27-25.25l-.021-.021-40.985-43.886c-20.1-22.604-41.049-44.388-60.024-63.363-36.917-36.917-66.434-63.278-68.11-64.771l-42.16-39.259c-2.271-2.71-12.105-13.52-25.25-14.27-7.393-.417-14.454 2.498-20.404 8.448s-8.872 13.018-8.455 20.411c.757 13.152 11.575 22.994 14.277 25.258l40.051 42.853.028.028c.516.545 11.115 11.78 21.607 21.89-7.846 9.629-11.794 19.817-11.78 30.387.05 20.921 15.798 36.542 21.734 42.435l.686.686c24.847 24.847 51.796 28.024 74.931 9.261 9.148 9.459 20.652 20.411 21.819 21.522l42.124 42.124.014.014c2.108 2.533 12.027 13.598 25.328 14.362 7.402.424 14.463-2.505 20.413-8.455z" fill="#f4f1e1"/><path d="m494.226 280.89c5.95-5.95 8.872-13.004 8.447-20.404-.75-13.145-11.568-22.986-14.27-25.25l-.021-.021-39.896 39.768c2.108 2.533 12.027 13.598 25.328 14.362 7.401.424 14.462-2.505 20.412-8.455z" fill="#f4e5cb"/><g><g><path d="m340.834 51.27c2.299-2.78 2.292-6.806-.007-9.587-4.344-5.221-8.759-10.131-13.004-14.589-2.009-2.122-3.99-4.146-5.893-6.049-11.511-11.51-20.56-18.903-21.119-19.363-2.78-2.257-6.771-2.243-9.523.042-44.233 36.634-75.016 74.718-76.303 76.317-2.222 2.759-2.207 6.693.028 9.438.531.644 10.153 12.402 24.607 26.248 4.669 4.471 9.855 9.162 15.395 13.768 2.745 2.278 6.721 2.306 9.502.078 1.598-1.287 39.676-32.077 76.317-76.303z" fill="#8389aa"/><path d="m340.834 51.27c2.299-2.78 2.292-6.806-.007-9.587-4.344-5.221-8.759-10.131-13.004-14.589-43.9 46.178-76.48 76.112-88.203 86.633 4.669 4.471 9.855 9.162 15.395 13.768 2.745 2.278 6.721 2.306 9.502.078 1.598-1.287 39.676-32.077 76.317-76.303z" fill="#646d91"/></g><g><path d="m510.279 220.717c2.299-2.78 2.292-6.806-.007-9.587-4.344-5.221-8.759-10.131-13.004-14.589-2.009-2.122-3.99-4.146-5.893-6.049-11.511-11.511-20.56-18.904-21.119-19.364-2.78-2.257-6.771-2.243-9.523.042-44.233 36.634-75.016 74.718-76.303 76.317-2.222 2.759-2.207 6.693.028 9.438.531.644 10.153 12.402 24.607 26.248 4.669 4.471 9.855 9.162 15.395 13.768 2.745 2.278 6.721 2.306 9.502.078 1.599-1.286 39.676-32.076 76.317-76.302z" fill="#8389aa"/><path d="m510.279 220.717c2.299-2.78 2.292-6.806-.007-9.587-4.344-5.221-8.759-10.131-13.004-14.589-43.9 46.178-76.48 76.112-88.203 86.633 4.669 4.471 9.855 9.162 15.395 13.768 2.745 2.278 6.721 2.306 9.502.078 1.599-1.287 39.676-32.077 76.317-76.303z" fill="#646d91"/></g></g><ellipse cx="347.827" cy="163.857" fill="#c7cde0" rx="24.422" ry="24.443" transform="matrix(.707 -.707 .707 .707 -13.988 293.943)"/></g></g></svg>