<svg id="Layer_1" enable-background="new 0 0 512.001 512.001" height="512" viewBox="0 0 512.001 512.001" width="512" xmlns="http://www.w3.org/2000/svg"><g><path d="m328.026 353.661-12.933 7.599c.174.297 12.6 21.504 26.828 49.204-74.378-3.293-143.972-1.135-171.923.025 14.234-27.712 26.667-48.932 26.841-49.229l-12.933-7.599c-.25.424-25.158 42.929-45.145 86.736l13.646 6.227c3.201-7.017 6.532-14 9.866-20.779 19.432-.93 101.114-4.297 187.382-.003 3.334 6.779 6.665 13.763 9.867 20.781l13.646-6.226c-19.984-43.807-44.893-86.313-45.142-86.736z" fill="#c7cde0"/><g fill="#f4e5cb"><path d="m148.98 22.38c-3.655 1.949-5.038 6.492-3.088 10.147 5.494 10.302 6.659 21.287 3.285 30.942-.967 2.503-2.087 5.007-3.172 7.43-3.087 6.898-6.279 14.031-6.902 22.754-.926 12.043 3.029 22.553 6.579 30.364 1.257 2.765 3.981 4.399 6.833 4.399 1.038 0 2.092-.217 3.099-.674 3.771-1.714 5.438-6.16 3.725-9.931-2.807-6.176-5.943-14.373-5.276-23.048.438-6.123 2.846-11.504 5.635-17.736 1.18-2.636 2.399-5.361 3.52-8.273.025-.065.049-.131.072-.196 4.833-13.693 3.355-28.996-4.161-43.089-1.95-3.655-6.493-5.037-10.149-3.089z"/><path d="m366.099 25.469c-1.948-3.655-6.492-5.037-10.147-3.088s-5.038 6.492-3.088 10.147c5.494 10.302 6.659 21.287 3.285 30.943-.967 2.503-2.087 5.007-3.172 7.43-3.087 6.898-6.279 14.031-6.902 22.754-.926 12.043 3.029 22.553 6.579 30.364 1.257 2.765 3.981 4.399 6.833 4.399 1.038 0 2.092-.217 3.099-.674 3.771-1.714 5.438-6.16 3.725-9.931-2.807-6.176-5.943-14.373-5.276-23.048.438-6.123 2.846-11.504 5.635-17.736 1.18-2.636 2.399-5.361 3.52-8.273.025-.065.049-.131.073-.197 4.829-13.695 3.352-28.998-4.164-43.09z"/><path d="m253.098.793c-3.705 1.852-5.207 6.357-3.355 10.062 4.924 9.85 7.221 20.242 6.647 30.07-.941 7.639-4.196 14.602-7.64 21.97-1.51 3.231-3.072 6.572-4.45 10.018-.041.102-.08.205-.116.308-5.176 14.791-3.278 32.394 5.489 50.905 1.282 2.707 3.975 4.291 6.784 4.291 1.075 0 2.168-.233 3.205-.724 3.743-1.773 5.341-6.245 3.568-9.989-4.894-10.333-9.712-25.535-4.94-39.378 1.205-2.996 2.587-5.952 4.049-9.079 3.826-8.185 7.782-16.647 8.973-26.771.016-.136.028-.272.037-.409.783-12.525-2.049-25.638-8.188-37.919-1.853-3.705-6.359-5.207-10.063-3.355z"/></g><path d="m460.561 213.411c-5.39 38.19-19.76 71.57-41.67 96.82-34.86 40.14-88.34 60.86-159.03 61.57-1.27.02-2.56.03-3.86.03-72.6 0-127.4-20.73-162.89-61.6-21.92-25.25-36.28-58.64-41.67-96.83l205.02-44.98 170.83 37.66z" fill="#fab684"/><path d="m460.561 213.411c-5.39 38.19-19.76 71.57-41.67 96.82-34.86 40.14-88.34 60.86-159.03 61.57 127.61-1.9 160.28-97.99 167.43-165.72z" fill="#f79e60"/><path d="m461.181 208.701c-.19 1.58-.4 3.15-.62 4.71-4.79-.22-16.53-.71-33.96-1.29-36.07-1.2-96.51-2.72-170.26-2.72-109.09 0-189.74 3.32-204.9 4-.22-1.56-.43-3.12-.62-4.7-3.65-30.18-.59-52.43-.46-53.36.5-3.56 3.47-6.26 7.07-6.44.82-.04 83.97-3.97 198.97-3.97 76.52 0 138.59 1.74 171.8 2.92 16.7.59 26.11 1.04 26.38 1.05 3.59.18 6.56 2.88 7.06 6.44.13.93 3.19 23.18-.46 53.36z" fill="#f4f1e1"/><g><path d="m174.311 473.171c0 21.41-17.41 38.83-38.81 38.83-1.28 0-2.54-.06-3.78-.18-19.63-1.91-35.03-18.52-35.03-38.65 0-20.14 15.4-36.74 35.04-38.65 1.24-.12 2.5-.18 3.77-.18 21.4 0 38.81 17.42 38.81 38.83z" fill="#8389aa"/><path d="m174.311 473.171c0 21.41-17.41 38.83-38.81 38.83-1.28 0-2.54-.06-3.78-.18 13.48-7.62 22.59-22.09 22.59-38.65 0-16.55-9.11-31.02-22.58-38.65 1.24-.12 2.5-.18 3.77-.18 21.4 0 38.81 17.42 38.81 38.83z" fill="#646d91"/><path d="m135.501 465.669c-4.143 0-7.501 3.358-7.501 7.501s3.358 7.501 7.501 7.501 7.501-3.358 7.501-7.501c0-4.142-3.359-7.501-7.501-7.501z" fill="#c7cde0"/></g><g><path d="m415.311 473.17c0 21.41-17.41 38.83-38.81 38.83-1.28 0-2.54-.06-3.78-.18-19.63-1.91-35.03-18.52-35.03-38.65 0-20.14 15.4-36.74 35.04-38.65 1.24-.12 2.5-.18 3.77-.18 21.4 0 38.81 17.42 38.81 38.83z" fill="#8389aa"/><path d="m415.311 473.17c0 21.41-17.41 38.83-38.81 38.83-1.28 0-2.54-.06-3.78-.18 13.48-7.62 22.59-22.09 22.59-38.65 0-16.55-9.11-31.02-22.58-38.65 1.24-.12 2.5-.18 3.77-.18 21.4 0 38.81 17.42 38.81 38.83z" fill="#646d91"/><path d="m376.501 465.668c-4.143 0-7.501 3.358-7.501 7.501s3.358 7.501 7.501 7.501 7.501-3.358 7.501-7.501c0-4.142-3.359-7.501-7.501-7.501z" fill="#c7cde0"/></g><path d="m461.181 208.701c-.19 1.58-.4 3.15-.62 4.71-4.79-.22-16.53-.71-33.96-1.29 3.57-28.39 2.51-52.62 1.6-64.27 16.7.59 26.11 1.04 26.38 1.05 3.59.18 6.56 2.88 7.06 6.44.13.93 3.19 23.18-.46 53.36z" fill="#f4e5cb"/></g></svg>