<svg id="Layer_1" enable-background="new 0 0 512 512" height="512" viewBox="0 0 512 512" width="512" xmlns="http://www.w3.org/2000/svg"><g><path d="m397.006 501.31c-.11 3.94-3.26 7.12-7.2 7.28-8.36.33-16.71.64-25.05.91-54.969 1.83-109.138 2.47-157.927 2.47-111.558 0-195.077-3.33-196.327-3.38-3.94-.16-7.08-3.34-7.19-7.28-4.6-161.783-3.57-310.997-1.9-407.683.03-1.57.54-3.09 1.48-4.34 31.15-41.948 63.96-72.127 80.739-86.376 1.32-1.12 2.98-1.75 4.7-1.78 45.279-.93 158.567-2.54 276.455 1.37 8.33.27 16.67.58 25.02.91 3.93.16 7.07 3.32 7.2 7.25.08 2.29 7.34 232.34 0 490.649z" fill="#f4f1e1"/><path d="m89.291 86.278c-.16 4.28-3.52 7.77-7.8 8.05-39.159 2.62-80.079-.7-80.079-.7.03-1.57.54-3.09 1.48-4.34 31.15-41.949 63.96-72.128 80.739-86.377 1.32-1.12 2.98-1.75 4.7-1.78 2.37 35.899 1.52 70.407.96 85.147z" fill="#fab684"/><g><path d="m510.384 417.904-30.139 7.39-10.69 2.62-40.839-9.98c-3.13-149.114-1.05-279.398.69-349.956.02-.8.17-1.58.44-2.33l40.149-10 10.46 2.66 28.81 7.34c.26.75.41 1.53.43 2.33 1.739 70.547 3.819 200.812.689 349.926z" fill="#ffe36c"/><path d="m510.384 417.904-30.139 7.39c2.54-220.401 1.7-357.895 1.7-357.895-.48-3-.98-6.04-1.49-9.09l28.81 7.34c.26.75.41 1.53.43 2.33 1.739 70.546 3.819 200.811.689 349.925z" fill="#ffc46e"/><path d="m510.384 417.904c-.23 10.91-.48 21.919-.77 33.019l-29.869 14.889-10.19 5.08-40.059-20.029c-.29-11.07-.55-22.049-.78-32.929 3.24-.26 25.09-1.93 51.629-1.5 9.609.16 19.849.59 30.039 1.47z" fill="#f4f1e1"/><path d="m510.384 417.904c-.23 10.91-.48 21.919-.77 33.019l-29.869 14.889c.22-16.899.42-33.359.6-49.378 9.609.16 19.849.59 30.039 1.47z" fill="#f4e5cb"/><path d="m509.264 65.648c-8.5 1.07-17.97 1.59-27.32 1.76-26.53.49-52.099-1.76-52.099-1.76.48-1.34 11.96-33.209 33.679-62.487 1.42-1.91 3.65-3.03 6.03-3.03 2.37 0 4.61 1.12 6.02 3.03 21.72 29.279 33.21 61.147 33.69 62.487z" fill="#8389aa"/><path d="m509.614 450.923c-.45 17.289-.97 34.789-1.57 52.438-.13 3.77-3.05 6.86-6.81 7.21-7.76.72-15.22 1.12-22.12 1.3-3.39.09-6.64.13-9.72.13-18.28 0-30.869-1.35-31.66-1.44-3.7-.41-6.54-3.48-6.67-7.2-.6-17.669-1.12-35.189-1.57-52.498 5.07-.44 25.69-2.06 50.469-1.58 9.481.17 19.581.66 29.651 1.64z" fill="#ff7878"/><path d="m509.614 450.923c-.45 17.289-.97 34.789-1.57 52.438-.13 3.77-3.05 6.86-6.81 7.21-7.76.72-15.22 1.12-22.12 1.3.32-21.479.59-42.358.85-62.587 9.48.169 19.58.659 29.65 1.639z" fill="#e84680"/></g><g fill="#fab684"><path d="m71.074 169.939h258.174c4.143 0 7.5-3.358 7.5-7.5s-3.357-7.5-7.5-7.5h-258.174c-4.142 0-7.5 3.358-7.5 7.5s3.358 7.5 7.5 7.5z"/><path d="m329.247 205.937h-258.173c-4.142 0-7.5 3.358-7.5 7.5s3.358 7.5 7.5 7.5h258.174c4.143 0 7.5-3.358 7.5-7.5-.001-4.142-3.358-7.5-7.501-7.5z"/><path d="m160.216 118.941h79.89c4.142 0 7.5-3.358 7.5-7.5s-3.358-7.5-7.5-7.5h-79.89c-4.142 0-7.5 3.358-7.5 7.5s3.358 7.5 7.5 7.5z"/><path d="m329.247 256.935h-258.173c-4.142 0-7.5 3.358-7.5 7.5s3.358 7.5 7.5 7.5h258.174c4.143 0 7.5-3.358 7.5-7.5-.001-4.142-3.358-7.5-7.501-7.5z"/><path d="m329.247 307.933h-258.173c-4.142 0-7.5 3.358-7.5 7.5s3.358 7.5 7.5 7.5h258.174c4.143 0 7.5-3.358 7.5-7.5-.001-4.142-3.358-7.5-7.501-7.5z"/><path d="m329.247 358.931h-258.173c-4.142 0-7.5 3.358-7.5 7.5s3.358 7.5 7.5 7.5h258.174c4.143 0 7.5-3.358 7.5-7.5-.001-4.142-3.358-7.5-7.501-7.5z"/><path d="m329.247 409.929h-258.173c-4.142 0-7.5 3.358-7.5 7.5s3.358 7.5 7.5 7.5h258.174c4.143 0 7.5-3.358 7.5-7.5s-3.358-7.5-7.501-7.5z"/></g><path d="m397.006 501.31c-.11 3.94-3.26 7.12-7.2 7.28-8.36.33-16.71.64-25.05.91 3.44-238.94.66-462.241.03-506.999 8.33.27 16.67.58 25.02.91 3.93.16 7.07 3.32 7.2 7.25.08 2.29 7.34 232.34 0 490.649z" fill="#f4e5cb"/><path d="m481.945 67.398c-5.05-31.659-12.39-67.267-12.39-67.267 2.37 0 4.61 1.12 6.02 3.03 21.72 29.279 33.209 61.148 33.689 62.487-8.5 1.07-17.97 1.59-27.32 1.76.001-.01.001-.01.001-.01z" fill="#646d91"/></g></svg>