<svg id="Layer_1" enable-background="new 0 0 512 512" height="512" viewBox="0 0 512 512" width="512" xmlns="http://www.w3.org/2000/svg"><g><path d="m512 256c0 25.96-3.84 51.32-11.25 75.45l-95.51 132.62c-20.8 14.99-43.57 26.65-67.66 34.71h-163.16c-24.01-8.03-46.72-19.65-67.47-34.58l-95.63-132.54c-7.46-24.19-11.32-49.63-11.32-75.66 0-23.9 3.25-47.3 9.56-69.69l92.24-134.71c22.06-16.72 46.48-29.61 72.42-38.32h163.56c26.01 8.73 50.49 21.67 72.6 38.46l92.12 134.78c6.27 22.33 9.5 45.65 9.5 69.48z" fill="#c7cde0"/><path d="m512 256c0 25.96-3.84 51.32-11.25 75.45l-95.51 132.62c-20.8 14.99-43.57 26.65-67.66 34.71h-40.17c101.47-34.01 174.59-129.86 174.59-242.78 0-112.86-73.03-208.66-174.41-242.72h40.19c26.01 8.73 50.49 21.67 72.6 38.46l92.12 134.78c6.27 22.33 9.5 45.65 9.5 69.48z" fill="#b1accc"/><g fill="#b1accc"><path d="m256 328.195c-4.143 0-7.5 3.358-7.5 7.5v89.218c0 4.142 3.357 7.5 7.5 7.5s7.5-3.358 7.5-7.5v-89.218c0-4.142-3.357-7.5-7.5-7.5z"/><path d="m256 86.407c-4.143 0-7.5 3.358-7.5 7.5v82.61c0 4.142 3.357 7.5 7.5 7.5s7.5-3.358 7.5-7.5v-82.61c0-4.142-3.357-7.5-7.5-7.5z"/><path d="m179.361 295.144c-1.377.986-34.074 24.477-64.17 53.825-2.966 2.892-3.025 7.64-.133 10.606 1.47 1.507 3.419 2.264 5.37 2.264 1.888 0 3.777-.708 5.235-2.13 29.253-28.526 62.1-52.132 62.428-52.367 3.368-2.411 4.144-7.096 1.733-10.464s-7.094-4.145-10.463-1.734z"/><path d="m332.639 295.144c-3.368-2.409-8.052-1.635-10.464 1.734-2.411 3.368-1.635 8.053 1.733 10.464.328.234 33.141 23.806 62.428 52.366 1.459 1.422 3.348 2.13 5.235 2.13 1.951 0 3.901-.757 5.37-2.264 2.893-2.966 2.833-7.714-.133-10.606-30.095-29.347-62.792-52.838-64.169-53.824z"/><path d="m187.75 204.639c-.321-.205-32.477-20.722-62.503-45.905-3.174-2.661-7.904-2.247-10.565.927-2.662 3.173-2.247 7.904.927 10.566 30.811 25.841 62.75 46.215 64.095 47.07 1.247.793 2.64 1.171 4.017 1.171 2.479 0 4.906-1.229 6.336-3.477 2.22-3.494 1.188-8.13-2.307-10.352z"/><path d="m328.28 218.469c1.376 0 2.77-.379 4.017-1.171 1.345-.855 33.284-21.229 64.095-47.07 3.174-2.662 3.589-7.393.927-10.566-2.662-3.175-7.394-3.589-10.565-.927-30.026 25.183-62.182 45.7-62.503 45.905-3.495 2.222-4.527 6.857-2.306 10.353 1.429 2.247 3.856 3.476 6.335 3.476z"/></g><g fill="#8389aa"><path d="m335.74 301.99c-.23 2.3-1.51 4.36-3.47 5.6-1.5.95-37.35 23.43-73.97 35.24-.75.24-1.52.36-2.3.36s-1.55-.12-2.3-.36c-36.62-11.81-72.47-34.29-73.97-35.24-1.96-1.24-3.24-3.3-3.47-5.6-4.66-46.76-.18-89.99.01-91.81.24-2.28 1.51-4.33 3.46-5.56 1.5-.95 37.35-23.43 73.97-35.24 1.49-.48 3.11-.48 4.6 0 36.62 11.81 72.47 34.29 73.97 35.24 1.95 1.23 3.22 3.28 3.46 5.56.19 1.82 4.67 45.05.01 91.81z"/><path d="m337.58 498.78c-25.95 8.7-53.42 13.22-81.58 13.22-6.72 0-13.41-.26-20.04-.77-21.15-1.63-41.79-5.83-61.54-12.45.56-19.05 1.81-39.66 1.82-39.87.15-2.41 1.45-4.6 3.49-5.89 1.5-.95 37.35-23.43 73.97-35.24 1.49-.49 3.11-.49 4.6 0 36.62 11.81 72.47 34.29 73.97 35.24 2.05 1.29 3.34 3.48 3.49 5.89.01.15.62 10.23 1.18 22.77.24 5.44.47 11.34.64 17.1z"/><path d="m337.78 13.28c-.06 4.91-.18 10.96-.38 17.29-.32 10.35-.85 21.45-1.66 29.63-.23 2.3-1.51 4.37-3.47 5.6-1.5.95-37.35 23.43-73.97 35.25-.75.24-1.52.36-2.3.36s-1.55-.12-2.3-.36c-36.62-11.82-72.47-34.3-73.97-35.25-1.96-1.23-3.24-3.3-3.47-5.6-1.31-13.19-1.87-33.97-2.04-46.92 19.8-6.66 40.5-10.88 61.72-12.51 6.64-.51 13.33-.77 20.06-.77 28.24 0 55.78 4.54 81.78 13.28z"/><path d="m502.5 186.52c-16.08 10.6-34.14 21.68-34.33 21.8-.18.11-.36.21-.55.3-1.06.53-2.21.8-3.37.8-.99 0-1.97-.19-2.9-.58-1.65-.69-40.62-17.16-71.3-40.38-1.26-.95-2.18-2.27-2.65-3.77-11.32-36.77-13.47-79.03-13.55-80.81-.12-2.41.93-4.73 2.82-6.23.1-.08 5.38-4.28 12.73-9.98 6.16-4.77 13.76-10.59 20.98-15.93 9.32 7.07 18.22 14.83 26.64 23.24 31.5 31.51 53.79 69.78 65.48 111.54z"/><path d="m142.15 432.939c.11 2.31-.85 4.54-2.6 6.05-8.66 7.45-22.28 17.69-32.6 25.21-11.27-8.1-21.96-17.18-31.97-27.18-29.94-29.94-51.56-66-63.66-105.36 10.74-7.26 26.19-17.38 36.76-23.3 2.02-1.14 4.44-1.27 6.57-.38 1.65.69 40.62 17.16 71.3 40.38 1.26.95 2.18 2.27 2.65 3.77 11.32 36.77 13.47 79.03 13.55 80.81z"/><path d="m138.53 83.879c-.09 1.78-2.24 44.04-13.56 80.81-.46 1.5-1.39 2.82-2.64 3.77-30.68 23.22-69.66 39.69-71.3 40.38-.93.39-1.92.58-2.9.58-1.37 0-2.73-.37-3.92-1.1-.19-.12-18.48-11.34-34.65-22.01 11.71-41.68 33.97-79.87 65.42-111.33 8.47-8.47 17.43-16.27 26.82-23.38 15.92 11.75 33.72 25.9 33.9 26.05 1.89 1.5 2.94 3.82 2.83 6.23z"/><path d="m500.75 331.45c-12.1 39.44-33.73 75.57-63.73 105.57-9.95 9.95-20.58 18.98-31.78 27.05-6.28-4.59-13.76-10.16-20.59-15.48-4.37-3.4-8.48-6.71-11.83-9.6-1.75-1.51-2.71-3.74-2.6-6.05.09-1.78 2.24-44.04 13.56-80.81.46-1.5 1.39-2.82 2.64-3.77 30.68-23.22 69.66-39.69 71.3-40.38 2.13-.89 4.56-.76 6.57.38.68.38 1.37.78 2.09 1.19 10.34 5.97 24.33 15.13 34.37 21.9z"/></g><g fill="#646d91"><path d="m336.94 481.68c.24 5.44.47 11.34.64 17.1-25.95 8.7-53.42 13.22-81.58 13.22-6.72 0-13.41-.26-20.04-.77 36.31-2.8 70.49-13.17 100.98-29.55z"/><path d="m256 0c28.24 0 55.78 4.54 81.78 13.28-.06 4.91-.18 10.96-.38 17.29-30.61-16.53-64.96-26.99-101.46-29.8 6.64-.51 13.33-.77 20.06-.77z"/><path d="m389.4 67.67c6.16-4.77 13.76-10.59 20.98-15.93 9.32 7.07 18.22 14.83 26.64 23.24 31.5 31.51 53.79 69.78 65.48 111.54-16.08 10.6-34.14 21.68-34.33 21.8-.18.11-.36.21-.55.3-10.35-55.3-38.47-104.34-78.22-140.95z"/><path d="m466.38 309.55c10.34 5.97 24.33 15.13 34.37 21.9-12.1 39.44-33.73 75.57-63.73 105.57-9.95 9.95-20.58 18.98-31.78 27.05-6.28-4.59-13.76-10.16-20.59-15.48 40.73-35.69 70.05-84.11 81.73-139.04z"/><path d="m335.74 301.99c-.23 2.3-1.51 4.36-3.47 5.6-1.5.95-37.35 23.43-73.97 35.24-.75.24-1.52.36-2.3.36 35.69-31.29 53.32-54.3 53.32-54.3 2.5-33.09 0-67.82 0-67.82-20.58-23.83-51.02-51.69-51.02-51.69 36.62 11.81 72.47 34.29 73.97 35.24 1.95 1.23 3.22 3.28 3.46 5.56.19 1.82 4.67 45.05.01 91.81z"/></g></g></svg>