<svg id="Layer_1" enable-background="new 0 0 512 512" height="512" viewBox="0 0 512 512" width="512" xmlns="http://www.w3.org/2000/svg"><g><path d="m472.51 494.38c-.29.05-10 2.01-27.57 4.6-35.39 5.23-102.68 13.02-188.94 13.02-129.07 0-215.65-17.45-216.51-17.62-3.68-.76-6.24-4.13-5.97-7.89 14.49-201.72 48.8-381.85 50.27-389.51.19-1.23.68-2.4 1.45-3.4 1.22-1.6 3.03-2.68 5.02-2.93 36.09-4.48 94.13-9.83 165.74-9.83 54.31 0 100.81 3.08 135.85 6.52 11.17 1.09 21.17 2.23 29.89 3.31 1.99.25 3.81 1.29 5.03 2.89.84 1.1 1.35 2.4 1.5 3.75 2.14 11.2 35.87 189.63 50.21 389.2.27 3.76-2.29 7.13-5.97 7.89z" fill="#99f8ff"/><path d="m371.869 213.622c17.011-75.459 10.771-132.53-18.594-169.662-32.258-40.79-82.611-43.96-97.275-43.96s-65.017 3.17-97.275 43.96c-29.36 37.126-35.603 94.184-18.602 169.625-5.659 4.608-9.281 11.623-9.281 19.469 0 13.846 11.273 25.111 25.131 25.111s25.131-11.265 25.131-25.111-11.273-25.111-25.131-25.111c-.583 0-1.16.027-1.734.066-15.34-69.656-9.885-121.696 16.251-154.745 28.079-35.505 72.549-38.264 85.51-38.264s57.431 2.759 85.51 38.264c26.137 33.05 31.592 85.091 16.251 154.749-.591-.042-1.186-.071-1.788-.071-13.857 0-25.131 11.265-25.131 25.111s11.273 25.111 25.131 25.111 25.131-11.265 25.131-25.111c0-7.824-3.602-14.822-9.235-19.431z" fill="#8389aa"/><g fill="#92d3f7"><path d="m303.385 401.463h-94.77c-4.143 0-7.5 3.358-7.5 7.5s3.357 7.5 7.5 7.5h94.77c4.143 0 7.5-3.358 7.5-7.5s-3.358-7.5-7.5-7.5z"/><ellipse cx="256" cy="317.922" rx="69.8" ry="57.066"/><path d="m472.51 494.38c-.29.05-10 2.01-27.57 4.6-15.11-201.42-46.49-376.25-53.09-411.64 11.17 1.09 21.17 2.23 29.89 3.31 1.99.25 3.81 1.29 5.03 2.89.84 1.1 1.35 2.4 1.5 3.75 2.14 11.2 35.87 189.63 50.21 389.2.27 3.76-2.29 7.13-5.97 7.89z"/></g></g></svg>