<svg id="Layer_1" enable-background="new 0 0 512 512" height="512" viewBox="0 0 512 512" width="512" xmlns="http://www.w3.org/2000/svg"><g><g fill="#c5ef7b"><path d="m228.55 180.217c.07 3.37-2.12 6.38-5.36 7.34-1.06.32-13.61 3.91-31.55 3.91-19.86 0-46.32-4.4-71.15-22.529-47.25-34.519-48.92-89.808-48.96-92.138-.07-3.38 2.12-6.39 5.36-7.35 2.24-.66 55.44-15.88 102.7 18.63 47.25 34.508 48.92 89.797 48.96 92.137z"/><path d="m383.1 98.049c-13.8 13.8-29.24 21.79-43.43 26.349-14.84 4.77-28.32 5.79-37.14 5.79-6.09 0-9.96-.49-10.52-.56-3.34-.45-5.97-3.08-6.43-6.43-.28-2.14-6.63-52.849 31.6-91.058 16.7-16.7 35.8-24.889 52.18-28.789 21.1-5.03 37.7-2.95 38.9-2.79 3.35.45 5.98 3.08 6.43 6.43.29 2.14 6.63 52.848-31.59 91.058z"/></g><path d="m228.55 180.217c-54.2-95.598-151.66-110.768-151.66-110.768 2.24-.66 55.44-15.88 102.7 18.63 47.25 34.509 48.92 89.798 48.96 92.138z" fill="#81e276"/><path d="m359.743 60.645c-2.458-3.335-7.152-4.045-10.487-1.588-38.452 28.339-68.284 59.469-84.017 77.223-8.842-106.41-57.869-134.017-60.44-135.387-3.653-1.948-8.223-.578-10.172 3.076-1.949 3.655-.591 8.183 3.064 10.133.171.095 17.268 9.814 32.018 40.286 18.415 38.043 22.743 86.027 21.668 128.512-58.023-21.547-95.403-59.059-95.978-59.642-2.898-2.96-7.647-3.01-10.605-.112-2.96 2.897-3.01 7.646-.113 10.606 1.73 1.766 42.033 42.418 106.053 64.865-.535 9.512-1.298 18.631-2.192 27.141-.433 4.119 2.556 7.809 6.676 8.242.266.028.53.042.792.042 3.79 0 7.045-2.864 7.45-6.718 2.714-25.837 3.548-48.857 2.976-69.351 7.956-9.676 43.162-51.054 91.719-86.842 3.334-2.457 4.045-7.152 1.588-10.486z" fill="#52c681"/><path d="m429.24 301.164c-.08.91-7.34 92.168-36.63 197.316-.81 2.9-3.28 5.03-6.26 5.42-.24.03-9.44 1.21-24.48 2.67-24.41 2.36-64.19 5.43-105.87 5.43-67.34 0-129.73-8.02-130.35-8.1-2.97-.39-5.43-2.5-6.24-5.39-27.47-96.718-36.55-196.256-36.64-197.256-.18-2.09.52-4.17 1.94-5.73 1.42-1.55 3.43-2.43 5.53-2.43h331.52c2.09 0 4.08.87 5.5 2.4s2.14 3.59 1.98 5.67z" fill="#fab684"/><g fill="#f79e60"><path d="m429.24 301.164c-.08.91-7.34 92.168-36.63 197.316-.81 2.9-3.28 5.03-6.26 5.42-.24.03-9.44 1.21-24.48 2.67 25.41-113.038 35.53-185.796 38.86-213.476h21.03c2.09 0 4.08.87 5.5 2.4s2.14 3.59 1.98 5.67z"/><path d="m453.53 299.924c-.21 3.81-3.25 6.86-7.07 7.08-.34.02-17.19.94-47.72 1.88-32.88 1.02-81.64 2.07-142.74 2.07-117.81 0-189.74-3.91-190.46-3.95-3.82-.22-6.86-3.27-7.07-7.08-1.91-35.109-.02-69.519 0-69.859.21-3.81 3.26-6.86 7.07-7.07.72-.04 72.65-3.95 190.46-3.95 60.91 0 109.56 1.05 142.44 2.06 30.72.95 47.68 1.87 48.02 1.89 3.81.21 6.86 3.26 7.07 7.07.02.341 1.91 34.75 0 69.859z"/><ellipse cx="256.001" cy="411.546" rx="69.8" ry="57.065"/></g><path d="m453.53 299.924c-.21 3.81-3.25 6.86-7.07 7.08-.34.02-17.19.94-47.72 1.88 1.57-41.049.31-75.148-.3-87.778 30.72.95 47.68 1.87 48.02 1.89 3.81.21 6.86 3.26 7.07 7.07.02.34 1.91 34.749 0 69.858z" fill="#d77d41"/><path d="m383.1 98.049c-13.8 13.8-29.24 21.79-43.43 26.349l.01-.01c83.68-94.668 29.68-121.037 29.68-121.037 21.1-5.03 37.7-2.95 38.9-2.79 3.35.45 5.98 3.08 6.43 6.43.29 2.14 6.63 52.848-31.59 91.058z" fill="#81e276"/></g></svg>