<svg id="Layer_1" enable-background="new 0 0 512 512" height="512" viewBox="0 0 512 512" width="512" xmlns="http://www.w3.org/2000/svg"><g><path d="m429.22 497.07c-.14 3.73-2.99 6.79-6.7 7.18-.24.03-8.15.86-21.9 1.96-16.49 1.33-41.4 3.06-71.56 4.28l-73.06-20-73.06 20c-55.32-2.24-92.94-6.18-93.46-6.24-3.71-.39-6.56-3.45-6.7-7.18-9.36-253.53-.09-479.92 0-482.18.16-3.71 3.01-6.75 6.7-7.14.52-.06 38.14-4 93.46-6.24l73.06 20 73.06-20c30.02 1.22 54.84 2.93 71.33 4.26 13.89 1.11 21.89 1.95 22.13 1.98 3.69.39 6.54 3.43 6.7 7.14.09 2.26 9.36 228.65 0 482.18z" fill="#c5ef7b"/><path d="m429.22 497.07c-.14 3.73-2.99 6.79-6.7 7.18-.24.03-8.15.86-21.9 1.96 8.28-235.58 1.12-461.85-.23-500.44 13.89 1.11 21.89 1.95 22.13 1.98 3.69.39 6.54 3.43 6.7 7.14.09 2.26 9.36 228.65 0 482.18z" fill="#81e276"/><g fill="#8389aa"><path d="m329.06 510.49c-10.52.43-21.69.79-33.37 1.05-12.69.29-25.97.46-39.69.46-26.34 0-51.1-.62-73.06-1.51.43-21.13.92-40.79.93-41 .09-3.77 2.96-6.88 6.7-7.28 1.17-.12 29.05-3.04 65.43-3.04 14.22 0 27.15.45 37.69.99 16.41.87 27.03 1.98 27.74 2.05 3.74.4 6.61 3.51 6.7 7.28.01.21.5 19.87.93 41z"/><path d="m329.06 1.51c-.43 21.14-.92 40.8-.93 41.02-.09 3.76-2.96 6.87-6.7 7.27-.63.07-9.11.95-22.52 1.75-11.35.68-26.24 1.29-42.91 1.29-36.38 0-64.26-2.92-65.43-3.04-3.74-.4-6.61-3.51-6.7-7.27-.01-.22-.5-19.88-.93-41.02 21.96-.89 46.72-1.51 73.06-1.51 15.38 0 30.22.21 44.28.57 10.02.25 19.64.57 28.78.94z"/></g><g><path d="m255.932 222.815c-18.292 0-33.175 14.887-33.175 33.186 0 18.298 14.882 33.185 33.175 33.185s33.174-14.887 33.174-33.185c0-18.299-14.881-33.186-33.174-33.186z" fill="#fff"/><g fill="#52c681"><path d="m123.515 248.498c-4.143 0-7.501 3.358-7.501 7.501s3.358 7.501 7.501 7.501 7.501-3.358 7.501-7.501c.001-4.142-3.358-7.501-7.501-7.501z"/><path d="m158.506 248.498c-4.143 0-7.501 3.358-7.501 7.501s3.358 7.501 7.501 7.501 7.501-3.358 7.501-7.501c0-4.142-3.359-7.501-7.501-7.501z"/><path d="m193.495 248.498c-4.143 0-7.501 3.358-7.501 7.501s3.358 7.501 7.501 7.501 7.501-3.358 7.501-7.501c.001-4.142-3.358-7.501-7.501-7.501z"/><path d="m318.435 248.498c-4.143 0-7.501 3.358-7.501 7.501s3.358 7.501 7.501 7.501 7.501-3.358 7.501-7.501c0-4.142-3.358-7.501-7.501-7.501z"/><path d="m353.425 248.498c-4.143 0-7.501 3.358-7.501 7.501s3.358 7.501 7.501 7.501 7.501-3.358 7.501-7.501c.001-4.142-3.358-7.501-7.501-7.501z"/><path d="m388.415 248.498c-4.143 0-7.501 3.358-7.501 7.501s3.358 7.501 7.501 7.501 7.501-3.358 7.501-7.501c0-4.142-3.358-7.501-7.501-7.501z"/></g></g><g><g><path d="m474.667 399.375c-233.066-4.43-430.41.568-432.375.62-4.141.107-7.411 3.551-7.303 7.691.106 4.074 3.442 7.306 7.494 7.306.066 0 .132-.001.198-.003 1.963-.051 198.99-5.043 431.702-.616 4.148.082 7.563-3.216 7.641-7.356.077-4.142-3.216-7.562-7.357-7.642z" fill="#8389aa"/><path d="m55.468 369.997c-4.117.453-7.087 4.157-6.636 8.273.029.27 2.916 27.271-.012 58.565-.386 4.124 2.645 7.779 6.769 8.166.238.021.474.033.708.033 3.827 0 7.095-2.916 7.458-6.803 3.077-32.885.115-60.446-.013-61.604-.453-4.115-4.163-7.082-8.274-6.63z" fill="#c7cde0"/><path d="m489.507 384.993c-12.403 0-22.494 10.094-22.494 22.5s10.091 22.5 22.494 22.5 22.494-10.094 22.494-22.5-10.092-22.5-22.494-22.5z" fill="#99f8ff"/></g><g><path d="m37.333 329.376c233.066-4.43 430.41.568 432.375.62 4.141.107 7.411 3.551 7.303 7.691-.106 4.074-3.442 7.306-7.494 7.306-.066 0-.132-.001-.198-.003-1.963-.051-198.99-5.043-431.702-.616-4.148.082-7.563-3.216-7.641-7.356-.077-4.142 3.216-7.563 7.357-7.642z" fill="#8389aa"/><path d="m456.532 299.997c4.117.453 7.087 4.157 6.636 8.273-.029.27-2.916 27.271.012 58.565.386 4.124-2.645 7.779-6.769 8.166-.238.021-.474.033-.708.033-3.827 0-7.095-2.916-7.458-6.803-3.077-32.885-.115-60.446.013-61.604.453-4.114 4.163-7.081 8.274-6.63z" fill="#c7cde0"/><path d="m22.494 314.993c12.403 0 22.494 10.094 22.494 22.5s-10.091 22.5-22.494 22.5-22.494-10.094-22.494-22.5 10.091-22.5 22.494-22.5z" fill="#99f8ff"/></g></g><g><g><path d="m37.333 166.389c233.066-4.43 430.41.568 432.375.62 4.141.107 7.411 3.551 7.303 7.691-.106 4.074-3.442 7.306-7.494 7.306-.066 0-.132-.001-.198-.003-1.963-.051-198.99-5.043-431.702-.616-4.148.082-7.563-3.216-7.641-7.356-.077-4.142 3.216-7.563 7.357-7.642z" fill="#8389aa"/><path d="m456.532 137.01c4.117.453 7.087 4.157 6.636 8.273-.029.27-2.916 27.271.012 58.565.386 4.124-2.645 7.779-6.769 8.166-.238.021-.474.033-.708.033-3.827 0-7.095-2.916-7.458-6.803-3.077-32.885-.115-60.446.013-61.604.453-4.114 4.163-7.081 8.274-6.63z" fill="#c7cde0"/><path d="m22.494 152.007c12.403 0 22.494 10.094 22.494 22.5s-10.091 22.5-22.494 22.5-22.494-10.094-22.494-22.5c0-12.407 10.091-22.5 22.494-22.5z" fill="#ff7878"/></g><g><path d="m474.667 96.39c-233.067-4.43-430.411.568-432.376.62-4.141.107-7.411 3.551-7.303 7.691.106 4.074 3.442 7.306 7.494 7.306.066 0 .132-.001.198-.003 1.963-.051 198.99-5.043 431.702-.616 4.148.082 7.563-3.216 7.641-7.356.078-4.142-3.215-7.563-7.356-7.642z" fill="#8389aa"/><path d="m55.468 67.011c-4.117.453-7.087 4.157-6.636 8.273.029.27 2.916 27.271-.012 58.565-.386 4.124 2.645 7.779 6.769 8.166.238.021.474.033.708.033 3.827 0 7.095-2.916 7.458-6.803 3.077-32.885.115-60.446-.013-61.604-.453-4.115-4.163-7.081-8.274-6.63z" fill="#c7cde0"/><path d="m489.507 82.007c-12.403 0-22.494 10.094-22.494 22.5s10.091 22.5 22.494 22.5 22.494-10.094 22.494-22.5-10.092-22.5-22.494-22.5z" fill="#ff7878"/></g></g><g fill="#646d91"><path d="m329.06 1.51c-.43 21.14-.92 40.8-.93 41.02-.09 3.76-2.96 6.87-6.7 7.27-.63.07-9.11.95-22.52 1.75 1.16-25.47 1.36-42.48 1.37-50.98 10.02.25 19.64.57 28.78.94z"/><path d="m329.06 510.49c-10.52.43-21.69.79-33.37 1.05-.58-25-1.53-43.4-2-51.38 16.41.87 27.03 1.98 27.74 2.05 3.74.4 6.61 3.51 6.7 7.28.01.21.5 19.87.93 41z"/></g></g></svg>