<svg id="Layer_1" enable-background="new 0 0 512 512" height="512" viewBox="0 0 512 512" width="512" xmlns="http://www.w3.org/2000/svg"><g><path d="m471.929 335.524c-11.757-32.26-35.257-50.127-66.17-50.309-.137-.001-.271-.001-.408-.001-19.03 0-36.569 7.862-48.171 21.608-18.549 21.979-17.758 53.122-13.828 75.377 5.332 30.2 2.659 71.189-15.332 94.682-8.995 11.746-21.229 18.387-36.363 19.736-18.879 1.688-33.665-2.24-43.968-11.665-15.936-14.577-17.174-38.206-17.174-45.1 0-4.143-3.358-7.5-7.5-7.5s-7.5 3.357-7.5 7.5c0 8.444 1.59 37.453 22.049 56.168 11.614 10.624 26.985 15.981 45.792 15.98 3.117 0 6.33-.147 9.633-.441 19.492-1.739 35.285-10.338 46.94-25.558 22.183-28.967 23.665-75.427 18.194-106.411-4.837-27.39-1.199-49.208 10.521-63.094 8.742-10.359 22.106-16.283 36.708-16.283.105 0 .213 0 .319.001 30.998.183 45.477 22.096 52.165 40.446 8.415 23.09 9.129 53.277 1.96 82.823-7.56 31.155-22.819 57.752-42.968 74.891-3.155 2.685-3.537 7.417-.854 10.572s7.416 3.537 10.572.854c49.725-42.298 63.61-124.262 45.383-174.276z" fill="#f4e5cb"/><path d="m414.059 161.5-10.88 15.25-180.16 252.5c-2.17 0-4.22-.93-5.64-2.56-113.07-129.03-183.85-259.85-184.55-261.16-.42-.79-.69-1.63-.81-2.48l181.83-139.41 9.17-7.03c1.26 0 2.53.33 3.67.97 1.05.59 105.36 59.68 185.19 139.08 1.34 1.32 2.08 3.06 2.18 4.84z" fill="#99f8ff"/><path d="m414.059 161.5-10.88 15.25c-6.47-4.01-13.11-9.05-19.88-15.27-75.75-69.59-160.28-121.32-160.28-121.32l-9.17-16.52 9.17-7.03c1.26 0 2.53.33 3.67.97 1.05.59 105.36 59.68 185.19 139.08 1.34 1.32 2.08 3.06 2.18 4.84z" fill="#92d3f7"/><path d="m413.199 165.53c-.7 1.31-71.48 132.13-184.54 261.16-1.43 1.63-3.48 2.56-5.64 2.56v-270.65s81.83-.96 167.66 2c7.78.26 15.59.56 23.38.9.11 1.37-.18 2.76-.86 4.03z" fill="#ff7878"/><path d="m413.199 165.53c-.7 1.31-71.48 132.13-184.54 261.16-1.43 1.63-3.48 2.56-5.64 2.56v-35.84c103.38-127.71 160.28-231.93 160.28-231.93l7.38-.88c7.78.26 15.59.56 23.38.9.11 1.37-.18 2.76-.86 4.03z" fill="#e84680"/><path d="m223.019 16.61v141.99s-132.18 2.06-191 4.45c-.34-2.3.41-4.68 2.13-6.39 79.83-79.4 184.14-138.49 185.19-139.08 1.14-.64 2.41-.97 3.68-.97z" fill="#ff7878"/><path d="m426.982 156.057c-67.787-4.788-135.87-6.373-196.467-6.362v-142.195c0-4.143-3.358-7.5-7.5-7.5s-7.5 3.357-7.5 7.5v142.231c-112.133.503-195.171 6.235-196.467 6.327-4.132.292-7.245 3.878-6.953 8.01s3.868 7.24 8.01 6.953c1.29-.092 83.887-5.791 195.41-6.293v275.124c0 4.143 3.358 7.5 7.5 7.5s7.5-3.357 7.5-7.5v-275.16c60.278-.01 127.996 1.566 195.41 6.329.18.013.358.019.536.019 3.901 0 7.194-3.02 7.474-6.972.292-4.133-2.822-7.719-6.953-8.011z" fill="#8389aa"/><g><path d="m378.775 420.707c-25.201-5.981-48.396-3.551-49.371-3.445-4.115.449-7.085 4.146-6.64 8.262.445 4.115 4.138 7.091 8.26 6.65.213-.022 21.692-2.234 44.288 3.127.582.139 1.164.205 1.737.205 3.396 0 6.474-2.322 7.291-5.771.957-4.03-1.535-8.072-5.565-9.028z" fill="#ff7878"/><path d="m459.258 291.308c3.416-2.343 4.287-7.011 1.944-10.427-2.341-3.416-7.011-4.285-10.427-1.944-22.271 15.271-33.003 40.095-33.449 41.143-1.62 3.813.156 8.216 3.969 9.836.957.407 1.951.6 2.931.6 2.917 0 5.692-1.714 6.905-4.568.092-.217 9.426-21.817 28.127-34.64z" fill="#81e276"/><path d="m495.718 417.455c-24.094-11.787-50.279-11.923-51.382-11.923-4.143 0-7.5 3.357-7.5 7.5s3.357 7.5 7.5 7.5c.235 0 23.781.119 44.79 10.397 1.061.519 2.184.765 3.29.765 2.774 0 5.441-1.546 6.743-4.206 1.821-3.72.28-8.212-3.441-10.033z" fill="#fab684"/></g></g></svg>