<svg id="Layer_1" enable-background="new 0 0 511.984 511.984" height="512" viewBox="0 0 511.984 511.984" width="512" xmlns="http://www.w3.org/2000/svg"><g><path d="m284.685 9.068c-.152-3.445-2.634-6.343-6.015-7.022-.927-.187-22.938-4.509-45.357 0-3.381.68-5.862 3.577-6.015 7.022-.006.148-.658 15.08-1.342 40.103-.056 2.024.71 3.984 2.122 5.436s3.351 2.27 5.375 2.27h45.076c2.024 0 3.963-.818 5.375-2.27s2.178-3.411 2.122-5.436c-.682-25.022-1.335-39.954-1.341-40.103z" fill="#8389aa"/><path d="m379.802 102.104c0 4.14-3.36 7.5-7.5 7.5h-232.62c-4.14 0-7.5-3.36-7.5-7.5 0-25.09 15.09-42.56 44.86-51.94 24.49-7.72 55.05-8.71 78.95-8.71s54.46.99 78.95 8.71c29.77 9.38 44.86 26.85 44.86 51.94z" fill="#c7cde0"/><path d="m379.802 102.104c0 4.14-3.36 7.5-7.5 7.5h-34.85c-3.51-59.79-81.46-68.15-81.46-68.15 23.9 0 54.46.99 78.95 8.71 29.77 9.38 44.86 26.85 44.86 51.94z" fill="#b1accc"/><path d="m406.812 407.284c-.37 16.93-.85 34.18-1.46 51.58-.15 4.04-3.46 7.24-7.5 7.24h-283.72c-4.04 0-7.35-3.2-7.5-7.24-5.69-162.01-.05-311.04.01-312.52.15-4.03 3.46-7.21 7.49-7.21h283.72c4.03 0 7.34 3.18 7.49 7.21.02.52.74 19.59 1.42 51.21l-19.97 104.87z" fill="#99f8ff"/><path d="m406.812 407.284c-.37 16.93-.85 34.18-1.46 51.58-.15 4.04-3.46 7.24-7.5 7.24h-30.47c3.45-148.74.89-283.65-.13-326.97h30.6c4.03 0 7.34 3.18 7.49 7.21.02.52.74 19.59 1.42 51.21l-19.97 104.87z" fill="#92d3f7"/><g fill="#8389aa"><path d="m421.452 147.324c-.69 3.38-3.6 5.87-7.05 6.01-10.85.44-21.65.82-32.36 1.15-43.19 1.32-84.96 1.79-122.56 1.79-93.19 0-160.91-2.9-161.92-2.94-3.45-.16-6.34-2.64-7.03-6.01-4.51-22.4-.18-44.39 0-45.32.69-3.38 3.58-5.86 7.03-6.01 1.42-.07 134.32-5.75 284.56-1.14 10.69.32 21.46.7 32.28 1.14 3.45.14 6.36 2.62 7.05 6.01.18.93 4.51 22.92 0 45.32z"/><path d="m421.452 503.024c-.69 3.39-3.6 5.88-7.05 6.02-10.82.44-21.6.82-32.29 1.14-43.22 1.32-85.01 1.8-122.63 1.8-93.19 0-160.91-2.9-161.92-2.95-3.45-.15-6.34-2.63-7.03-6.01-4.51-22.4-.18-44.39 0-45.31.69-3.38 3.58-5.86 7.03-6.01 1.42-.07 134.27-5.75 284.48-1.15 10.71.33 21.51.71 32.36 1.15 3.45.14 6.36 2.62 7.05 6.01.18.92 4.51 22.91 0 45.31z"/></g><path d="m406.812 407.284c-12.92.52-25.75.93-38.37 1.26-28.35.73-55.66 1-80.62 1-72.39 0-124.99-2.28-125.77-2.31-3.85-.18-6.95-3.24-7.16-7.09-5.53-101.26-.05-194.56.01-195.49.23-3.83 3.31-6.87 7.15-7.04 1.06-.04 95.73-4.15 206.26-1.32 12.65.32 25.5.74 38.45 1.26 1.01 47.99 1.91 124.89.05 209.73z" fill="#ff7878"/><ellipse cx="280.157" cy="302.423" fill="#e84680" rx="69.8" ry="57.066"/><path d="m406.812 407.284c-12.92.52-25.75.93-38.37 1.26 1.18-84.18.63-160.14-.13-212.25 12.65.32 25.5.74 38.45 1.26 1.01 47.99 1.91 124.89.05 209.73z" fill="#e84680"/><g fill="#646d91"><path d="m421.452 147.324c-.69 3.38-3.6 5.87-7.05 6.01-10.85.44-21.65.82-32.36 1.15 1.58-24.4.92-45.87.08-59.63 10.69.32 21.46.7 32.28 1.14 3.45.14 6.36 2.62 7.05 6.01.18.93 4.51 22.92 0 45.32z"/><path d="m421.452 503.024c-.69 3.39-3.6 5.88-7.05 6.02-10.82.44-21.6.82-32.29 1.14 1.54-24.63.79-46.17-.07-59.63 10.71.33 21.51.71 32.36 1.15 3.45.14 6.36 2.62 7.05 6.01.18.92 4.51 22.91 0 45.31z"/></g></g></svg>