<svg id="Layer_1" enable-background="new 0 0 512 512" height="512" viewBox="0 0 512 512" width="512" xmlns="http://www.w3.org/2000/svg"><g><path d="m206.687 4.83c-.723-1.896-2.182-3.418-4.046-4.22-1.863-.803-3.973-.813-5.846-.034-2.011.837-49.688 21.13-88.827 75.771-22.934 32.017-38.108 69.221-45.103 110.577-8.682 51.339-4.691 109.217 11.862 172.027.814 3.092 3.5 5.327 6.688 5.567.385.029 3.479.249 8.343.249 10.827 0 30.421-1.091 48.409-7.811 2.241-.837 3.949-2.694 4.596-4.999l74.772-266.387c.148-.529.238-1.073.269-1.622 2.334-43.241-10.567-77.674-11.117-79.118z" fill="#d77d41"/><path d="m374.39 400.26c.23 2.11-.45 4.22-1.87 5.8-1.43 1.59-3.45 2.49-5.58 2.49l-31.88.03-194.19.2c-.01 0-.01 0-.01 0-2.1 0-4.11-.88-5.53-2.43s-2.12-3.63-1.94-5.72c1.51-17.3-1.94-40.16-5.93-66.64-6.43-42.66-13.72-91.01-4.2-138.48 10.99-54.8 42.16-95.93 95.22-125.61.55-4.75 2.19-12.36 7-20.39 6.85-11.45 21.66-25.86 53.3-29.51 1.98-.23 3.98.35 5.54 1.6 1.57 1.25 2.56 3.07 2.77 5.06l5.34 50.29c10.36 6.22 42.49 26.51 73.55 56.59h.01c7.69 7.46 15.32 15.51 22.54 24.1 1.05 1.25 1.66 2.81 1.74 4.44.08 1.42 1.56 34.82-17.63 54.86-1.74 1.81-4.27 2.63-6.74 2.2-.61-.11-10.49-1.94-22.48-7.48-4.81-2.21-9.95-5.02-14.98-8.56-7.44 1.84-25.26 5.59-47 5.74 2.64 18.8 14.83 33.3 29.8 51.12 24.57 29.23 55.15 65.62 63.15 140.3z" fill="#fab684"/><path d="m372.52 406.06c-1.43 1.59-3.45 2.49-5.58 2.49l-31.88.03v-.04c0-111.68-53.62-132.77-53.62-199.7 2.64 18.8 14.83 33.3 29.8 51.12 24.57 29.23 55.15 65.62 63.15 140.3.23 2.11-.45 4.22-1.87 5.8z" fill="#f79e60"/><path d="m420.92 447.87c-.15 4.03-3.46 7.23-7.5 7.23h-314.84c-4.04 0-7.35-3.2-7.5-7.23-.69-19.26.8-44.69.87-45.76.23-3.88 3.38-6.94 7.26-7.05.78-.03 79.29-2.34 156.79-2.34 46.82 0 94.01.84 124.21 1.52 19.79.44 32.27.8 32.58.82 3.88.11 7.03 3.17 7.26 7.05.07 1.07 1.56 26.5.87 45.76z" fill="#c7cde0"/><path d="m420.92 447.87c-.15 4.03-3.46 7.23-7.5 7.23h-33.27c1.23-25.42.49-50.34.06-60.86 19.79.44 32.27.8 32.58.82 3.88.11 7.03 3.17 7.26 7.05.07 1.07 1.56 26.5.87 45.76z" fill="#b1accc"/><path d="m276.626 119.312c0-4.143-3.359-7.501-7.503-7.501s-7.503 3.358-7.503 7.501 3.359 7.501 7.503 7.501 7.503-3.358 7.503-7.501z" fill="#d77d41"/><path d="m462.15 502.74c-.41 3.73-3.51 6.59-7.26 6.69-.34.01-11.74.3-30.45.68-37.13.76-103.07 1.89-168.44 1.89-98.31 0-197.89-2.55-198.89-2.57-3.75-.1-6.85-2.96-7.26-6.69-3-27.46-.12-53.95 0-55.06.42-3.73 3.52-6.58 7.26-6.67 1-.03 100.58-2.58 198.89-2.58 65.25 0 131.06 1.12 168.23 1.89 18.84.39 30.32.68 30.66.69 3.74.09 6.84 2.94 7.26 6.67.12 1.11 3 27.6 0 55.06z" fill="#8389aa"/><path d="m372.64 216.94c-1.74 1.81-4.27 2.63-6.74 2.2-.61-.11-10.49-1.94-22.48-7.48 18.25-42.56 22.56-78.12 22.56-78.12h.01c7.69 7.46 15.32 15.51 22.54 24.1 1.05 1.25 1.66 2.81 1.74 4.44.08 1.42 1.56 34.82-17.63 54.86z" fill="#f79e60"/><path d="m462.15 502.74c-.41 3.73-3.51 6.59-7.26 6.69-.34.01-11.74.3-30.45.68 2.15-33.94.16-64.57-.21-69.79 18.84.39 30.32.68 30.66.69 3.74.09 6.84 2.94 7.26 6.67.12 1.11 3 27.6 0 55.06z" fill="#646d91"/></g></svg>