<svg id="Layer_1" enable-background="new 0 0 512 512" height="512" viewBox="0 0 512 512" width="512" xmlns="http://www.w3.org/2000/svg"><g><path d="m512 404.498c0 28.2-10.91 53.901-28.76 73.101l-8.71 2.28-2.24 7.98c-18.51 15.09-42.111 24.14-67.791 24.14-4.41 0-8.75-.27-13.02-.79-19.85-2.4-38.051-10.24-53.061-21.97l-3.32-8.7-7.85-1.36c-18.73-19.36-30.26-45.691-30.26-74.681s11.54-55.341 30.271-74.691l8.18-.67 2.98-9.39c15.02-11.74 33.241-19.58 53.101-21.98 4.25-.51 8.59-.78 12.98-.78 25.68 0 49.281 9.05 67.781 24.13l2.84 8.54 8.11 1.73c17.849 19.191 28.769 44.901 28.769 73.111z" fill="#f4f1e1"/><path d="m512 404.498c0 28.2-10.91 53.901-28.76 73.101l-8.71 2.28-2.24 7.98c-18.51 15.09-42.111 24.14-67.791 24.14-4.41 0-8.75-.27-13.02-.79 53.251-6.41 94.512-51.751 94.512-106.722 0-54.961-41.231-100.292-94.472-106.722 4.25-.51 8.59-.78 12.98-.78 25.68 0 49.281 9.05 67.781 24.13l2.84 8.54 8.11 1.73c17.85 19.193 28.77 44.903 28.77 73.113z" fill="#f4e5cb"/><path d="m483.24 477.599c-3.39 3.67-7.06 7.1-10.95 10.26-4.34-4.33-8.3-8.95-11.85-13.8-7.62-10.37-13.41-21.82-17.23-33.981-1.43.04-2.81.06-4.12.06-9.46 0-15.58-.94-16.08-1.02-4.09-.66-6.87-4.5-6.22-8.59s4.49-6.88 8.58-6.23c.2.03 5.68.85 14.21.81-1.18-6.73-1.78-13.62-1.78-20.61 0-25.47 7.93-49.541 22.64-69.581 3.55-4.85 7.5-9.46 11.84-13.8 3.89 3.16 7.55 6.59 10.95 10.27-5.08 5.04-9.58 10.52-13.44 16.34-11.06 16.66-16.99 36.201-16.99 56.771 0 6.69.64 13.27 1.86 19.69 5.28-.63 10.99-1.64 16.9-3.22 4-1.07 8.11 1.31 9.18 5.31s-1.31 8.11-5.31 9.18c-5.85 1.56-11.51 2.63-16.82 3.36 2.77 7.89 6.52 15.42 11.18 22.43 3.859 5.831 8.359 11.301 13.45 16.351z" fill="#ff7878"/><path d="m388.258 379.328c-5.74.82-11.13 2.04-16.03 3.44 1.3 7.09 1.97 14.35 1.97 21.73 0 32.25-12.7 62.291-35.781 84.741-3.96-3.09-7.69-6.46-11.17-10.06 20.6-19.68 31.951-46.191 31.951-74.681 0-5.66-.46-11.24-1.34-16.71-8.3 3.45-13.3 6.53-13.39 6.59-1.24.77-2.61 1.14-3.97 1.14-2.5 0-4.94-1.25-6.37-3.52-2.19-3.51-1.14-8.13 2.36-10.33.48-.3 7.09-4.4 17.86-8.67-5.17-16.24-14.36-31.021-27.09-43.191 3.47-3.61 7.21-6.97 11.16-10.06 14.11 13.73 24.33 30.28 30.15 48.451 5.38-1.5 11.27-2.82 17.57-3.72 4.1-.58 7.9 2.26 8.49 6.36.58 4.1-2.27 7.9-6.37 8.49z" fill="#ff7878"/><g><path d="m129.503 431.224c-11.165 10.685-23.618 22.416-35.922 33.602-2.956 2.687-7.51 2.588-10.345-.248l-35.83-35.83c-2.828-2.828-2.935-7.389-.247-10.345 11.194-12.297 23.066-24.905 33.758-36.063l44.959 3.776.516 6.47z" fill="#fab684"/><path d="m311.847 304.332-29.656-12.488-43.65-18.392-30.88-73.307c94.796-101.923 189.642-189.118 190.617-190.009.078-.064.141-.127.219-.191 9.97-8.457 23.116-11.674 36.989-9.058 12.573 2.376 25.541 9.277 38.651 20.549 2.828 2.432 5.664 5.07 8.507 7.913 16.002 16.002 25.576 31.87 28.461 47.158 2.616 13.874-.601 27.019-9.058 36.989-.064.078-.127.141-.191.219-.897.968-88.085 95.821-190.009 190.617z" fill="#fab684"/><path d="m126.391 392.587 3.111 38.637c-11.165 10.685-23.618 22.416-35.922 33.602-2.956 2.687-7.51 2.588-10.345-.248l-15.755-15.755c20.833-19.077 41.474-39.01 58.911-56.236z" fill="#f79e60"/><path d="m311.847 304.332-29.656-12.488c1.287-1.188 1.959-1.846 1.959-1.846 108.422-100.021 201.564-201.563 201.564-201.563 12.134-14.298 13.188-38.121-11.576-66.999 2.828 2.432 5.664 5.07 8.507 7.913 16.002 16.002 25.576 31.87 28.461 47.158 2.616 13.874-.601 27.019-9.058 36.989-.064.078-.127.141-.191.219-.898.968-88.086 95.821-190.01 190.617z" fill="#f79e60"/><path d="m192.903 368.036c-6.986 7.269-31.87 32.973-63.372 63.188h-.028c-6.244-5.593-13.951-13.018-21.553-20.605-10.67-10.656-21.129-21.624-27.033-28.278l-.014-.028c30.159-31.431 55.799-56.251 63.054-63.223 3.868-38.234 25.315-72.437 40.56-92.406l100.793 100.792c-19.977 15.238-54.18 36.685-92.407 40.56z" fill="#f4f1e1"/><path d="m192.903 368.036c-6.986 7.269-31.87 32.973-63.372 63.188h-.028c-6.244-5.593-13.951-13.018-21.553-20.605 36.579-35.42 65.218-65.373 65.218-65.373 36.954-2.857 70.832-23.498 91.197-38.715l20.945 20.945c-19.977 15.238-54.18 36.685-92.407 40.56z" fill="#f4e5cb"/><path d="m68.464 510.011c-2.602 2.39-6.506 2.645-9.398.615-.431-.304-7.934-5.614-18.017-14.468-4.031-3.521-8.464-7.616-13.032-12.184-16.009-16.009-26.22-30.448-26.651-31.05-2.03-2.892-1.775-6.795.615-9.398 17.049-18.548 33.694-33.751 34.394-34.394 2.595-2.369 6.491-2.616 9.369-.587.608.424 15.04 10.642 31.049 26.651 4.328 4.328 8.231 8.542 11.632 12.396 9.185 10.402 14.708 18.215 15.019 18.654 2.029 2.878 1.782 6.774-.587 9.369-.642.702-15.845 17.348-34.393 34.396z" fill="#8389aa"/><path d="m311.847 304.332c-2.751 2.553-5.508 5.112-8.273 7.665-1.082 1.068-7.679 7.396-18.265 15.479-8.019-5.827-15.96-12.254-23.646-18.951-42.3-36.813-77.147-81.842-77.147-81.842 8.082-10.586 14.411-17.183 15.479-18.265 2.553-2.765 5.112-5.523 7.665-8.273 0 0 37.689 47.985 81.043 85.639 7.595 6.605 15.366 12.891 23.144 18.548z" fill="#ff7878"/><path d="m311.847 304.332c-2.751 2.553-5.508 5.112-8.273 7.665-1.082 1.068-7.679 7.396-18.265 15.479-8.019-5.827-15.96-12.254-23.646-18.951 14.022-10.204 22.486-18.526 22.486-18.526 1.52-1.407 3.041-2.814 4.554-4.214 7.595 6.604 15.366 12.89 23.144 18.547z" fill="#e84680"/><path d="m68.464 510.011c-2.602 2.39-6.506 2.645-9.398.615-.431-.304-7.934-5.614-18.017-14.468 25.888-22.324 41.253-40.687 47.377-48.565 9.185 10.402 14.708 18.215 15.019 18.654 2.029 2.878 1.782 6.774-.587 9.369-.643.701-15.846 17.347-34.394 34.395z" fill="#646d91"/></g><g fill="#e84680"><path d="m469.789 347.728c-2.79-4.5-5.92-8.79-9.35-12.81 3.55-4.85 7.5-9.46 11.84-13.8 3.89 3.16 7.55 6.59 10.95 10.27-5.08 5.039-9.58 10.519-13.44 16.34z"/><path d="m483.24 477.599c-3.39 3.67-7.06 7.1-10.95 10.26-4.34-4.33-8.3-8.95-11.85-13.8 3.43-4.02 6.56-8.31 9.35-12.81 3.859 5.83 8.359 11.3 13.45 16.35z"/></g></g></svg>