<svg id="Layer_1" enable-background="new 0 0 512 512" height="512" viewBox="0 0 512 512" width="512" xmlns="http://www.w3.org/2000/svg"><g><path d="m412.396 343.89c-1.619 1.251-40.517 31.042-109.955 66.864-63.979 33.008-166.836 77.343-293.564 101.116-1.216.226-2.447.156-3.599-.205-1.145-.354-2.206-.99-3.083-1.867-1.754-1.754-2.524-4.25-2.065-6.689 20.018-106.228 54.362-195.868 84.302-259.805 5.685-12.162 11.215-23.391 16.462-33.63 14.46-28.235 27.917-51.435 38.898-69.148 16.073-25.958 26.814-40.135 27.549-41.111 2.326-3.048 6.583-3.854 9.864-1.86l144.83 88.007c1.011.615 1.874 1.464 2.496 2.482l73.702 119.975 15.981 26.007c2.001 3.274 1.223 7.531-1.818 9.864z" fill="#ffe36c"/><path d="m412.396 343.89c-1.619 1.251-40.517 31.042-109.955 66.864-63.979 33.008-166.836 77.343-293.564 101.116-1.216.226-2.447.156-3.599-.205-1.145-.354-2.206-.99-3.083-1.867 174.918-58.838 338.528-163.108 396.038-201.78l15.981 26.007c2.001 3.275 1.223 7.532-1.818 9.865z" fill="#ffc46e"/><path d="m511.575 308.606c-.445-1.28-4.448-12.424-13.11-30.165-16.773-34.379-51.06-93.486-110.903-153.329l-.481-.481c-91.068-90.856-180.616-122.888-184.385-124.21-3.026-1.061-6.406-.071-8.386 2.461-1.259 1.612-36.457 37.62-34.003 98.693.071 1.923.884 3.698 2.192 5.006.757.757 1.69 1.365 2.751 1.747 52.361 18.958 117.435 72.278 141.611 96.398l.219.219c19.651 19.651 56.498 62.225 79.861 105.359 5.487 10.14 14.047 24.66 17.646 34.567 1.04 2.864 3.712 4.815 6.746 4.936 61.193 2.447 96.156-31.526 97.775-32.792 2.545-1.982 3.535-5.362 2.467-8.409z" fill="#fab684"/><g><path d="m151.438 232.118c-11.052 11.024-25.739 17.098-41.366 17.098-8.16 0-16.32-1.725-23.738-5.028-.643-.276-1.273-.58-1.902-.884 5.685-12.162 11.215-23.391 16.462-33.63 14.46-28.235 27.917-51.435 38.898-69.148.849.495 1.683 1.018 2.496 1.563 16.306 10.748 26.297 29.111 26.29 48.734 0 15.599-6.088 30.271-17.14 41.295z" fill="#ff7878"/><path d="m168.578 190.823c0 15.599-6.088 30.271-17.14 41.295s-25.739 17.098-41.366 17.098c-8.16 0-16.32-1.725-23.738-5.028 15.259-2.418 29.317-9.546 40.454-20.655 13.951-13.909 21.638-32.428 21.638-52.114.007-10.246-2.15-20.209-6.138-29.331 16.306 10.749 26.297 29.113 26.29 48.735z" fill="#e84680"/><path d="m144.84 426.551c-16.15 0-30.795-6.569-41.394-17.168-3.55-3.55-6.647-7.552-9.192-11.908-5.028-8.62-7.92-18.639-7.92-29.316 0-15.599 6.088-30.271 17.14-41.295s25.739-17.098 41.366-17.098c10.691 0 20.718 2.871 29.352 7.898 17.416 10.119 29.154 28.97 29.154 50.495-.007 32.194-26.247 58.392-58.506 58.392z" fill="#ff7878"/><path d="m271.059 336.579c-12.48.007-24.219-4.844-33.05-13.661l-.035-.035c-3.026-3.026-5.593-6.399-7.644-10.02-.007-.007-.007-.007-.007-.007-3.924-6.923-6.003-14.771-6.003-22.931-.007-12.466 4.858-24.19 13.697-33.001 8.825-8.811 20.563-13.661 33.05-13.661 8.202 0 16.101 2.1 23.052 6.039.007.007.007.007.007.007 3.613 2.058 6.965 4.603 9.992 7.616l.035.035c8.811 8.811 13.654 20.513 13.661 32.965-.001 25.724-20.974 46.654-46.755 46.654z" fill="#ff7878"/><path d="m271.059 336.579c-12.48.007-24.219-4.844-33.05-13.661l-.035-.035c-3.026-3.026-5.593-6.399-7.644-10.02 6.951 3.939 14.842 6.046 23.052 6.039 25.781 0 46.754-20.93 46.754-46.655-.007-8.167-2.086-16.016-6.01-22.939 3.613 2.058 6.965 4.603 9.992 7.616l.035.035c8.811 8.811 13.654 20.513 13.661 32.965-.001 25.725-20.974 46.655-46.755 46.655z" fill="#e84680"/></g><g><path d="m207.27 198.546c-1.357-1.357-2.197-3.232-2.197-5.303.001-14.86-5.847-28.295-5.905-28.428-1.671-3.791.047-8.217 3.837-9.888 3.79-1.672 8.217.046 9.888 3.837.293.665 7.181 16.495 7.182 34.48-.001 4.143-3.358 7.5-7.501 7.501-2.071-.003-3.947-.842-5.304-2.199z" fill="#f79e60"/></g><g><path d="m182.679 290.563c-1.357-1.357-2.197-3.232-2.197-5.303 0-17.984 6.887-33.814 7.18-34.48 1.671-3.79 6.098-5.508 9.888-3.838 3.787 1.67 5.506 6.092 3.841 9.881-.128.296-5.909 13.789-5.909 28.437-.001 4.143-3.358 7.5-7.501 7.501-2.07-.001-3.945-.841-5.302-2.198z" fill="#f79e60"/></g><g><path d="m238.381 382.462c-1.357-1.357-2.197-3.232-2.197-5.303-.001-4.143 3.357-7.501 7.499-7.501 14.781-.001 28.387-5.843 28.523-5.901 3.794-1.65 8.213.088 9.868 3.873 1.657 3.792-.065 8.205-3.853 9.868-.666.292-16.523 7.159-34.537 7.16-2.07 0-3.946-.839-5.303-2.196z" fill="#f79e60"/></g><g fill="#f79e60"><ellipse cx="75.743" cy="434.371" rx="7.501" ry="7.503" transform="matrix(.697 -.717 .717 .697 -288.46 185.832)"/><path d="m129.195 279.956c-2.93-2.93-7.68-2.93-10.609-.001-2.93 2.93-2.929 7.68.001 10.61s7.68 2.93 10.61.001c2.928-2.93 2.928-7.68-.002-10.61z"/><path d="m361.497 319.4c-2.93-2.93-7.68-2.93-10.609-.001-2.93 2.93-2.929 7.68.001 10.61s7.68 2.93 10.61.001c2.928-2.931 2.928-7.681-.002-10.61z"/></g><path d="m509.108 317.013c-1.619 1.266-37.207 35.573-98.4 33.127-3.034-.12-5.706-2.072-6.746-4.936-3.599-9.907-9.474-20.885-14.961-31.026 54.419-6.208 92.594-27.38 109.465-35.738 8.662 17.741 12.664 28.885 13.11 30.165 1.067 3.048.077 6.428-2.468 8.408z" fill="#f79e60"/><path d="m144.84 426.551c-16.15 0-30.795-6.569-41.394-17.168-3.55-3.55-6.647-7.552-9.192-11.908 22.366 13.018 51.527 9.935 70.683-9.221 19.134-19.134 22.224-48.246 9.256-70.59 17.416 10.119 29.154 28.97 29.154 50.495-.008 32.194-26.248 58.392-58.507 58.392z" fill="#e84680"/></g></svg>