<svg id="Layer_1" enable-background="new 0 0 512 512" height="512" viewBox="0 0 512 512" width="512" xmlns="http://www.w3.org/2000/svg"><g><path d="m511.482 256c0 68.38-26.6 132.67-74.9 181.02-48.31 48.35-112.531 74.98-180.841 74.98-4.98 0-9.93-.14-14.86-.43-62.72-3.57-121.201-29.72-165.981-74.55-48.3-48.35-74.9-112.64-74.9-181.02s26.6-132.67 74.9-181.02c44.78-44.83 103.261-70.98 165.981-74.55 4.93-.29 9.88-.43 14.86-.43 35.58 0 70.01 7.18 102.351 21.33.86.38 1.65.91 2.31 1.58l128.621 129.28c.66.67 1.2 1.45 1.57 2.32 13.859 32.09 20.889 66.24 20.889 101.49z" fill="#f4f1e1"/><path d="m511.482 256c0 68.38-26.6 132.67-74.9 181.02-48.31 48.35-112.531 74.98-180.841 74.98-4.98 0-9.93-.14-14.86-.43 134.461-7.7 241.121-119.19 241.121-255.57s-106.66-247.87-241.121-255.57c4.93-.29 9.88-.43 14.86-.43 35.58 0 70.01 7.18 102.351 21.33.86.38 1.65.91 2.31 1.58l128.621 129.28c.66.67 1.2 1.45 1.57 2.32 13.859 32.09 20.889 66.24 20.889 101.49z" fill="#f4e5cb"/><path d="m455.642 256c0 110.34-89.671 200.11-199.901 200.11-1.16 0-2.32-.01-3.47-.04-108.64-1.85-196.441-90.89-196.441-200.07s87.8-198.22 196.441-200.07c1.15-.03 2.31-.04 3.47-.04 21.08 0 41.85 3.27 61.72 9.72 1.13.37 2.16 1 3 1.85l36.76 36.96 18.61 18.71 68.54 68.92c.84.85 1.47 1.88 1.83 3.01 6.271 19.64 9.441 40.14 9.441 60.94z" fill="#ff7878"/><g fill="#e84680"><path d="m357.222 104.42c-28.85-25.46-65.02-42.81-104.95-48.49 1.15-.03 2.31-.04 3.47-.04 21.08 0 41.85 3.27 61.72 9.72 1.13.37 2.16 1 3 1.85z"/><path d="m455.642 256c0 110.34-89.671 200.11-199.901 200.11-1.16 0-2.32-.01-3.47-.04 98.01-13.94 173.371-98.2 173.371-200.07 0-50.87-18.79-97.35-49.81-132.87l68.54 68.92c.84.85 1.47 1.88 1.83 3.01 6.27 19.64 9.44 40.14 9.44 60.94z"/></g><path d="m394.142 256c0 76.39-62.09 138.54-138.401 138.54-4.97 0-9.88-.26-14.72-.78-69.43-7.38-123.68-66.35-123.68-137.76s54.25-130.38 123.68-137.76c4.84-.52 9.75-.78 14.72-.78 18.2 0 35.9 3.48 52.59 10.36.93.38 1.76.93 2.47 1.64l71.57 71.94c.71.71 1.26 1.55 1.64 2.47 6.721 16.56 10.131 34.1 10.131 52.13z" fill="#f4f1e1"/><path d="m394.142 256c0 76.39-62.09 138.54-138.401 138.54-4.97 0-9.88-.26-14.72-.78 69.35-7.61 123.311-66.39 123.311-137.76s-53.96-130.15-123.311-137.76c4.84-.52 9.75-.78 14.72-.78 18.2 0 35.9 3.48 52.59 10.36.93.38 1.76.93 2.47 1.64l71.57 71.94c.71.71 1.26 1.55 1.64 2.47 6.721 16.56 10.131 34.1 10.131 52.13z" fill="#f4e5cb"/><path d="m332.062 256c0 42.12-34.24 76.39-76.32 76.39-6.42 0-12.66-.8-18.62-2.31-33.12-8.33-57.7-38.39-57.7-74.08s24.58-65.75 57.7-74.08c5.96-1.51 12.2-2.31 18.62-2.31 17.38 0 33.75 5.69 47.34 16.47.3.24.58.49.84.77l14.27 15.36c.26.28.49.58.71.89 8.609 12.68 13.16 27.51 13.16 42.9z" fill="#ff7878"/><path d="m332.062 256c0 42.12-34.24 76.39-76.32 76.39-6.42 0-12.66-.8-18.62-2.31 35.99-5.48 63.56-36.56 63.56-74.08s-27.57-68.6-63.56-74.08c5.96-1.51 12.2-2.31 18.62-2.31 17.38 0 33.75 5.69 47.34 16.47.3.24.58.49.84.77l14.27 15.36c.26.28.49.58.71.89 8.609 12.68 13.16 27.51 13.16 42.9z" fill="#e84680"/><g fill="#ffe36c"><path d="m511.062 131.09c-1.61 2.92-40.22 71.66-96.641 84.11-5.82 1.28-11.6 1.92-17.35 1.92-17.87 0-35.38-6.19-52.24-18.51-1.81-1.33-2.93-3.39-3.06-5.63-.13-2.23.75-4.41 2.4-5.94l4.26-3.94 78.01-72.16c2.25-2.09 5.56-2.59 8.33-1.26 30.16 14.47 68.51 10.37 68.89 10.32 2.8-.31 5.52.96 7.08 3.29 1.551 2.33 1.681 5.34.321 7.8z"/><path d="m404.774 81.753c-17.05-30.565-12.614-72.919-12.568-73.337.313-2.788-.958-5.519-3.293-7.075-2.336-1.557-5.345-1.681-7.797-.319-.74.411-18.357 10.249-37.537 27.076-26.213 22.996-41.966 46.976-46.822 71.272-4.962 24.824 1.759 49.069 19.975 72.063 1.358 1.715 3.397 2.751 5.584 2.837.099.004.197.006.295.006 2.08 0 4.072-.864 5.494-2.395l75.615-81.37c2.212-2.381 2.638-5.918 1.054-8.758z"/></g><path d="m511.062 131.09c-1.61 2.92-40.22 71.66-96.641 84.11-5.82 1.28-11.6 1.92-17.35 1.92-17.87 0-35.38-6.19-52.24-18.51-1.81-1.33-2.93-3.39-3.06-5.63-.13-2.23.75-4.41 2.4-5.94l4.26-3.94c111.68 21.66 162.311-59.81 162.311-59.81 1.55 2.33 1.68 5.34.32 7.8z" fill="#ffc46e"/><g><path d="m465.092 88.82c-.96 1.01-96.52 102.12-205.101 176.93-1.29.88-2.77 1.32-4.25 1.32-1.93 0-3.85-.74-5.3-2.19-2.56-2.56-2.93-6.58-.88-9.56 74.72-108.69 175.731-204.35 176.741-205.31 1.79-1.69 4.3-2.39 6.71-1.87 2.41.51 4.41 2.18 5.36 4.45.04.1 3.04 7.02 9.5 13.84 3.7 3.91 8.55 7.8 14.63 10.33 2.28.94 3.94 2.95 4.46 5.35.51 2.41-.19 4.92-1.87 6.71z" fill="#8389aa"/><path d="m465.092 88.82c-.96 1.01-96.52 102.12-205.101 176.93-1.29.88-2.77 1.32-4.25 1.32-1.93 0-3.85-.74-5.3-2.19 160.251-148.72 197.431-198.45 197.431-198.45 3.7 3.91 8.55 7.8 14.63 10.33 2.28.94 3.94 2.95 4.46 5.35.51 2.41-.19 4.92-1.87 6.71z" fill="#646d91"/></g></g></svg>