<svg id="Layer_1" enable-background="new 0 0 512 512" height="512" viewBox="0 0 512 512" width="512" xmlns="http://www.w3.org/2000/svg"><g><path d="m334.924 102.56-17.419-.01-61.505-.04-78.924.05c-60.496-16.18-77.565-102.56-12.009-102.56 48.356 0 81.144 23.48 90.933 47.78 9.789-24.3 42.577-47.78 90.933-47.78 65.556 0 48.487 86.38-12.009 102.56z" fill="#f4f1e1"/><path d="m334.924 102.56-17.419-.01c59.576-57.03 29.428-102.55 29.428-102.55 65.556 0 48.487 86.38-12.009 102.56z" fill="#f4e5cb"/><path d="m290.009 62.19c-6.603-9.561-18.046-14.41-34.009-14.41s-27.406 4.849-34.009 14.411c-11.478 16.62-2.596 40.619-2.213 41.632 1.049 2.771 3.703 4.604 6.665 4.604h59.114c2.963 0 5.616-1.833 6.665-4.604.384-1.014 9.265-25.012-2.213-41.633z" fill="#f4e5cb"/><path d="m485.473 381.35c-.3 37.52-1.22 77.55-3.15 117.15-.18 3.75-3.1 6.79-6.84 7.11-.25.02-9.049.76-26.168 1.73-28.638 1.62-80.564 3.89-154.709 4.5-12.268.1-25.137.16-38.606.16s-26.338-.06-38.607-.16c-118.471-.97-180.207-6.18-180.877-6.23-3.74-.32-6.659-3.36-6.839-7.11-1.93-39.6-2.85-79.63-3.15-117.16l20.079-38.61-19.929-38.63c.35-30.24.99-56.4 1.58-76.09.73-23.92 1.39-38.27 1.41-38.74.19-4 3.49-7.15 7.499-7.15h437.668c4.01 0 7.309 3.15 7.499 7.15.04.86 2.21 47.84 2.99 114.82l-19.919 38.64z" fill="#ffe36c"/><path d="m485.473 381.35c-.3 37.52-1.22 77.55-3.15 117.15-.18 3.75-3.1 6.79-6.84 7.11-.25.02-9.049.76-26.168 1.73 8.219-150.91 2.02-251.62 0-278.08-41.537 1.34-109.712 2.99-193.316 2.99-114.302 0-199.756-3.09-227.744-4.24.73-23.92 1.39-38.27 1.41-38.74.19-4 3.49-7.15 7.499-7.15h437.668c4.01 0 7.309 3.15 7.499 7.15.04.86 2.21 47.84 2.99 114.82l-19.919 38.64z" fill="#ffc46e"/><path d="m485.473 381.35c-2.31.09-13.699.51-32.118 1.05-33.048.97-88.714 2.31-155.019 2.75-.41 39.4-1.51 82.32-3.73 126.69-12.268.1-25.137.16-38.606.16s-26.338-.06-38.607-.16c-2.22-44.37-3.32-87.28-3.73-126.68-41.287-.27-114.372-1.12-187.136-3.82-.24-27.47-.13-53.6.15-77.24 72.795-2.69 145.859-3.54 187.106-3.8.33-26.46.92-49.56 1.52-68.18.9-28.09 1.85-46.02 2.07-50h77.254c.22 3.98 1.17 21.91 2.07 50 .6 18.62 1.19 41.72 1.52 68.18 65.975.43 121.411 1.76 154.549 2.73 18.389.54 29.918.97 32.558 1.06.279 23.64.389 49.78.149 77.26z" fill="#f4f1e1"/><path d="m294.627 182.12c.22 3.98 1.17 21.91 2.07 50-13.099.08-26.678.13-40.697.13s-27.608-.05-40.697-.13c.9-28.09 1.85-46.02 2.07-50z" fill="#f4e5cb"/><path d="m485.473 381.35c-2.31.09-13.699.51-32.118 1.05.28-30.47-.02-57.06-.59-79.37 18.389.54 29.918.97 32.558 1.06.28 23.64.39 49.78.15 77.26z" fill="#f4e5cb"/><path d="m509.172 189.82c-.56 3.53-3.52 6.17-7.09 6.32-.49.02-11.279.47-30.368 1.07-35.097 1.11-98.253 2.73-177.077 3.2l-38.637-19.98-38.637 20.03c-64.355-.3-135.15-1.52-207.425-4.32-3.57-.14-6.55-2.78-7.11-6.32-6.22-39.18-.28-82.25-.02-84.07.5-3.59 3.51-6.31 7.129-6.45 72.275-2.8 143.07-4.01 207.435-4.32l38.628 20.03 38.637-19.97c78.424.47 141.34 2.08 176.537 3.19 19.419.61 30.408 1.06 30.908 1.08 3.62.15 6.61 2.86 7.11 6.44.26 1.82 6.199 44.89-.02 84.07z" fill="#ff7878"/><path d="m294.637 200.41c-14.069.08-28.648.13-43.647.13-10.989 0-22.208-.03-33.628-.08-3.98-48-.48-98.85.01-105.48 27.018-.12 52.896-.08 77.264.06.501 6.86 3.961 57.52.001 105.37z" fill="#f4f1e1"/><path d="m509.172 189.82c-.56 3.53-3.52 6.17-7.09 6.32-.49.02-11.279.47-30.368 1.07 2.92-43.08.3-86.91-.54-98.98 19.419.61 30.408 1.06 30.908 1.08 3.62.15 6.61 2.86 7.11 6.44.26 1.82 6.199 44.89-.02 84.07z" fill="#e84680"/></g></svg>