<svg id="Layer_1" enable-background="new 0 0 512 512" height="512" viewBox="0 0 512 512" width="512" xmlns="http://www.w3.org/2000/svg"><g><path d="m436.556 447.246c-.04 2.05-.92 3.98-2.43 5.37-20.6 18.901-42.33 37.903-64.59 56.464-1.3 1.08-2.92 1.69-4.62 1.73-14.92.37-29.73.64-44.29.83-19.44.25-38.43.36-56.66.36-101.23 0-179.01-3.3-180.03-3.34-3.93-.17-7.06-3.35-7.17-7.29-7.27-259.646-.08-488.501 0-490.791.12-3.92 3.25-7.08 7.17-7.25 1.65-.07 159.19-6.73 318.78-1.01 8.45.3 16.91.63 25.35 1.01 3.91.18 7.04 3.34 7.16 7.25.07 1.979 6.31 200.312 1.33 436.667z" fill="#c7cde0"/><path d="m393.496 272.045c0 4.07-3.26 7.41-7.33 7.5-7.13.16-14.25.3-21.35.43-7.14.13-14.26.24-21.33.34l-85.16-20.001-89.82 20.001c-17.74-.22-32.29-.47-42.65-.67-4.09-.08-7.36-3.42-7.36-7.51.11-125.208 2.4-213.343 2.43-214.214.1-3.91 3.19-7.09 7.1-7.291.45-.02 16.23-.84 41.85-1.62l86.12 19.921 86.13-20.091c6.42.21 12.86.45 19.31.72 7.51.31 15.03.67 22.54 1.07 3.9.21 6.99 3.38 7.09 7.291.03.87 2.32 88.956 2.43 214.124z" fill="#8389aa"/><path d="m343.486 280.315c-11.48.16-22.84.28-34 .37-17.64.14-34.79.2-51.16.2-34.29 0-65.14-.26-89.82-.57.09-116.727 1.04-204.213 1.37-231.305 33.41-1 83.56-1.95 138.23-1 11.18.19 22.56.46 34.02.83.33 27.982 1.26 115.588 1.36 231.475z" fill="#99f8ff"/><path d="m342.126 48.841c.33 27.982 1.26 115.587 1.36 231.475-11.48.16-22.84.28-34 .37-.11-114.697-1.02-201.973-1.38-232.675 11.18.19 22.56.46 34.02.83z" fill="#92d3f7"/><g><path d="m243.464 374.983c-.428-3.571-3.331-6.334-6.918-6.588-.499-.035-11.07-.772-27.918-1.224-.451-16.849-1.189-27.421-1.224-27.921-.258-3.653-3.116-6.584-6.761-6.936-18.432-1.78-33.188-.057-33.808.019-3.57.428-6.334 3.33-6.588 6.917-.035.499-.772 11.063-1.224 27.902-9.555.258-18.897.674-27.861 1.238-3.611.228-6.544 3-6.975 6.593-.074.619-1.798 15.378-.019 33.811.354 3.666 3.318 6.534 6.994 6.765 8.955.564 18.292.979 27.842 1.238.259 9.56.675 18.898 1.239 27.845.228 3.612 3 6.544 6.592 6.975.41.05 7.016.821 16.783.821 4.986 0 10.796-.201 17.025-.803 3.666-.354 6.533-3.318 6.765-6.994.564-8.952.98-18.296 1.239-27.864 16.837-.45 27.4-1.188 27.899-1.223 3.652-.258 6.584-3.116 6.937-6.761 1.779-18.431.055-33.19-.019-33.81z" fill="#8389aa"/><g><circle cx="354.236" cy="358.033" fill="#ff7878" r="22.501"/></g><g fill="#b1accc"><g><path d="m231 321.819c0 4.143 3.358 7.502 7.501 7.502s7.501-3.359 7.501-7.502-3.358-7.502-7.501-7.502c-4.142.001-7.501 3.359-7.501 7.502z"/><path d="m273.491 314.318c-4.143 0-7.501 3.359-7.501 7.502s3.358 7.502 7.501 7.502 7.501-3.359 7.501-7.502c0-4.144-3.358-7.502-7.501-7.502z"/></g><g><path d="m231.004 472.829c0 4.143 3.358 7.502 7.501 7.502s7.501-3.359 7.501-7.502-3.358-7.502-7.501-7.502-7.501 3.359-7.501 7.502z"/><path d="m273.495 465.327c-4.143 0-7.501 3.359-7.501 7.502s3.358 7.502 7.501 7.502 7.501-3.359 7.501-7.502-3.359-7.502-7.501-7.502z"/></g></g></g><path d="m436.556 447.246c-.04 2.05-.92 3.98-2.43 5.37-20.6 18.901-42.33 37.903-64.59 56.464-1.3 1.08-2.92 1.69-4.62 1.73-14.92.37-29.73.64-44.29.83 49.82-38.812 85-72.725 85-72.725 5.249-176.276-1.95-411.316-2.91-436.598 8.45.3 16.91.63 25.35 1.01 3.91.18 7.04 3.34 7.16 7.25.07 1.981 6.31 200.314 1.33 436.669z" fill="#b1accc"/><path d="m393.496 272.045c0 4.07-3.26 7.41-7.33 7.5-7.13.16-14.25.3-21.35.43-.16-91.246-2-178.291-3.38-230.415 7.51.31 15.03.67 22.54 1.07 3.9.21 6.99 3.38 7.09 7.291.03.87 2.32 88.956 2.43 214.124z" fill="#646d91"/></g></svg>