<svg id="Layer_1" enable-background="new 0 0 512 512" height="512" viewBox="0 0 512 512" width="512" xmlns="http://www.w3.org/2000/svg"><g><path d="m507.278 204.52c-10.411 42.34-36.115 85.1-54.877 116.32-10.771 17.93-21.913 36.47-21.913 42.43 0 4.14-3.361 7.5-7.501 7.5h-333.971c-4.141 0-7.501-3.36-7.501-7.5 0-5.96-11.141-24.5-21.913-42.43-18.772-31.22-44.466-73.98-54.877-116.32-12.712-51.69.25-91.8 38.515-119.22 20.673-14.81 59.907-18.15 85.14-4.45 2.71-13.67 8.081-25.81 16.112-36.37 31.385-41.27 93.153-44.48 111.335-44.48 18.202 0 80.05 3.2 111.364 44.37 8.071 10.61 13.452 22.85 16.152 36.63 25.213-13.88 64.668-10.57 85.411 4.3 38.274 27.42 51.226 67.53 38.524 119.22z" fill="#f4f1e1"/><path d="m507.278 204.52c-10.411 42.34-36.115 85.1-54.877 116.32-10.771 17.93-21.913 36.47-21.913 42.43 0 4.14-3.361 7.5-7.501 7.5h-5.971c88.511-174.4 50.866-227.78 50.866-227.78-28.413-59.57-114.794-30.24-114.794-30.24-7.56-79.73-97.261-112.75-97.261-112.75 18.202 0 80.05 3.2 111.364 44.37 8.071 10.61 13.452 22.85 16.152 36.63 25.213-13.88 64.668-10.57 85.411 4.3 38.274 27.42 51.226 67.53 38.524 119.22z" fill="#f4e5cb"/><path d="m433.529 493.25c-1 2.55-3.3 4.33-5.971 4.69-2.85.79-12.372 3.2-30.204 5.81-26.683 3.91-71.999 8.25-141.527 8.25-123.585 0-170.671-13.73-172.611-14.31-2.2-.66-3.98-2.3-4.821-4.44-.44-1.11-10.741-28.4-9.951-126.75.03-3.26 2.15-6.12 5.261-7.1 2.33-.73 58.507-17.88 182.133-17.88 72.299 0 121.615 5.87 150.569 10.88 20.543 3.56 30.834 6.7 31.814 7 3.11.97 5.241 3.84 5.261 7.1.789 98.35-9.513 125.64-9.953 126.75z" fill="#fab684"/><g fill="#f4e5cb"><path d="m399.945 227.027c-3.459-2.275-8.111-1.314-10.389 2.146-.887 1.351-21.903 33.625-36.163 82.197-1.167 3.975 1.11 8.142 5.085 9.309.705.207 1.416.306 2.115.306 3.244 0 6.234-2.12 7.194-5.39 13.593-46.303 34.102-77.872 34.307-78.186 2.273-3.46 1.311-8.107-2.149-10.382z"/><path d="m319.879 215.457c-3.779-1.703-8.217-.021-9.919 3.755-.761 1.687-18.726 41.831-27.753 87.827-.798 4.064 1.851 8.006 5.916 8.804.487.096.974.142 1.452.142 3.513 0 6.65-2.479 7.352-6.057 8.684-44.239 26.531-84.155 26.709-84.553 1.701-3.776.019-8.217-3.757-9.918z"/><path d="m122.776 229.174c-2.274-3.459-6.921-4.419-10.383-2.147s-4.426 6.921-2.155 10.384c.206.313 20.714 31.883 34.307 78.186.96 3.27 3.95 5.39 7.194 5.39.699 0 1.411-.099 2.116-.306 3.975-1.167 6.251-5.334 5.085-9.309-14.26-48.573-35.276-80.848-36.164-82.198z"/><path d="m202.373 219.212c-1.703-3.776-6.145-5.458-9.921-3.755-3.777 1.702-5.458 6.143-3.756 9.919.179.397 18.011 40.237 26.709 84.552.702 3.577 3.839 6.057 7.352 6.057.479 0 .965-.046 1.453-.142 4.065-.798 6.714-4.739 5.916-8.804-9.028-45.996-26.993-86.141-27.753-87.827z"/></g><g fill="#f79e60"><path d="m315.406 420.164c-55.769-3.116-118.499-.034-119.126-.002-4.137.208-7.323 3.729-7.115 7.866.209 4.138 3.747 7.352 7.868 7.114.619-.03 62.551-3.076 117.535-.002.143.008.284.012.426.012 3.951 0 7.259-3.088 7.482-7.081.232-4.135-2.934-7.675-7.07-7.907z"/><path d="m433.529 493.25c-1 2.55-3.3 4.33-5.971 4.69-2.85.79-12.372 3.2-30.204 5.81 11.12-76.787 9.051-151.35 9.051-151.35 20.543 3.56 30.834 6.7 31.814 7 3.11.97 5.241 3.84 5.261 7.1.791 98.35-9.511 125.64-9.951 126.75z"/></g></g></svg>