<svg id="Layer_1" enable-background="new 0 0 512 512" height="512" viewBox="0 0 512 512" width="512" xmlns="http://www.w3.org/2000/svg"><g><g fill="#c7cde0"><path d="m96.234 118.216c-4.119-.397-7.779 2.65-8.161 6.775-.063.68-1.527 16.977-.021 44.981.215 4 3.526 7.097 7.483 7.097.136 0 .272-.004.409-.011 4.137-.223 7.31-3.756 7.087-7.891-1.433-26.627-.052-42.447-.021-42.792.382-4.123-2.651-7.776-6.776-8.159z"/><path d="m158.363 119.425c-4.127-.45-7.817 2.534-8.261 6.653-.063.59-1.541 14.783-.032 42.842.215 4 3.526 7.097 7.483 7.097.136 0 .272-.004.41-.011 4.136-.223 7.309-3.756 7.086-7.892-1.435-26.67-.046-40.303-.031-40.437.439-4.114-2.538-7.808-6.655-8.252z"/><path d="m361.421 124.969c-.395-4.121-4.054-7.129-8.175-6.749-4.122.392-7.147 4.052-6.758 8.174.015.151 1.417 15.503-.022 42.267-.223 4.137 2.95 7.67 7.086 7.892.138.007.274.011.41.011 3.957 0 7.268-3.099 7.483-7.096 1.506-28.016.039-43.839-.024-44.499z"/><path d="m291.117 119.266c-4.114.452-7.083 4.155-6.636 8.269.014.131 1.4 13.342-.034 39.986-.223 4.136 2.95 7.669 7.087 7.891.137.007.273.011.409.011 3.957 0 7.268-3.099 7.483-7.097 1.51-28.073.028-41.866-.035-42.439-.458-4.114-4.146-7.076-8.274-6.621z"/><path d="m224.006 119.76c-4.143 0-7.5 3.357-7.5 7.5v40.609c0 4.142 3.358 7.5 7.5 7.5s7.5-3.357 7.5-7.5v-40.609c.001-4.143-3.357-7.5-7.5-7.5z"/></g><path d="m48.406 240.999c-17.295-2.553-38.338-.134-39.225-.029-3.494.411-6.233 3.194-6.587 6.694-.059.579-5.798 58.777-.014 130.508.287 3.563 3.05 6.429 6.601 6.847.583.068 9.871 1.137 21.079 1.137 5.847 0 12.218-.291 18.146-1.166 3.679-.544 6.405-3.701 6.405-7.42v-129.151c0-3.719-2.726-6.876-6.405-7.42z" fill="#8389aa"/><path d="m510.531 464.361c-.24 3.83-3.33 6.86-7.16 7.03-7.54.33-15.151.64-22.791.94-13.601.54-27.312 1.04-40.993 1.49l-76.085 2.05c-46.863 1.74-85.835 2.22-114.627 2.22-34.532 0-54.423-.69-55.773-.74l-76.035-1.58c-39.933-.91-63.194-1.9-63.424-1.91-3.74-.16-6.78-3.04-7.15-6.76-13.991-142.776-2.71-295.573-2.6-297.103.29-3.83 3.44-6.83 7.28-6.93 2.15-.05 195.312-5.1 304.989-1.44 11.411.39 21.922.86 31.212 1.45 2.94.19 5.5 2.08 6.55 4.84.13.35 5.11 13.51 12.701 32.609l-5.52 56.148 54.943 57.229c4.35 1.89 13.291 6.2 24.261 13.81 8.56 5.93 18.351 13.86 28.172 24.209 1.21 1.28 1.94 2.94 2.05 4.7.03.541 3.29 54.24 0 107.738z" fill="#ff7878"/><path d="m456.048 313.905-38.982 1.6c-32.152-71.108-57.264-143.276-60.904-153.876 11.411.39 21.922.86 31.212 1.45 2.94.19 5.5 2.08 6.55 4.84.13.35 5.11 13.51 12.701 32.609l-5.52 56.148z" fill="#e84680"/><g><path d="m446.847 466.371c0 25.159-20.441 45.629-45.573 45.629-4.88 0-9.591-.77-14.001-2.21-18.301-5.92-31.572-23.149-31.572-43.419s13.271-37.499 31.572-43.419c4.41-1.44 9.121-2.21 14.001-2.21 25.132 0 45.573 20.47 45.573 45.629z" fill="#8389aa"/><path d="m446.847 466.371c0 25.159-20.441 45.629-45.573 45.629-4.88 0-9.591-.77-14.001-2.21 18.301-5.92 31.572-23.149 31.572-43.419s-13.271-37.499-31.572-43.419c4.41-1.44 9.121-2.21 14.001-2.21 25.132 0 45.573 20.47 45.573 45.629z" fill="#646d91"/></g><g><path d="m200.82 466.371c0 25.159-20.441 45.629-45.573 45.629-4.88 0-9.591-.77-14.001-2.21-18.301-5.92-31.572-23.149-31.572-43.419s13.271-37.499 31.572-43.419c4.41-1.44 9.121-2.21 14.001-2.21 25.132 0 45.573 20.47 45.573 45.629z" fill="#8389aa"/><path d="m200.82 466.371c0 25.159-20.441 45.629-45.573 45.629-4.88 0-9.591-.77-14.001-2.21 18.301-5.92 31.572-23.149 31.572-43.419s-13.271-37.499-31.572-43.419c4.41-1.44 9.121-2.21 14.001-2.21 25.132 0 45.573 20.47 45.573 45.629z" fill="#646d91"/></g><path d="m401.194 124.08c0 4.03-3.19 7.34-7.22 7.49-12.991.48-25.812.9-38.422 1.26-49.313 1.41-95.496 1.91-136.318 1.91-101.806 0-170.331-3.12-171.36-3.17-3.5-.16-6.42-2.74-7.03-6.19-.32-1.83-7.55-45.229 20.751-80.898 21.02-26.5 55.592-41.259 102.755-43.889 1.35-.09 35.652-2.33 78.105 2.53 57.723 6.61 100.566 22.639 127.318 47.629 20.851 19.479 31.421 44.149 31.421 73.328z" fill="#8389aa"/><path d="m456.048 313.905c-11.541.84-25.082 1.34-38.982 1.6-32.562.63-67.104.01-82.515-.35-4.69-.11-8.511-3.79-8.791-8.47-2.48-41.439-2.2-81.238-1.92-98.297.08-4.87 4.02-8.79 8.89-8.86 8.161-.11 21.441-.21 37.042-.02 11.401.15 24.052.45 36.852 1.02 12.671 31.919 32.633 80.408 49.424 113.377z" fill="#99f8ff"/><g fill="#99f8ff"><path d="m287.307 305.045c-.17 4.77-4.06 8.58-8.831 8.67-6.31.12-12.821.22-19.471.3-9.821.12-19.931.2-30.112.25v-115.247c10.051.01 20.021.06 29.712.17 6.57.06 13.011.14 19.251.25 4.75.09 8.621 3.85 8.84 8.6.751 16.679 2.111 55.848.611 97.007z"/><path d="m142.874 199.597c-21.77.294-39.529.629-49.432.831-4.823.098-8.707 3.971-8.824 8.793-.402 16.59-1.013 54.968.57 95.777.186 4.792 4.096 8.596 8.891 8.656 9.789.124 27.303.323 48.795.475z"/><path d="m213.895 199.018c-19.375.038-38.579.193-56.02.392v114.814c17.418.094 36.623.144 56.02.099z"/></g><g><path d="m87.213 353.888c-4.072-.761-7.995 1.902-8.767 5.972-.162.859-3.947 21.291.001 42.103.682 3.598 3.827 6.104 7.36 6.103.464 0 .935-.043 1.406-.132 4.07-.772 6.744-4.697 5.971-8.766-3.39-17.876-.057-36.203.002-36.519.767-4.068-1.906-7.99-5.973-8.761z" fill="#e84680"/><path d="m479.36 373.316c-.518-4.109-4.28-7.018-8.378-6.505-4.111.518-7.023 4.268-6.505 8.378.016.122 1.521 12.36 0 24.44-.518 4.109 2.395 7.86 6.505 8.378.317.04.634.06.946.06 3.725 0 6.955-2.772 7.432-6.564 1.754-13.933.072-27.612 0-28.187z" fill="#ffe36c"/></g><path d="m358.513 345.312c-.576-.072-14.259-1.753-28.201 0-4.111.517-7.023 4.267-6.506 8.377s4.279 7.023 8.377 6.506c12.016-1.511 24.341-.016 24.463.001.316.039.63.059.94.059 3.725 0 6.956-2.773 7.432-6.565.518-4.111-2.394-7.862-6.505-8.378z" fill="#646d91"/><path d="m401.194 124.08c0 4.03-3.19 7.34-7.22 7.49-12.991.48-25.812.9-38.422 1.26-4.851-100.628-136.099-132.237-191.202-132.237 1.35-.09 35.652-2.33 78.105 2.53 57.723 6.61 100.566 22.639 127.318 47.629 20.851 19.479 31.421 44.149 31.421 73.328z" fill="#646d91"/><path d="m456.048 313.905c-11.541.84-25.082 1.34-38.982 1.6-19.371-42.849-36.192-86.078-47.293-115.997 11.401.15 24.052.45 36.852 1.02 12.67 31.919 32.632 80.408 49.423 113.377z" fill="#92d3f7"/><path d="m510.531 464.361c-.24 3.83-3.33 6.86-7.16 7.03-7.54.33-15.151.64-22.791.94 2.42-67.468.34-129.197-.27-144.616 8.56 5.93 18.351 13.86 28.172 24.209 1.21 1.28 1.94 2.94 2.05 4.7.029.54 3.289 54.239-.001 107.737z" fill="#e84680"/><path d="m287.307 305.045c-.17 4.77-4.06 8.58-8.831 8.67-6.31.12-12.821.22-19.471.3.4-58.978-.12-98.658-.4-114.827 6.57.06 13.011.14 19.251.25 4.75.09 8.621 3.85 8.84 8.6.751 16.679 2.111 55.848.611 97.007z" fill="#92d3f7"/></g></svg>