<svg id="Layer_1" enable-background="new 0 0 512 512" height="512" viewBox="0 0 512 512" width="512" xmlns="http://www.w3.org/2000/svg"><g><path d="m497.881 325.221c-18.24 53.515-54.13 96.69-106.691 128.313-1.16.71-2.5 1.08-3.86 1.08l-39.75.01-222.901.04c-1.37 0-2.71-.37-3.87-1.08-52.56-31.623-88.45-74.797-106.69-128.323-14.51-42.584-17.86-91.649-9.94-145.835 13.37-91.588 53.75-165.226 55.46-168.316 1.21-2.18 3.42-3.62 5.91-3.83 1.81-.16 172.62-14.601 350.481-2.36 10.13.7 20.28 1.48 30.42 2.36 2.48.21 4.7 1.65 5.91 3.83 1.71 3.09 42.09 76.708 55.46 168.287 7.921 54.185 4.571 103.24-9.939 145.824z" fill="#99f8ff"/><path d="m497.881 325.221c-18.24 53.515-54.13 96.69-106.691 128.313-1.16.71-2.5 1.08-3.86 1.08l-39.75.01v-.01c259.911-140.514 68.451-449.695 68.451-449.695 10.13.7 20.28 1.48 30.42 2.36 2.48.21 4.7 1.65 5.91 3.83 1.71 3.09 42.09 76.708 55.46 168.287 7.92 54.186 4.57 103.241-9.94 145.825z" fill="#92d3f7"/><path d="m442.211 502.659c-.37 3.76-3.48 6.661-7.25 6.771-.31.01-11.49.32-29.67.73-33.791.76-91.781 1.84-149.291 1.84-88.46 0-178.061-2.55-178.961-2.57-3.77-.11-6.88-3.01-7.24-6.771-2.7-27.393-.12-53.795 0-54.915.37-3.75 3.47-6.641 7.24-6.751.9-.02 90.5-2.57 178.961-2.57 57.22 0 114.91 1.07 148.771 1.83 18.49.41 29.87.73 30.19.74 3.77.11 6.87 3 7.24 6.751.12 1.12 2.7 27.522.01 54.915z" fill="#8389aa"/><path d="m450.581 309.08c-13.21 38.754-37.28 69.577-73.61 94.23-1.24.85-2.71 1.3-4.21 1.3l-33.98.01-199.551.03c-1.5 0-2.97-.45-4.21-1.29-35.97-24.422-59.92-54.885-73.22-93.129-12.04-34.633-14.9-75.408-8.51-121.202 3.93-28.213 11.34-57.926 22.01-88.319.75-2.13 2.41-3.81 4.53-4.571 15.97-5.781 42.94-12.671 80.66-12.671 35.51 0 59.13 8.261 81.98 16.252 19.69 6.881 38.28 13.381 63.02 13.381 25.88 0 38.47-4.34 54.42-9.841 12.11-4.18 25.5-8.791 46.7-12.541 5.82-1.02 12.23-1.98 19.36-2.85 3.45-.42 6.74 1.59 7.94 4.851 11.82 32.073 20.05 63.666 24.46 93.909 6.761 46.253 4.141 87.457-7.789 122.451z" fill="#92d3f7"/><path d="m450.581 309.08c-13.21 38.754-37.28 69.577-73.61 94.23-1.24.85-2.71 1.3-4.21 1.3l-33.98.01c126.8-83.288 102.09-223.622 67.83-313.901 5.82-1.02 12.23-1.98 19.36-2.85 3.45-.42 6.74 1.59 7.94 4.851 11.82 32.073 20.05 63.666 24.46 93.909 6.76 46.253 4.14 87.457-7.79 122.451z" fill="#80a8e8"/><path d="m286.89 197.068c-.79 1.24-15.51 23.752-40.58 34.353-7.79 3.3-16.58 5.441-26.26 5.441-29.42 0-50.6-19.812-60.53-31.493-6.55 7.671-17.97 18.872-33.4 25.653-.97.42-2 .63-3.02.63-1.75 0-3.48-.61-4.86-1.79-2.19-1.87-3.12-4.82-2.39-7.601 1.9-7.321 4.18-18.342 4.18-29.243 0-10.891-2.28-21.912-4.18-29.233-.73-2.78.2-5.731 2.39-7.601 2.19-1.86 5.25-2.32 7.88-1.16 15.43 6.771 26.85 17.982 33.4 25.652 9.93-11.681 31.11-31.493 60.53-31.493 9.77 0 18.63 2.18 26.47 5.531 24.94 10.631 39.58 33.023 40.37 34.253 1.59 2.471 1.59 5.641 0 8.101z" fill="#ff7878"/><path d="m377.19 341.103c.73 2.78-.2 5.731-2.39 7.591-1.38 1.18-3.11 1.8-4.87 1.8-1.02 0-2.04-.21-3.01-.63-7.43-3.26-13.93-7.551-19.4-11.981-5.9-4.77-10.6-9.701-14-13.681-9.93 11.681-31.11 31.503-60.53 31.503-40.84 0-65.8-38.164-66.85-39.794-1.58-2.47-1.58-5.63 0-8.101 1.05-1.62 26.01-39.784 66.85-39.784 29.42 0 50.6 19.812 60.53 31.493 3.23-3.78 7.62-8.411 13.1-12.941 5.65-4.691 12.46-9.271 20.3-12.711 2.63-1.16 5.69-.71 7.88 1.16 2.19 1.86 3.12 4.81 2.39 7.601-1.9 7.321-4.18 18.342-4.18 29.233 0 10.9 2.28 21.911 4.18 29.242z" fill="#ff7878"/><path d="m286.89 197.068c-.79 1.24-15.51 23.752-40.58 34.353 6.58-36.464 2.51-65.156.21-76.708 24.94 10.631 39.58 33.023 40.37 34.253 1.59 2.472 1.59 5.642 0 8.102z" fill="#e84680"/><path d="m377.19 341.103c.73 2.78-.2 5.731-2.39 7.591-1.38 1.18-3.11 1.8-4.87 1.8-1.02 0-2.04-.21-3.01-.63-7.43-3.26-13.93-7.551-19.4-11.981-3.29-21.512-2.22-40.144-.9-51.305 5.65-4.691 12.46-9.271 20.3-12.711 2.63-1.16 5.69-.71 7.88 1.16 2.19 1.86 3.12 4.81 2.39 7.601-1.9 7.321-4.18 18.342-4.18 29.233 0 10.9 2.28 21.911 4.18 29.242z" fill="#e84680"/><g fill="#80a8e8"><path d="m179.678 260.304c0 4.144 3.359 7.503 7.503 7.503s7.503-3.359 7.503-7.503-3.359-7.503-7.503-7.503c-4.144.001-7.503 3.36-7.503 7.503z"/><path d="m114.698 283.02c4.144 0 7.503-3.359 7.503-7.503s-3.359-7.503-7.503-7.503-7.503 3.359-7.503 7.503 3.36 7.503 7.503 7.503"/><path d="m158.157 342.991c0 4.144 3.359 7.503 7.503 7.503s7.503-3.359 7.503-7.503-3.359-7.503-7.503-7.503-7.503 3.359-7.503 7.503z"/><path d="m326.242 242.171c0 4.144 3.359 7.503 7.503 7.503s7.503-3.359 7.503-7.503-3.359-7.503-7.503-7.503-7.503 3.359-7.503 7.503z"/><path d="m340.075 190.172c4.144 0 7.503-3.359 7.503-7.503s-3.359-7.503-7.503-7.503-7.503 3.359-7.503 7.503 3.36 7.503 7.503 7.503z"/><path d="m404.627 200.515c4.144 0 7.503-3.359 7.503-7.503s-3.359-7.503-7.503-7.503-7.503 3.359-7.503 7.503 3.359 7.503 7.503 7.503z"/></g><path d="m442.211 502.659c-.37 3.76-3.48 6.661-7.25 6.771-.31.01-11.49.32-29.67.73 1.71-35.193.01-62.746-.52-69.907 18.49.41 29.87.73 30.19.74 3.77.11 6.87 3 7.24 6.751.12 1.12 2.7 27.522.01 54.915z" fill="#646d91"/></g></svg>