<svg id="Capa_1" enable-background="new 0 0 512 512" height="512" viewBox="0 0 512 512" width="512" xmlns="http://www.w3.org/2000/svg" xmlns:xlink="http://www.w3.org/1999/xlink"><linearGradient id="SVGID_1_" gradientUnits="userSpaceOnUse" x1="210.395" x2="210.395" y1="542.365" y2="154.52"><stop offset="0" stop-color="#d7d1eb"/><stop offset="1" stop-color="#e9e5f6"/></linearGradient><linearGradient id="lg1"><stop offset="0" stop-color="#236568"/><stop offset="1" stop-color="#2f878a"/></linearGradient><linearGradient id="SVGID_2_" gradientUnits="userSpaceOnUse" x1="365.567" x2="377.085" xlink:href="#lg1" y1="234.785" y2="214.835"/><linearGradient id="SVGID_3_" gradientUnits="userSpaceOnUse" x1="285.991" x2="295.252" xlink:href="#lg1" y1="372.615" y2="356.574"/><g><g><path d="m86.599 142.947 247.592-142.947v369.053l-247.592 142.947z" fill="url(#SVGID_1_)"/><g fill="#594a8e"><path d="m161.63 152.567 97.53-56.31v14.126l-97.53 56.309z"/><path d="m125.629 224.328 169.531-98.228v14.126l-169.531 98.228z"/><path d="m125.629 256.165 169.531-98.228v14.126l-169.531 98.227z"/><path d="m125.629 288.002 169.531-98.228v14.125l-169.531 98.228z"/><path d="m125.629 347.43 169.531-98.228v14.126l-169.531 98.228z"/><path d="m125.629 411.104 169.531-98.228v14.126l-169.531 98.227z"/><path d="m125.629 379.267 169.531-98.228v14.126l-169.531 98.228z"/></g></g><g><path d="m420.779 238.105c-.813-.615-1.681-1.092-2.576-1.463l-35.511-20.172c-5.737-4.337-13.995-2.484-17.33 3.888l-66.216 127.506-.705-.533c-2.108-1.593-4.418-2.673-6.797-3.323l-.018-.034-31.272-18.278c-1.705-1.29-3.545-2.239-5.444-2.908l-.068-.039.008.016c-9.074-3.161-19.574.57-24.31 9.617-4.539 8.672-2.143 19.354 5.665 25.257l60.252 45.549 38.087 21.635 89.527-172.036c2.641-5.041 1.247-11.251-3.292-14.682z" fill="url(#SVGID_2_)"/><path d="m298.441 347.331c-2.108-1.593-4.418-2.673-6.796-3.323l-.018-.034-31.272-18.278c-1.705-1.29-3.545-2.239-5.444-2.908l-.068-.039.009.016c-9.074-3.161-19.574.57-24.31 9.617-4.539 8.672-2.144 19.354 5.665 25.257l60.252 45.549 38.087 21.635z" fill="url(#SVGID_3_)"/><g><path d="m334.546 424.823-60.253-45.549c-7.808-5.902-10.204-16.585-5.665-25.256 5.737-10.962 19.944-14.148 29.813-6.687l36.104 27.295 68.904-132.633c3.335-6.372 11.593-8.224 17.33-3.888 4.539 3.431 5.932 9.641 3.294 14.682z" fill="#06daae"/></g></g></g></svg>