<svg id="Layer_1" enable-background="new 0 0 512 512" height="512" viewBox="0 0 512 512" width="512" xmlns="http://www.w3.org/2000/svg"><g><g><g><path d="m198.3 454.503c-.065 22.592-.848 40.486-1.318 49.273-.188 3.518-2.859 6.392-6.356 6.829-4.761.595-12.067 1.285-20.872 1.382-7.327.076-15.696-.253-24.503-1.383-3.497-.449-6.186-3.319-6.378-6.84-1.086-19.885-1.386-38.921-1.311-55.349l33.923 3.4z" fill="#8389aa"/><path d="m171.485 451.815 26.815 2.689c-.065 22.592-.848 40.486-1.318 49.273-.188 3.518-2.859 6.392-6.356 6.829-4.761.595-12.067 1.285-20.872 1.382.557-10.365 1.556-32.194 1.731-60.173z" fill="#646d91"/><path d="m373.129 503.783c-.188 3.513-2.855 6.383-6.346 6.82-4.575.572-11.505 1.233-19.861 1.373-7.563.119-16.302-.188-25.514-1.371-3.502-.45-6.195-3.317-6.388-6.842-.959-17.543-1.303-34.427-1.321-49.446l34.974-3.4 25.775-2.503c.074 25.464-.808 45.812-1.319 55.369z" fill="#8389aa"/><path d="m374.449 448.415c.074 25.463-.809 45.811-1.319 55.368-.188 3.513-2.855 6.383-6.346 6.82-4.575.572-11.505 1.233-19.861 1.373.536-9.508 1.617-31.976 1.751-61.058z" fill="#646d91"/></g><path d="m399.461 76.926h-28.144l-258.86.031c1.065-19.564 2.407-39.472 4.064-59.592.271-3.296 2.739-6.012 5.998-6.573 103.271-17.78 198.32-9.609 243.998-3.516 10.367 1.372 18.19 2.642 22.992 3.479 3.253.567 5.712 3.255 5.99 6.545.79 9.352 2.419 30.18 3.962 59.626z" fill="#f4f1e1"/><path d="m399.461 76.926h-28.144c-2.102-38.631-4.255-63.561-4.801-69.649 10.367 1.372 18.19 2.642 22.992 3.479 3.253.567 5.712 3.255 5.99 6.545.791 9.351 2.42 30.179 3.963 59.625z" fill="#f4e5cb"/><g><path d="m417.239 439.916c-.349 3.327-2.934 5.998-6.249 6.447-7.642 1.035-15.25 1.973-22.799 2.824-138.678 15.601-260.162.934-287.219-2.795-3.31-.456-5.878-3.101-6.234-6.423-3.302-30.854-17.837-184.658.023-355.079.349-3.328 2.936-6 6.252-6.449 123.132-16.692 236.273-8.343 287.22-2.803 10.266 1.113 18.005 2.114 22.791 2.773 3.311.456 5.883 3.101 6.239 6.424 3.301 30.854 17.836 184.659-.024 355.081z" fill="#ffe36c"/><path d="m410.99 446.363c-7.642 1.035-15.25 1.973-22.799 2.824 17.729-174.335 4.306-331.601.041-373.549 10.266 1.113 18.005 2.114 22.791 2.773 3.311.456 5.883 3.101 6.239 6.424 3.302 30.853 17.837 184.659-.023 355.08-.349 3.328-2.934 5.999-6.249 6.448z" fill="#ffc46e"/></g></g><path d="m347.12 317.23c0 50.24-40.88 91.11-91.12 91.11-4.76 0-9.43-.37-14-1.07-43.62-6.76-77.12-44.56-77.12-90.04s33.5-83.29 77.12-90.05c4.57-.7 9.24-1.07 14-1.07 50.24 0 91.12 40.88 91.12 91.12z" fill="#8389aa"/><path d="m347.12 317.23c0 50.24-40.88 91.11-91.12 91.11-4.76 0-9.43-.37-14-1.07 43.62-6.76 77.12-44.56 77.12-90.04s-33.5-83.29-77.12-90.05c4.57-.7 9.24-1.07 14-1.07 50.24 0 91.12 40.88 91.12 91.12z" fill="#646d91"/><path d="m301.25 155.71c0 24.96-20.3 45.26-45.25 45.26-3.79 0-7.48-.47-11-1.36-19.65-4.92-34.25-22.73-34.25-43.9 0-21.16 14.6-38.97 34.25-43.89 3.52-.89 7.21-1.36 11-1.36 24.95 0 45.25 20.3 45.25 45.25z" fill="#8389aa"/><path d="m301.25 155.71c0 24.96-20.3 45.26-45.25 45.26-3.79 0-7.48-.47-11-1.36 19.65-4.92 34.25-22.73 34.25-43.9 0-21.16-14.6-38.97-34.25-43.89 3.52-.89 7.21-1.36 11-1.36 24.95 0 45.25 20.3 45.25 45.25z" fill="#646d91"/><path d="m286.85 317.23c0 17.01-13.84 30.84-30.85 30.84-3.5 0-6.86-.59-10-1.66-12.12-4.17-20.85-15.67-20.85-29.18s8.73-25.02 20.85-29.19c3.14-1.07 6.5-1.66 10-1.66 17.01 0 30.85 13.84 30.85 30.85z" fill="#c7cde0"/><g fill="#b1accc"><path d="m286.85 317.23c0 17.01-13.84 30.84-30.85 30.84-3.5 0-6.86-.59-10-1.66 12.12-4.17 20.85-15.67 20.85-29.18s-8.73-25.02-20.85-29.19c3.14-1.07 6.5-1.66 10-1.66 17.01 0 30.85 13.84 30.85 30.85z"/><path d="m263.501 155.714c0-4.143-3.358-7.501-7.501-7.501s-7.501 3.358-7.501 7.501 3.358 7.501 7.501 7.501 7.501-3.358 7.501-7.501z"/></g></g></svg>