<svg id="Layer_1" enable-background="new 0 0 512 512" height="512" viewBox="0 0 512 512" width="512" xmlns="http://www.w3.org/2000/svg"><g><path d="m252.266 468.711c-27.934 27.924-65.03 43.289-104.523 43.289h-.537c-39.677-.141-76.879-15.783-104.742-44.046-3.302-3.345-6.406-6.817-9.325-10.387-47.525-58.223-43.877-144.504 10.591-198.428 27.877-27.598 64.768-42.759 103.971-42.752.389-.007.778 0 1.174 0 .028 0 .064-.007.099 0 4.892 0 9.375-3.041 11.432-7.757 5.423-12.438 13.073-23.639 22.744-33.312 33.151-33.156 83.56-41.302 125.429-20.273.721.354 1.372.835 1.937 1.4l44.951 45.014c.566.566 1.046 1.23 1.407 1.945.863 1.725 1.676 3.486 2.439 5.268 8.187 18.95 10.867 40.355 7.537 60.896-3.761 23.264-14.67 44.187-31.539 60.493-9.403 9.108-20.227 16.341-32.161 21.531-4.645 2.015-7.629 6.583-7.6 11.632.253 39.853-15.118 77.316-43.284 105.487z" fill="#fab684"/><path d="m295.548 363.225c.254 39.853-15.116 77.315-43.283 105.486-27.933 27.924-65.029 43.289-104.522 43.289h-.537c-39.677-.141-76.879-15.783-104.742-44.046-3.302-3.345-6.406-6.817-9.325-10.387 26.152 21.404 58.575 33.1 92.857 33.22h.537c39.493 0 76.589-15.365 104.523-43.289 28.167-28.171 43.537-65.634 43.283-105.486-.028-5.049 2.955-9.617 7.6-11.632 11.934-5.19 22.758-12.424 32.161-21.531 16.869-16.306 47.553-51.152 45.213-100.176 8.187 18.95 10.867 40.355 7.537 60.896-3.761 23.264-14.67 44.187-31.539 60.493-9.403 9.108-20.227 16.341-32.161 21.531-4.647 2.015-7.63 6.583-7.602 11.632z" fill="#f79e60"/><path d="m299.148 265.603c-2.439 2.284-6.088 2.68-8.959.969-5.423-3.232-10.409-6.859-14.934-10.621-3.373-2.807-6.491-5.685-9.334-8.528-12.876-12.876-20.16-24.954-20.605-25.71-1.711-2.871-1.315-6.52.969-8.959 59.828-63.93 113.646-117.111 148.259-150.465 1.471-1.414 3.373-2.114 5.275-2.093 1.895.014 3.783.742 5.233 2.192l44.491 44.491c2.892 2.892 2.934 7.559.099 10.508-33.362 34.591-86.544 88.394-150.494 148.216z" fill="#f4f1e1"/><path d="m299.148 265.603c-2.439 2.284-6.088 2.68-8.959.969-5.423-3.232-10.409-6.859-14.934-10.621 82.229-79.995 143.677-143.125 161.652-161.708l12.636 12.636c2.892 2.892 2.934 7.559.099 10.508-33.362 34.591-86.544 88.394-150.494 148.216z" fill="#f4e5cb"/><g fill="#d77d41"><path d="m166.45 402.994-57.53-57.524c-2.929-2.929-7.677-2.928-10.605.001-2.928 2.93-2.928 7.678.001 10.607l57.53 57.524c2.929 2.929 7.677 2.928 10.605-.001s2.928-7.678-.001-10.607z"/><path d="m124.063 424.186-36.336-36.333c-2.928-2.928-7.677-2.928-10.605.001-2.928 2.93-2.928 7.678.001 10.607l36.336 36.333c2.928 2.928 7.677 2.928 10.605-.001 2.928-2.93 2.928-7.678-.001-10.607z"/></g><g fill="#8389aa"><path d="m484.683 89.997 14.516 14.519c2.928 2.929 7.677 2.929 10.605 0s2.929-7.677 0-10.607l-14.516-14.519c-2.928-2.929-7.677-2.929-10.605 0-2.929 2.93-2.929 7.678 0 10.607z"/><path d="m484.033 119.813-14.579-14.583c-2.928-2.929-7.677-2.929-10.605 0s-2.929 7.678 0 10.607l14.579 14.583c2.928 2.929 7.677 2.929 10.605 0s2.929-7.678 0-10.607z"/><path d="m407.507 12.803 14.516 14.519c2.928 2.929 7.677 2.929 10.605 0s2.929-7.678 0-10.607l-14.516-14.518c-2.928-2.929-7.677-2.929-10.605 0-2.928 2.928-2.929 7.677 0 10.606z"/><path d="m406.794 42.556-14.579-14.583c-2.928-2.929-7.677-2.929-10.605 0s-2.929 7.678 0 10.607l14.579 14.583c2.928 2.929 7.677 2.929 10.605 0 2.929-2.929 2.929-7.678 0-10.607z"/></g><path d="m450.777 130.728c-2.856 2.107-6.801 1.923-9.446-.452-4.701-4.207-9.354-8.507-13.829-12.77-5.493-5.197-10.753-10.345-15.625-15.217-17.505-17.508-30.019-31.452-30.21-31.671-2.368-2.638-2.552-6.583-.452-9.447 28.245-38.375 58.426-58.761 59.699-59.609 2.849-1.902 6.618-1.626 9.163.65.276.233 22.999 20.626 46.888 45.821 4.263 4.49 8.562 9.129 12.775 13.838 2.284 2.553 2.559 6.321.65 9.164-.847 1.272-21.237 31.451-59.613 59.693z" fill="#fab684"/><ellipse cx="198.202" cy="313.724" fill="#8389aa" rx="54.205" ry="54.213"/><path d="m450.777 130.728c-2.856 2.107-6.801 1.923-9.446-.452-4.701-4.207-9.354-8.507-13.829-12.77 39.203-32.308 68.947-68.844 69.463-69.473 4.263 4.49 8.562 9.129 12.775 13.838 2.284 2.553 2.559 6.321.65 9.164-.847 1.272-21.237 31.451-59.613 59.693z" fill="#f79e60"/></g></svg>