<svg id="Layer_1" enable-background="new 0 0 512 512" height="512" viewBox="0 0 512 512" width="512" xmlns="http://www.w3.org/2000/svg"><g><g><path d="m457.961 424.348c-.562 12.393-1.163 22.85-1.621 30.429-.515 8.351-.867 13.212-.877 13.298-.267 3.594-3.165 6.435-6.768 6.616-66.586 3.413-131.619 4.547-188.711 4.547-113.364 0-195.488-4.48-196.718-4.547-3.584-.2-6.463-3.031-6.73-6.616-.01-.086-.362-4.948-.877-13.298-.458-7.579-1.058-18.036-1.621-30.429-.095-1.945.62-3.851 1.973-5.262 1.344-1.411 3.213-2.212 5.167-2.212h389.642c1.954 0 3.823.791 5.167 2.212 1.355 1.411 2.07 3.308 1.974 5.262z" fill="#c5ef7b"/><path d="m457.961 424.348c-.562 12.393-1.163 22.85-1.621 30.429-69.179 3.317-136.5 4.442-195.975 4.442-99.389 0-176.89-3.136-204.707-4.442-.458-7.579-1.058-18.036-1.621-30.429-.095-1.945.62-3.851 1.973-5.262 1.344-1.411 3.213-2.212 5.167-2.212h389.642c1.954 0 3.823.791 5.167 2.212 1.356 1.411 2.071 3.308 1.975 5.262z" fill="#81e276"/><path d="m477.542 375.045c-.572 12.459-1.163 23.136-1.649 31.239-.639 10.553-1.087 16.759-1.096 16.863-.267 3.594-3.165 6.425-6.768 6.616-73.269 3.746-144.822 5.005-207.652 5.005-124.727 0-215.088-4.938-216.442-5.014-3.584-.2-6.463-3.022-6.73-6.606-.01-.105-.467-6.311-1.096-16.883-.486-8.103-1.077-18.77-1.649-31.22-.095-1.945.62-3.851 1.973-5.262 1.344-1.411 3.213-2.212 5.167-2.212l428.803-.009c1.954 0 3.823.801 5.167 2.212 1.352 1.41 2.067 3.317 1.972 5.271z" fill="#c5ef7b"/><path d="m477.542 375.045c-.572 12.459-1.163 23.136-1.649 31.239-75.833 3.365-149.359 4.528-214.783 4.528-102.086 0-184.421-2.831-225.002-4.547-.486-8.103-1.077-18.77-1.649-31.22-.095-1.945.62-3.851 1.973-5.262 1.344-1.411 3.213-2.212 5.167-2.212l428.803-.009c1.954 0 3.823.801 5.167 2.212 1.353 1.41 2.068 3.317 1.973 5.271z" fill="#81e276"/></g><path d="m512 208.725c0 84.41-5.73 162.51-5.79 163.29-.28 3.77-3.32 6.74-7.09 6.93-7.2.37-14.38.72-21.54 1.04-76.45 3.5-150.69 4.7-216.56 4.7-143.02 0-246.63-5.65-248.17-5.74-3.76-.21-6.79-3.18-7.06-6.93-.06-.78-5.79-78.88-5.79-163.29s5.73-162.51 5.79-163.29c.27-3.76 3.3-6.72 7.06-6.93 2.25-.13 222.25-12.13 464.7-1.05 7.17.32 14.36.67 21.57 1.04 3.77.2 6.81 3.17 7.09 6.94.06.78 5.79 78.88 5.79 163.29z" fill="#c5ef7b"/><path d="m464.383 129.611c-.143-3.997-3.396-7.178-7.395-7.232-18.857-.253-33.925-15.166-34.302-33.95-.08-3.991-3.272-7.221-7.263-7.346-127.634-4.009-243.835-2.148-318.841.118-3.989.121-7.186 3.344-7.271 7.334-.405 18.752-15.472 33.64-34.3 33.894-3.999.054-7.252 3.236-7.395 7.232-.99 27.737-1.492 54.354-1.492 79.111 0 24.714.503 51.332 1.495 79.111.143 3.996 3.396 7.178 7.394 7.232 18.779.255 33.843 15.105 34.293 33.807.097 3.983 3.29 7.196 7.271 7.316 43.103 1.3 99.774 2.467 164.383 2.467 47.896 0 100.16-.642 154.459-2.345 3.99-.125 7.183-3.354 7.263-7.345.378-18.784 15.445-33.697 34.304-33.95 3.999-.054 7.252-3.236 7.395-7.232.991-27.793 1.494-54.41 1.494-79.111 0-24.757-.502-51.374-1.492-79.111z" fill="#81e276"/><g fill="#52c681"><path d="m256 201.223c-12.302 0-22.31-9.967-22.31-22.218s10.008-22.219 22.31-22.219c10.183 0 19.067 6.847 21.604 16.65 1.038 4.009 5.119 6.418 9.141 5.381 4.01-1.038 6.419-5.13 5.381-9.14-3.612-13.954-14.88-24.331-28.626-27.136v-9.214c0-4.142-3.357-7.5-7.5-7.5s-7.5 3.358-7.5 7.5v9.214c-16.99 3.473-29.81 18.503-29.81 36.463 0 20.522 16.737 37.218 37.31 37.218 12.302 0 22.31 9.967 22.31 22.219s-10.008 22.219-22.31 22.219c-9.757 0-18.302-6.214-21.261-15.462-1.264-3.946-5.49-6.12-9.43-4.857-3.945 1.263-6.119 5.484-4.857 9.429 4.178 13.055 14.988 22.498 28.048 25.141v9.206c0 4.142 3.357 7.5 7.5 7.5s7.5-3.358 7.5-7.5v-9.214c16.99-3.473 29.81-18.503 29.81-36.463 0-20.521-16.738-37.217-37.31-37.217z"/><path d="m148.252 145.697c-4.134-.372-7.772 2.667-8.146 6.792-.049.54-4.842 54.674-.003 111.655.332 3.912 3.609 6.866 7.464 6.866.213 0 .428-.009.644-.027 4.127-.351 7.188-3.98 6.838-8.108-4.723-55.622-.051-108.504-.003-109.031.372-4.126-2.669-7.773-6.794-8.147z"/><path d="m371.895 152.489c-.375-4.125-4.004-7.154-8.146-6.792-4.125.374-7.166 4.021-6.793 8.146.048.527 4.72 53.409-.003 109.031-.351 4.127 2.711 7.757 6.838 8.108.216.018.431.027.644.027 3.854 0 7.132-2.955 7.464-6.866 4.837-56.979.044-111.114-.004-111.654z"/></g><g fill="#81e276"><g><path d="m55.81 97.951c4.143 0 7.501-3.358 7.501-7.501s-3.358-7.501-7.501-7.501-7.501 3.358-7.501 7.501c0 4.142 3.358 7.501 7.501 7.501z"/><path d="m48.309 326.99c0 4.143 3.358 7.501 7.501 7.501s7.501-3.358 7.501-7.501-3.358-7.501-7.501-7.501c-4.143-.001-7.501 3.358-7.501 7.501z"/><path d="m463.691 90.45c0-4.143-3.358-7.501-7.501-7.501s-7.501 3.358-7.501 7.501 3.358 7.501 7.501 7.501 7.501-3.359 7.501-7.501z"/><path d="m456.19 319.488c-4.143 0-7.501 3.358-7.501 7.501s3.358 7.501 7.501 7.501 7.501-3.358 7.501-7.501c0-4.142-3.358-7.501-7.501-7.501z"/></g><path d="m512 208.725c0 84.41-5.73 162.51-5.79 163.29-.28 3.77-3.32 6.74-7.09 6.93-7.2.37-14.38.72-21.54 1.04 6.47-150.25 1.05-313.1-.03-342.53 7.17.32 14.36.67 21.57 1.04 3.77.2 6.81 3.17 7.09 6.94.06.78 5.79 78.88 5.79 163.29z"/></g></g></svg>