<svg id="Layer_1" enable-background="new 0 0 512 512" height="512" viewBox="0 0 512 512" width="512" xmlns="http://www.w3.org/2000/svg"><g><g><path d="m490.967 496.377c-.11 3.801-3.06 6.921-6.849 7.241-.49.04-11.919 1-31.968 2.27-39.548 2.481-112.663 6.112-201.677 6.112-67.596 0-144.331-2.09-222.546-8.371-3.81-.31-6.78-3.431-6.89-7.251-5.6-185.393-.06-396.321 0-398.431.1-4.061 3.43-7.301 7.49-7.301h454.951c4.06 0 7.39 3.241 7.49 7.301.059 2.109 5.599 213.037-.001 398.43z" fill="#99f8ff"/><path d="m490.967 496.377c-.11 3.801-3.06 6.921-6.849 7.241-.49.04-11.919 1-31.968 2.27 5.94-178.502.64-365.085-1.02-415.244h32.348c4.06 0 7.39 3.241 7.49 7.301.059 2.111 5.599 213.039-.001 398.432z" fill="#92d3f7"/><path d="m509.176 94.905c-.56 3.531-3.52 6.171-7.09 6.321-.48.02-10.729.45-28.898 1.02-40.907 1.3-121.982 3.371-222.196 3.371-72.915 0-155.95-1.09-241.055-4.391-3.57-.14-6.55-2.781-7.11-6.321-6.22-39.177-.28-82.255-.02-84.065.5-3.591 3.51-6.311 7.13-6.451 201.107-7.781 390.795-3.301 462.251-1.05 18.799.59 29.408 1.02 29.898 1.05 3.62.16 6.61 2.871 7.11 6.451.26 1.811 6.19 44.888-.02 84.065z" fill="#8389aa"/><path d="m509.176 94.905c-.56 3.531-3.52 6.171-7.09 6.321-.48.02-10.729.45-28.898 1.02 1.925-50.131-1-98.908-1-98.908 18.799.59 29.408 1.02 29.898 1.05 3.62.16 6.61 2.871 7.11 6.451.26 1.812 6.19 44.889-.02 84.066z" fill="#646d91"/><g fill="#c7cde0"><path d="m72.03 45.309h-20.986c-4.142 0-7.5 3.358-7.5 7.501s3.357 7.501 7.5 7.501h20.986c4.142 0 7.5-3.358 7.5-7.501s-3.357-7.501-7.5-7.501z"/><path d="m132.026 45.309h-20.986c-4.142 0-7.5 3.358-7.5 7.501s3.357 7.501 7.5 7.501h20.986c4.142 0 7.5-3.358 7.5-7.501s-3.357-7.501-7.5-7.501z"/><path d="m192.023 45.309h-20.986c-4.142 0-7.5 3.358-7.5 7.501s3.357 7.501 7.5 7.501h20.986c4.142 0 7.5-3.358 7.5-7.501s-3.358-7.501-7.5-7.501z"/></g></g><g><path d="m256.002 154.792c-86.903 0-157.604 70.701-157.604 157.604s70.701 157.604 157.604 157.604 157.604-70.7 157.604-157.604-70.701-157.604-157.604-157.604zm-70.926 157.604c0-18.631 1.82-36.686 5.263-53.457 17.016 2.303 36.651 4.05 58.163 4.386v97.645c-21.552.337-41.222 2.09-58.26 4.399-3.379-16.635-5.166-34.521-5.166-52.973zm78.426-141.771c15.284 3.365 29.732 16.948 41.308 39.104 5.388 10.312 9.858 21.934 13.339 34.499-16.118 2.143-34.58 3.763-54.647 4.093zm-15 0v77.697c-20.05-.332-38.515-1.956-54.644-4.103 3.481-12.561 7.95-24.18 13.336-34.489 11.577-22.157 26.024-35.74 41.308-39.105zm0 205.349v78.193c-15.284-3.365-29.731-16.948-41.308-39.104-5.454-10.439-9.963-22.226-13.462-34.969 16.159-2.155 34.667-3.787 54.77-4.12zm15 78.193v-78.193c20.103.333 38.611 1.964 54.77 4.12-3.499 12.743-8.008 24.529-13.462 34.968-11.576 22.157-26.024 35.74-41.308 39.105zm0-93.197v-97.645c21.512-.336 41.147-2.083 58.163-4.386 3.443 16.771 5.263 34.826 5.263 53.457 0 18.452-1.787 36.338-5.166 52.973-17.038-2.309-36.708-4.062-58.26-4.399zm72.997-104.27c21.755-3.632 37.774-7.853 45.925-10.225 10.329 19.728 16.182 42.153 16.182 65.922 0 23.596-5.766 45.868-15.955 65.491-8.067-2.356-24.149-6.613-46.055-10.275 3.488-17.426 5.332-36.06 5.332-55.216 0-19.333-1.878-38.133-5.429-55.697zm37.973-23.595c-8.606 2.348-22.915 5.845-41.417 8.902-3.83-14.277-8.833-27.515-14.95-39.224-5.322-10.186-11.285-18.855-17.737-25.916 30.52 10.015 56.53 30.065 74.104 56.238zm-162.836-56.238c-6.452 7.062-12.415 15.73-17.737 25.916-6.116 11.706-11.118 24.94-14.948 39.212-18.488-3.057-32.803-6.55-41.416-8.896 17.575-26.169 43.584-46.217 74.101-56.232zm-82.055 69.607c8.15 2.373 24.169 6.593 45.924 10.225-3.551 17.564-5.429 36.364-5.429 55.697 0 19.156 1.844 37.79 5.332 55.216-21.906 3.662-37.987 7.918-46.054 10.275-10.189-19.623-15.955-41.895-15.955-65.491-.001-23.769 5.853-46.194 16.182-65.922zm7.677 144.797c8.563-2.34 22.943-5.866 41.567-8.95 3.846 14.454 8.889 27.852 15.073 39.688 5.322 10.186 11.285 18.855 17.737 25.917-30.679-10.069-56.799-30.28-74.377-56.655zm163.11 56.654c6.452-7.062 12.415-15.73 17.737-25.917 6.184-11.836 11.228-25.234 15.073-39.688 18.623 3.084 33.005 6.611 41.568 8.951-17.578 26.375-43.698 46.586-74.378 56.654z" fill="#92d3f7"/></g></g></svg>