<?xml version="1.0" encoding="iso-8859-1"?>
<!-- Generator: Adobe Illustrator 19.0.0, SVG Export Plug-In . SVG Version: 6.00 Build 0)  -->
<svg version="1.1" id="Layer_1" xmlns="http://www.w3.org/2000/svg" xmlns:xlink="http://www.w3.org/1999/xlink" x="0px" y="0px"
	 viewBox="0 0 512 512" style="enable-background:new 0 0 512 512;" xml:space="preserve">
<path style="fill:#C6C5CB;" d="M234.536,85.605L22.362,208.103v155.663l27.088,15.741l212.174-122.499V101.346L234.536,85.605z
	 M216.743,230.876l-149.061,86.06v-82.7l148.826-85.925L216.743,230.876z"/>
<g style="enable-background:new    ;">
	<g>
		<polygon style="fill:#E0E0E2;" points="243.508,246.617 216.743,230.876 216.421,116.982 243.508,132.723 		"/>
		<polygon style="fill:#E0E0E2;" points="67.682,348.13 40.918,332.389 216.743,230.876 243.508,246.617 		"/>
	</g>
	<polygon style="fill:#D8D8DA;" points="49.449,379.508 22.362,363.765 22.362,208.103 49.449,223.845 	"/>
	<polygon style="fill:#E0E0E2;" points="49.449,223.845 22.362,208.103 234.536,85.605 261.623,101.346 	"/>
	<path style="fill:#C6C5CB;" d="M49.449,223.845l212.174-122.499v155.662L49.449,379.508V223.845z M243.508,246.617V132.723
		L67.682,234.235V348.13L243.508,246.617"/>
</g>
<path style="fill:#C6C5CB;" d="M261.594,90.904c-0.095-33.501-12.004-57.06-31.166-68.089c0.062,0.036,0.125,0.068,0.187,0.103
	L203.527,7.177c-19.301-11.217-46.016-9.663-75.453,7.333C69.574,48.284,22.141,130.441,22.331,197.661l0.029,10.443l27.088,15.741
	l212.174-122.499L261.594,90.904z M215.835,75.483L215.835,75.483L75.351,156.591c13.757-42.914,44.347-84.948,79.869-105.456
	c17.463-10.082,33.759-13.58,47.484-11.358C209.741,48.512,214.376,60.543,215.835,75.483z"/>
<g style="enable-background:new    ;">
	<g>
		<path style="fill:#E0E0E2;" d="M190.656,29.321l27.088,15.741c13.779,8.008,23,23.867,25.18,46.162l-27.088-15.741
			C213.657,53.189,204.436,37.329,190.656,29.321z"/>
		<polygon style="fill:#E0E0E2;" points="68.03,192.199 40.943,176.456 215.835,75.483 242.923,91.224 		"/>
	</g>
	<polygon style="fill:#D8D8DA;" points="49.449,223.845 22.362,208.103 22.331,197.661 49.419,213.402 	"/>
	<path style="fill:#E0E0E2;" d="M203.527,7.177l27.088,15.741c-19.301-11.217-46.016-9.663-75.453,7.333L128.074,14.51
		C157.511-2.486,184.226-4.04,203.527,7.177z"/>
	<path style="fill:#D8D8DA;" d="M49.419,213.402l-27.088-15.741c-0.19-67.22,47.243-149.378,105.742-183.151l27.088,15.741
		C96.662,64.026,49.229,146.183,49.419,213.402z"/>
	<path style="fill:#C6C5CB;" d="M155.161,30.251c58.499-33.775,106.242-6.567,106.433,60.652l0.029,10.443L49.449,223.845
		l-0.029-10.443C49.229,146.183,96.662,64.026,155.161,30.251z M68.03,192.199L242.923,91.224
		c-4.708-48.174-42.299-66.303-87.703-40.089C109.808,77.354,72.45,138.754,68.03,192.199"/>
</g>
<polygon style="fill:#F18700;" points="253.127,117.946 59.128,229.951 59.51,364.73 284.857,495.91 478.856,383.903 
	478.856,249.125 "/>
<g style="enable-background:new    ;">
	<g>
		<polygon style="fill:#FF9911;" points="284.857,495.91 59.51,364.73 59.128,229.951 284.857,361.131 		"/>
		<polygon style="fill:#FF9911;" points="284.857,361.131 59.128,229.951 253.127,117.946 478.856,249.125 		"/>
	</g>
	<polygon style="fill:#F18700;" points="478.856,249.125 478.856,383.903 284.857,495.91 284.857,361.131 	"/>
</g>
<polygon style="fill:#D8D8DA;" points="59.388,347.329 48.793,353.447 35.891,345.946 35.891,371.551 277.465,512 277.465,486.395 
	287.212,480.627 "/>
<polygon style="fill:#E0E0E2;" points="277.465,486.395 287.212,480.627 59.388,347.329 48.793,353.447 "/>
<path style="fill:#C6C5CB;" d="M462.581,218.097L250.407,340.596v155.663L277.495,512l212.174-122.499V233.838L462.581,218.097z
	 M444.789,363.368l-149.06,86.06v-82.7l148.826-85.925L444.789,363.368z"/>
<g style="enable-background:new    ;">
	<polygon style="fill:#ACABB1;" points="471.554,379.111 444.789,363.368 444.466,249.474 471.554,265.216 	"/>
	<g>
		<polygon style="fill:#D8D8DA;" points="295.729,480.623 268.965,464.881 444.789,363.368 471.554,379.111 		"/>
		<polygon style="fill:#D8D8DA;" points="277.495,512 250.407,496.259 250.407,340.596 277.495,356.337 		"/>
	</g>
	<polygon style="fill:#E0E0E2;" points="277.495,356.337 250.407,340.596 462.581,218.097 489.669,233.838 	"/>
	<path style="fill:#C6C5CB;" d="M277.495,356.337l212.174-122.499v155.662L277.495,512V356.337z M471.554,379.111V265.216
		L295.729,366.729v113.894L471.554,379.111"/>
</g>
<path style="fill:#F18700;" d="M450.462,167.464c0.056,0.032,0.114,0.062,0.17,0.094L224.903,36.378
	c-17.637-10.249-42.062-8.803-69.022,6.761c-53.575,30.932-96.859,105.901-96.684,167.463l225.729,131.18l193.999-112.005
	C478.839,199.096,467.973,177.541,450.462,167.464z"/>
<g style="enable-background:new    ;">
	<path style="fill:#FFA834;" d="M224.903,36.378l225.729,131.18c-17.637-10.249-42.062-8.803-69.022,6.761L155.881,43.14
		C182.841,27.575,207.266,26.129,224.903,36.378z"/>
	<path style="fill:#FF9911;" d="M284.927,341.783l-225.73-131.18c-0.174-61.562,43.109-136.532,96.684-167.463L381.61,174.32
		C328.035,205.251,284.752,280.221,284.927,341.783z"/>
	<path style="fill:#F18700;" d="M381.61,174.32c53.575-30.932,97.142-6.105,97.316,55.457L284.927,341.783
		C284.752,280.221,328.035,205.251,381.61,174.32z"/>
</g>
<polygon style="fill:#D8D8DA;" points="287.863,328.139 60.039,194.841 49.951,200.666 35.891,192.492 35.891,243.702 
	277.465,384.151 277.465,332.943 278.639,333.605 "/>
<polygon style="fill:#E0E0E2;" points="278.639,333.605 287.863,328.139 60.039,194.841 49.968,200.657 "/>
<path style="fill:#C6C5CB;" d="M489.64,223.397c-0.095-33.501-12.004-57.061-31.166-68.089c0.062,0.036,0.125,0.068,0.186,0.103
	l-27.088-15.741c-19.301-11.217-46.016-9.663-75.453,7.333c-58.499,33.774-105.932,115.931-105.741,183.15l0.029,10.443
	l27.088,15.741l212.174-122.499L489.64,223.397z M443.881,207.975l-140.483,81.108c13.757-42.914,44.347-84.948,79.869-105.456
	c17.463-10.082,33.759-13.58,47.484-11.358C437.786,181.004,442.421,193.037,443.881,207.975z"/>
<g style="enable-background:new    ;">
	<path style="fill:#ACABB1;" d="M418.702,161.814l27.088,15.741c13.779,8.008,23,23.867,25.18,46.162l-27.088-15.741
		C441.703,185.681,432.481,169.821,418.702,161.814z"/>
	<polygon style="fill:#D8D8DA;" points="296.076,324.691 268.989,308.95 443.881,207.975 470.969,223.717 	"/>
	<g>
		<polygon style="fill:#E0E0E2;" points="277.495,356.337 250.407,340.596 250.378,330.154 277.466,345.896 		"/>
		<path style="fill:#E0E0E2;" d="M431.572,139.669l27.088,15.741c-19.301-11.217-46.016-9.663-75.453,7.333l-27.088-15.741
			C385.557,130.006,412.271,128.452,431.572,139.669z"/>
	</g>
	<path style="fill:#D8D8DA;" d="M277.466,345.896l-27.088-15.741c-0.19-67.219,47.242-149.378,105.741-183.151l27.088,15.741
		C324.708,196.518,277.275,278.675,277.466,345.896z"/>
	<path style="fill:#C6C5CB;" d="M383.207,162.743c58.499-33.775,106.242-6.567,106.433,60.652l0.029,10.443L277.495,356.337
		l-0.029-10.443C277.275,278.675,324.708,196.518,383.207,162.743z M296.076,324.691l174.893-100.974
		c-4.708-48.174-42.299-66.303-87.703-40.089C337.854,209.847,300.497,271.246,296.076,324.691"/>
</g>
<g>
	<polygon style="fill:#D8D8DA;" points="277.465,384.151 35.891,243.702 35.891,192.492 277.465,332.942 	"/>
	<polygon style="fill:#D8D8DA;" points="277.465,512 35.891,371.551 35.891,345.946 277.465,486.395 	"/>
</g>
<g style="enable-background:new    ;">
	<g>
		<polygon style="fill:#898890;" points="126.232,246.05 113.766,253.294 113.766,302.734 156.651,327.574 169.258,320.33 
			169.258,270.89 		"/>
		<polygon style="fill:#898890;" points="156.791,278.135 169.258,270.89 169.258,320.33 156.651,327.574 		"/>
	</g>
	<polygon style="fill:#C6C5CB;" points="113.766,253.294 126.232,246.05 169.258,270.89 156.791,278.135 	"/>
	<polygon style="fill:#ACABB1;" points="156.791,278.135 156.651,327.574 113.766,302.734 113.766,253.294 	"/>
</g>
<path style="fill:#77767E;" d="M134.399,277.238c-4.05-2.338-7.349-0.465-7.362,4.188c-0.009,3.304,1.637,7.119,4.042,9.889
	l-0.029,10.433l6.551,3.782l0.029-10.433c2.405,0.006,4.068-1.898,4.077-5.201C141.721,285.242,138.449,279.575,134.399,277.238z"/>
<g>
</g>
<g>
</g>
<g>
</g>
<g>
</g>
<g>
</g>
<g>
</g>
<g>
</g>
<g>
</g>
<g>
</g>
<g>
</g>
<g>
</g>
<g>
</g>
<g>
</g>
<g>
</g>
<g>
</g>
</svg>
